<svg width="450" height="354" viewBox="0 0 450 354" fill="none" xmlns="http://www.w3.org/2000/svg">
<rect x="26.5" y="193.5" width="191" height="160" fill="#FAFAFA" stroke="#E0E0E0"/>
<path d="M105.878 285.848V297H104.422V291.944H98.7424V297H97.2864V285.848H98.7424V290.744H104.422V285.848H105.878ZM107.66 292.584C107.66 291.688 107.842 290.904 108.204 290.232C108.567 289.549 109.063 289.021 109.692 288.648C110.332 288.275 111.042 288.088 111.82 288.088C112.589 288.088 113.255 288.253 113.821 288.584C114.386 288.915 114.807 289.331 115.085 289.832V288.232H116.557V297H115.085V295.368C114.797 295.88 114.365 296.307 113.789 296.648C113.223 296.979 112.562 297.144 111.805 297.144C111.026 297.144 110.322 296.952 109.692 296.568C109.063 296.184 108.567 295.645 108.204 294.952C107.842 294.259 107.66 293.469 107.66 292.584ZM115.085 292.6C115.085 291.939 114.951 291.363 114.685 290.872C114.418 290.381 114.055 290.008 113.597 289.752C113.149 289.485 112.652 289.352 112.109 289.352C111.565 289.352 111.069 289.48 110.621 289.736C110.172 289.992 109.815 290.365 109.549 290.856C109.282 291.347 109.148 291.923 109.148 292.584C109.148 293.256 109.282 293.843 109.549 294.344C109.815 294.835 110.172 295.213 110.621 295.48C111.069 295.736 111.565 295.864 112.109 295.864C112.652 295.864 113.149 295.736 113.597 295.48C114.055 295.213 114.418 294.835 114.685 294.344C114.951 293.843 115.085 293.261 115.085 292.6ZM120.313 289.848C120.601 289.347 121.028 288.931 121.593 288.6C122.169 288.259 122.836 288.088 123.593 288.088C124.372 288.088 125.076 288.275 125.705 288.648C126.345 289.021 126.846 289.549 127.209 290.232C127.572 290.904 127.753 291.688 127.753 292.584C127.753 293.469 127.572 294.259 127.209 294.952C126.846 295.645 126.345 296.184 125.705 296.568C125.076 296.952 124.372 297.144 123.593 297.144C122.846 297.144 122.185 296.979 121.609 296.648C121.044 296.307 120.612 295.885 120.313 295.384V301.16H118.857V288.232H120.313V289.848ZM126.265 292.584C126.265 291.923 126.132 291.347 125.865 290.856C125.598 290.365 125.236 289.992 124.777 289.736C124.329 289.48 123.833 289.352 123.289 289.352C122.756 289.352 122.26 289.485 121.801 289.752C121.353 290.008 120.99 290.387 120.713 290.888C120.446 291.379 120.313 291.949 120.313 292.6C120.313 293.261 120.446 293.843 120.713 294.344C120.99 294.835 121.353 295.213 121.801 295.48C122.26 295.736 122.756 295.864 123.289 295.864C123.833 295.864 124.329 295.736 124.777 295.48C125.236 295.213 125.598 294.835 125.865 294.344C126.132 293.843 126.265 293.256 126.265 292.584ZM130.966 289.848C131.254 289.347 131.68 288.931 132.246 288.6C132.822 288.259 133.488 288.088 134.246 288.088C135.024 288.088 135.728 288.275 136.358 288.648C136.998 289.021 137.499 289.549 137.862 290.232C138.224 290.904 138.406 291.688 138.406 292.584C138.406 293.469 138.224 294.259 137.862 294.952C137.499 295.645 136.998 296.184 136.358 296.568C135.728 296.952 135.024 297.144 134.246 297.144C133.499 297.144 132.838 296.979 132.262 296.648C131.696 296.307 131.264 295.885 130.966 295.384V301.16H129.51V288.232H130.966V289.848ZM136.918 292.584C136.918 291.923 136.784 291.347 136.518 290.856C136.251 290.365 135.888 289.992 135.43 289.736C134.982 289.48 134.486 289.352 133.942 289.352C133.408 289.352 132.912 289.485 132.454 289.752C132.006 290.008 131.643 290.387 131.366 290.888C131.099 291.379 130.966 291.949 130.966 292.6C130.966 293.261 131.099 293.843 131.366 294.344C131.643 294.835 132.006 295.213 132.454 295.48C132.912 295.736 133.408 295.864 133.942 295.864C134.486 295.864 134.982 295.736 135.43 295.48C135.888 295.213 136.251 294.835 136.518 294.344C136.784 293.843 136.918 293.256 136.918 292.584ZM147.714 288.232L142.434 301.128H140.93L142.658 296.904L139.122 288.232H140.738L143.49 295.336L146.21 288.232H147.714ZM95.8789 315.416C95.8789 314.328 96.1243 313.352 96.6149 312.488C97.1056 311.613 97.7723 310.931 98.6149 310.44C99.4683 309.949 100.412 309.704 101.447 309.704C102.663 309.704 103.724 309.997 104.631 310.584C105.538 311.171 106.199 312.003 106.615 313.08H104.871C104.562 312.408 104.114 311.891 103.527 311.528C102.951 311.165 102.258 310.984 101.447 310.984C100.668 310.984 99.9696 311.165 99.3509 311.528C98.7323 311.891 98.2469 312.408 97.8949 313.08C97.5429 313.741 97.3669 314.52 97.3669 315.416C97.3669 316.301 97.5429 317.08 97.8949 317.752C98.2469 318.413 98.7323 318.925 99.3509 319.288C99.9696 319.651 100.668 319.832 101.447 319.832C102.258 319.832 102.951 319.656 103.527 319.304C104.114 318.941 104.562 318.424 104.871 317.752H106.615C106.199 318.819 105.538 319.645 104.631 320.232C103.724 320.808 102.663 321.096 101.447 321.096C100.412 321.096 99.4683 320.856 98.6149 320.376C97.7723 319.885 97.1056 319.208 96.6149 318.344C96.1243 317.48 95.8789 316.504 95.8789 315.416ZM110.078 309.16V321H108.622V309.16H110.078ZM113.152 310.808C112.874 310.808 112.64 310.712 112.448 310.52C112.256 310.328 112.16 310.093 112.16 309.816C112.16 309.539 112.256 309.304 112.448 309.112C112.64 308.92 112.874 308.824 113.152 308.824C113.418 308.824 113.642 308.92 113.824 309.112C114.016 309.304 114.112 309.539 114.112 309.816C114.112 310.093 114.016 310.328 113.824 310.52C113.642 310.712 113.418 310.808 113.152 310.808ZM113.856 312.232V321H112.4V312.232H113.856ZM124.177 316.28C124.177 316.557 124.161 316.851 124.129 317.16H117.121C117.175 318.024 117.468 318.701 118.001 319.192C118.545 319.672 119.201 319.912 119.969 319.912C120.599 319.912 121.121 319.768 121.537 319.48C121.964 319.181 122.263 318.787 122.433 318.296H124.001C123.767 319.139 123.297 319.827 122.593 320.36C121.889 320.883 121.015 321.144 119.969 321.144C119.137 321.144 118.391 320.957 117.729 320.584C117.079 320.211 116.567 319.683 116.193 319C115.82 318.307 115.633 317.507 115.633 316.6C115.633 315.693 115.815 314.899 116.177 314.216C116.54 313.533 117.047 313.011 117.697 312.648C118.359 312.275 119.116 312.088 119.969 312.088C120.801 312.088 121.537 312.269 122.177 312.632C122.817 312.995 123.308 313.496 123.649 314.136C124.001 314.765 124.177 315.48 124.177 316.28ZM122.673 315.976C122.673 315.421 122.551 314.947 122.305 314.552C122.06 314.147 121.724 313.843 121.297 313.64C120.881 313.427 120.417 313.32 119.905 313.32C119.169 313.32 118.54 313.555 118.017 314.024C117.505 314.493 117.212 315.144 117.137 315.976H122.673ZM130.211 312.072C131.278 312.072 132.142 312.397 132.803 313.048C133.465 313.688 133.795 314.616 133.795 315.832V321H132.355V316.04C132.355 315.165 132.137 314.499 131.699 314.04C131.262 313.571 130.665 313.336 129.907 313.336C129.139 313.336 128.526 313.576 128.067 314.056C127.619 314.536 127.395 315.235 127.395 316.152V321H125.939V312.232H127.395V313.48C127.683 313.032 128.073 312.685 128.563 312.44C129.065 312.195 129.614 312.072 130.211 312.072ZM137.79 313.432V318.6C137.79 319.027 137.88 319.331 138.062 319.512C138.243 319.683 138.558 319.768 139.006 319.768H140.078V321H138.766C137.955 321 137.347 320.813 136.942 320.44C136.536 320.067 136.334 319.453 136.334 318.6V313.432H135.198V312.232H136.334V310.024H137.79V312.232H140.078V313.432H137.79ZM144.786 321.144C144.114 321.144 143.511 321.032 142.978 320.808C142.444 320.573 142.023 320.253 141.714 319.848C141.404 319.432 141.234 318.957 141.202 318.424H142.706C142.748 318.861 142.951 319.219 143.314 319.496C143.687 319.773 144.172 319.912 144.77 319.912C145.324 319.912 145.762 319.789 146.082 319.544C146.402 319.299 146.562 318.989 146.562 318.616C146.562 318.232 146.391 317.949 146.05 317.768C145.708 317.576 145.18 317.389 144.466 317.208C143.815 317.037 143.282 316.867 142.866 316.696C142.46 316.515 142.108 316.253 141.81 315.912C141.522 315.56 141.378 315.101 141.378 314.536C141.378 314.088 141.511 313.677 141.778 313.304C142.044 312.931 142.423 312.637 142.914 312.424C143.404 312.2 143.964 312.088 144.594 312.088C145.564 312.088 146.348 312.333 146.946 312.824C147.543 313.315 147.863 313.987 147.906 314.84H146.45C146.418 314.381 146.231 314.013 145.89 313.736C145.559 313.459 145.111 313.32 144.546 313.32C144.023 313.32 143.607 313.432 143.298 313.656C142.988 313.88 142.834 314.173 142.834 314.536C142.834 314.824 142.924 315.064 143.106 315.256C143.298 315.437 143.532 315.587 143.81 315.704C144.098 315.811 144.492 315.933 144.994 316.072C145.623 316.243 146.135 316.413 146.53 316.584C146.924 316.744 147.26 316.989 147.538 317.32C147.826 317.651 147.975 318.083 147.986 318.616C147.986 319.096 147.852 319.528 147.586 319.912C147.319 320.296 146.94 320.6 146.45 320.824C145.97 321.037 145.415 321.144 144.786 321.144Z" fill="#61646B"/>
<path d="M103.337 233.76H89.9367V241.72C90.4967 240.973 91.3234 240.347 92.4167 239.84C93.5367 239.333 94.7234 239.08 95.9767 239.08C98.2167 239.08 100.03 239.56 101.417 240.52C102.83 241.48 103.83 242.693 104.417 244.16C105.03 245.627 105.337 247.173 105.337 248.8C105.337 250.773 104.95 252.533 104.177 254.08C103.43 255.6 102.297 256.8 100.777 257.68C99.2834 258.56 97.4434 259 95.2567 259C92.3501 259 90.0167 258.28 88.2567 256.84C86.4967 255.4 85.4434 253.493 85.0967 251.12H89.5367C89.8301 252.373 90.4834 253.373 91.4967 254.12C92.5101 254.84 93.7767 255.2 95.2967 255.2C97.1901 255.2 98.6034 254.627 99.5367 253.48C100.497 252.333 100.977 250.813 100.977 248.92C100.977 247 100.497 245.533 99.5367 244.52C98.5767 243.48 97.1634 242.96 95.2967 242.96C93.9901 242.96 92.8834 243.293 91.9767 243.96C91.0967 244.6 90.4567 245.48 90.0567 246.6H85.7367V229.76H103.337V233.76ZM110.084 244.04C110.084 239.427 110.857 235.827 112.404 233.24C113.977 230.627 116.67 229.32 120.484 229.32C124.297 229.32 126.977 230.627 128.524 233.24C130.097 235.827 130.884 239.427 130.884 244.04C130.884 248.707 130.097 252.36 128.524 255C126.977 257.613 124.297 258.92 120.484 258.92C116.67 258.92 113.977 257.613 112.404 255C110.857 252.36 110.084 248.707 110.084 244.04ZM126.404 244.04C126.404 241.88 126.257 240.053 125.964 238.56C125.697 237.067 125.137 235.853 124.284 234.92C123.43 233.96 122.164 233.48 120.484 233.48C118.804 233.48 117.537 233.96 116.684 234.92C115.83 235.853 115.257 237.067 114.964 238.56C114.697 240.053 114.564 241.88 114.564 244.04C114.564 246.28 114.697 248.16 114.964 249.68C115.23 251.2 115.79 252.427 116.644 253.36C117.524 254.293 118.804 254.76 120.484 254.76C122.164 254.76 123.43 254.293 124.284 253.36C125.164 252.427 125.737 251.2 126.004 249.68C126.27 248.16 126.404 246.28 126.404 244.04ZM157.789 246.48H149.709V254.76H145.469V246.48H137.389V242.64H145.469V234.36H149.709V242.64H157.789V246.48Z" fill="#313131"/>
<rect x="258.5" y="2.5" width="191" height="160" fill="#FAFAFA" stroke="#E0E0E0"/>
<path d="M323.473 106.112C322.438 106.112 321.494 105.872 320.641 105.392C319.788 104.901 319.11 104.224 318.609 103.36C318.118 102.485 317.873 101.504 317.873 100.416C317.873 99.328 318.118 98.352 318.609 97.488C319.11 96.6133 319.788 95.936 320.641 95.456C321.494 94.9653 322.438 94.72 323.473 94.72C324.518 94.72 325.468 94.9653 326.321 95.456C327.174 95.936 327.846 96.608 328.337 97.472C328.828 98.336 329.073 99.3173 329.073 100.416C329.073 101.515 328.828 102.496 328.337 103.36C327.846 104.224 327.174 104.901 326.321 105.392C325.468 105.872 324.518 106.112 323.473 106.112ZM323.473 104.848C324.252 104.848 324.95 104.667 325.569 104.304C326.198 103.941 326.689 103.424 327.041 102.752C327.404 102.08 327.585 101.301 327.585 100.416C327.585 99.52 327.404 98.7413 327.041 98.08C326.689 97.408 326.204 96.8907 325.585 96.528C324.966 96.1653 324.262 95.984 323.473 95.984C322.684 95.984 321.98 96.1653 321.361 96.528C320.742 96.8907 320.252 97.408 319.889 98.08C319.537 98.7413 319.361 99.52 319.361 100.416C319.361 101.301 319.537 102.08 319.889 102.752C320.252 103.424 320.742 103.941 321.361 104.304C321.99 104.667 322.694 104.848 323.473 104.848ZM335.107 97.072C336.174 97.072 337.038 97.3973 337.699 98.048C338.36 98.688 338.691 99.616 338.691 100.832V106H337.251V101.04C337.251 100.165 337.032 99.4987 336.595 99.04C336.158 98.5707 335.56 98.336 334.803 98.336C334.035 98.336 333.422 98.576 332.963 99.056C332.515 99.536 332.291 100.235 332.291 101.152V106H330.835V97.232H332.291V98.48C332.579 98.032 332.968 97.6853 333.459 97.44C333.96 97.1947 334.51 97.072 335.107 97.072ZM353.463 98.08C353.154 97.4293 352.706 96.928 352.119 96.576C351.532 96.2133 350.85 96.032 350.071 96.032C349.292 96.032 348.588 96.2133 347.959 96.576C347.34 96.928 346.85 97.44 346.487 98.112C346.135 98.7733 345.959 99.5413 345.959 100.416C345.959 101.291 346.135 102.059 346.487 102.72C346.85 103.381 347.34 103.893 347.959 104.256C348.588 104.608 349.292 104.784 350.071 104.784C351.159 104.784 352.055 104.459 352.759 103.808C353.463 103.157 353.874 102.277 353.991 101.168H349.543V99.984H355.543V101.104C355.458 102.021 355.17 102.864 354.679 103.632C354.188 104.389 353.543 104.992 352.743 105.44C351.943 105.877 351.052 106.096 350.071 106.096C349.036 106.096 348.092 105.856 347.239 105.376C346.386 104.885 345.708 104.208 345.207 103.344C344.716 102.48 344.471 101.504 344.471 100.416C344.471 99.328 344.716 98.352 345.207 97.488C345.708 96.6133 346.386 95.936 347.239 95.456C348.092 94.9653 349.036 94.72 350.071 94.72C351.255 94.72 352.3 95.0133 353.207 95.6C354.124 96.1867 354.791 97.0133 355.207 98.08H353.463ZM361.132 106.144C360.311 106.144 359.564 105.957 358.892 105.584C358.231 105.211 357.708 104.683 357.324 104C356.951 103.307 356.764 102.507 356.764 101.6C356.764 100.704 356.956 99.9147 357.34 99.232C357.735 98.5387 358.268 98.0107 358.94 97.648C359.612 97.2747 360.364 97.088 361.196 97.088C362.028 97.088 362.78 97.2747 363.452 97.648C364.124 98.0107 364.652 98.5333 365.036 99.216C365.431 99.8987 365.628 100.693 365.628 101.6C365.628 102.507 365.426 103.307 365.02 104C364.626 104.683 364.087 105.211 363.404 105.584C362.722 105.957 361.964 106.144 361.132 106.144ZM361.132 104.864C361.655 104.864 362.146 104.741 362.604 104.496C363.063 104.251 363.431 103.883 363.708 103.392C363.996 102.901 364.14 102.304 364.14 101.6C364.14 100.896 364.002 100.299 363.724 99.808C363.447 99.3173 363.084 98.9547 362.636 98.72C362.188 98.4747 361.703 98.352 361.18 98.352C360.647 98.352 360.156 98.4747 359.708 98.72C359.271 98.9547 358.919 99.3173 358.652 99.808C358.386 100.299 358.252 100.896 358.252 101.6C358.252 102.315 358.38 102.917 358.636 103.408C358.903 103.899 359.255 104.267 359.692 104.512C360.13 104.747 360.61 104.864 361.132 104.864ZM368.135 95.808C367.857 95.808 367.623 95.712 367.431 95.52C367.239 95.328 367.143 95.0933 367.143 94.816C367.143 94.5387 367.239 94.304 367.431 94.112C367.623 93.92 367.857 93.824 368.135 93.824C368.401 93.824 368.625 93.92 368.807 94.112C368.999 94.304 369.095 94.5387 369.095 94.816C369.095 95.0933 368.999 95.328 368.807 95.52C368.625 95.712 368.401 95.808 368.135 95.808ZM368.839 97.232V106H367.383V97.232H368.839ZM375.432 97.072C376.499 97.072 377.363 97.3973 378.024 98.048C378.685 98.688 379.016 99.616 379.016 100.832V106H377.576V101.04C377.576 100.165 377.357 99.4987 376.92 99.04C376.483 98.5707 375.885 98.336 375.128 98.336C374.36 98.336 373.747 98.576 373.288 99.056C372.84 99.536 372.616 100.235 372.616 101.152V106H371.16V97.232H372.616V98.48C372.904 98.032 373.293 97.6853 373.784 97.44C374.285 97.1947 374.835 97.072 375.432 97.072ZM384.851 97.088C385.608 97.088 386.269 97.2533 386.835 97.584C387.411 97.9147 387.837 98.3307 388.115 98.832V97.232H389.587V106.192C389.587 106.992 389.416 107.701 389.075 108.32C388.733 108.949 388.243 109.44 387.603 109.792C386.973 110.144 386.237 110.32 385.395 110.32C384.243 110.32 383.283 110.048 382.515 109.504C381.747 108.96 381.293 108.219 381.155 107.28H382.595C382.755 107.813 383.085 108.24 383.587 108.56C384.088 108.891 384.691 109.056 385.395 109.056C386.195 109.056 386.845 108.805 387.347 108.304C387.859 107.803 388.115 107.099 388.115 106.192V104.352C387.827 104.864 387.4 105.291 386.835 105.632C386.269 105.973 385.608 106.144 384.851 106.144C384.072 106.144 383.363 105.952 382.723 105.568C382.093 105.184 381.597 104.645 381.235 103.952C380.872 103.259 380.691 102.469 380.691 101.584C380.691 100.688 380.872 99.904 381.235 99.232C381.597 98.5493 382.093 98.0213 382.723 97.648C383.363 97.2747 384.072 97.088 384.851 97.088ZM388.115 101.6C388.115 100.939 387.981 100.363 387.715 99.872C387.448 99.3813 387.085 99.008 386.627 98.752C386.179 98.4853 385.683 98.352 385.139 98.352C384.595 98.352 384.099 98.48 383.651 98.736C383.203 98.992 382.845 99.3653 382.579 99.856C382.312 100.347 382.179 100.923 382.179 101.584C382.179 102.256 382.312 102.843 382.579 103.344C382.845 103.835 383.203 104.213 383.651 104.48C384.099 104.736 384.595 104.864 385.139 104.864C385.683 104.864 386.179 104.736 386.627 104.48C387.085 104.213 387.448 103.835 387.715 103.344C387.981 102.843 388.115 102.261 388.115 101.6ZM331.615 122.112C331.615 123.04 331.295 123.813 330.655 124.432C330.026 125.04 329.061 125.344 327.759 125.344H325.615V130H324.159V118.848H327.759C329.018 118.848 329.973 119.152 330.623 119.76C331.285 120.368 331.615 121.152 331.615 122.112ZM327.759 124.144C328.57 124.144 329.167 123.968 329.551 123.616C329.935 123.264 330.127 122.763 330.127 122.112C330.127 120.736 329.338 120.048 327.759 120.048H325.615V124.144H327.759ZM334.721 122.656C334.977 122.155 335.339 121.765 335.809 121.488C336.289 121.211 336.87 121.072 337.553 121.072V122.576H337.169C335.537 122.576 334.721 123.461 334.721 125.232V130H333.265V121.232H334.721V122.656ZM342.898 130.144C342.076 130.144 341.33 129.957 340.658 129.584C339.996 129.211 339.474 128.683 339.09 128C338.716 127.307 338.53 126.507 338.53 125.6C338.53 124.704 338.722 123.915 339.106 123.232C339.5 122.539 340.034 122.011 340.706 121.648C341.378 121.275 342.13 121.088 342.962 121.088C343.794 121.088 344.546 121.275 345.218 121.648C345.89 122.011 346.418 122.533 346.802 123.216C347.196 123.899 347.394 124.693 347.394 125.6C347.394 126.507 347.191 127.307 346.786 128C346.391 128.683 345.852 129.211 345.17 129.584C344.487 129.957 343.73 130.144 342.898 130.144ZM342.898 128.864C343.42 128.864 343.911 128.741 344.37 128.496C344.828 128.251 345.196 127.883 345.474 127.392C345.762 126.901 345.906 126.304 345.906 125.6C345.906 124.896 345.767 124.299 345.49 123.808C345.212 123.317 344.85 122.955 344.402 122.72C343.954 122.475 343.468 122.352 342.946 122.352C342.412 122.352 341.922 122.475 341.474 122.72C341.036 122.955 340.684 123.317 340.418 123.808C340.151 124.299 340.018 124.896 340.018 125.6C340.018 126.315 340.146 126.917 340.402 127.408C340.668 127.899 341.02 128.267 341.458 128.512C341.895 128.747 342.375 128.864 342.898 128.864ZM349.932 119.808C349.655 119.808 349.42 119.712 349.228 119.52C349.047 119.328 348.956 119.093 348.956 118.816C348.956 118.539 349.047 118.304 349.228 118.112C349.42 117.92 349.655 117.824 349.932 117.824C350.209 117.824 350.439 117.92 350.62 118.112C350.812 118.304 350.908 118.539 350.908 118.816C350.908 119.093 350.812 119.328 350.62 119.52C350.439 119.712 350.209 119.808 349.932 119.808ZM350.652 131.904C350.652 132.683 350.455 133.253 350.06 133.616C349.665 133.979 349.089 134.16 348.332 134.16H347.484V132.928H348.092C348.497 132.928 348.78 132.848 348.94 132.688C349.111 132.528 349.196 132.256 349.196 131.872V121.232H350.652V131.904ZM360.957 125.28C360.957 125.557 360.941 125.851 360.909 126.16H353.901C353.954 127.024 354.247 127.701 354.781 128.192C355.325 128.672 355.981 128.912 356.749 128.912C357.378 128.912 357.901 128.768 358.317 128.48C358.743 128.181 359.042 127.787 359.213 127.296H360.781C360.546 128.139 360.077 128.827 359.373 129.36C358.669 129.883 357.794 130.144 356.749 130.144C355.917 130.144 355.17 129.957 354.509 129.584C353.858 129.211 353.346 128.683 352.973 128C352.599 127.307 352.413 126.507 352.413 125.6C352.413 124.693 352.594 123.899 352.957 123.216C353.319 122.533 353.826 122.011 354.477 121.648C355.138 121.275 355.895 121.088 356.749 121.088C357.581 121.088 358.317 121.269 358.957 121.632C359.597 121.995 360.087 122.496 360.429 123.136C360.781 123.765 360.957 124.48 360.957 125.28ZM359.453 124.976C359.453 124.421 359.33 123.947 359.085 123.552C358.839 123.147 358.503 122.843 358.077 122.64C357.661 122.427 357.197 122.32 356.685 122.32C355.949 122.32 355.319 122.555 354.797 123.024C354.285 123.493 353.991 124.144 353.917 124.976H359.453ZM362.175 125.6C362.175 124.693 362.356 123.904 362.719 123.232C363.081 122.549 363.583 122.021 364.223 121.648C364.873 121.275 365.615 121.088 366.447 121.088C367.524 121.088 368.409 121.349 369.103 121.872C369.807 122.395 370.271 123.12 370.495 124.048H368.927C368.777 123.515 368.484 123.093 368.047 122.784C367.62 122.475 367.087 122.32 366.447 122.32C365.615 122.32 364.943 122.608 364.431 123.184C363.919 123.749 363.663 124.555 363.663 125.6C363.663 126.656 363.919 127.472 364.431 128.048C364.943 128.624 365.615 128.912 366.447 128.912C367.087 128.912 367.62 128.763 368.047 128.464C368.473 128.165 368.767 127.739 368.927 127.184H370.495C370.26 128.08 369.791 128.8 369.087 129.344C368.383 129.877 367.503 130.144 366.447 130.144C365.615 130.144 364.873 129.957 364.223 129.584C363.583 129.211 363.081 128.683 362.719 128C362.356 127.317 362.175 126.517 362.175 125.6ZM374.053 122.432V127.6C374.053 128.027 374.144 128.331 374.325 128.512C374.507 128.683 374.821 128.768 375.269 128.768H376.341V130H375.029C374.219 130 373.611 129.813 373.205 129.44C372.8 129.067 372.597 128.453 372.597 127.6V122.432H371.461V121.232H372.597V119.024H374.053V121.232H376.341V122.432H374.053ZM381.049 130.144C380.377 130.144 379.775 130.032 379.241 129.808C378.708 129.573 378.287 129.253 377.977 128.848C377.668 128.432 377.497 127.957 377.465 127.424H378.969C379.012 127.861 379.215 128.219 379.577 128.496C379.951 128.773 380.436 128.912 381.033 128.912C381.588 128.912 382.025 128.789 382.345 128.544C382.665 128.299 382.825 127.989 382.825 127.616C382.825 127.232 382.655 126.949 382.313 126.768C381.972 126.576 381.444 126.389 380.729 126.208C380.079 126.037 379.545 125.867 379.129 125.696C378.724 125.515 378.372 125.253 378.073 124.912C377.785 124.56 377.641 124.101 377.641 123.536C377.641 123.088 377.775 122.677 378.041 122.304C378.308 121.931 378.687 121.637 379.177 121.424C379.668 121.2 380.228 121.088 380.857 121.088C381.828 121.088 382.612 121.333 383.209 121.824C383.807 122.315 384.127 122.987 384.169 123.84H382.713C382.681 123.381 382.495 123.013 382.153 122.736C381.823 122.459 381.375 122.32 380.809 122.32C380.287 122.32 379.871 122.432 379.561 122.656C379.252 122.88 379.097 123.173 379.097 123.536C379.097 123.824 379.188 124.064 379.369 124.256C379.561 124.437 379.796 124.587 380.073 124.704C380.361 124.811 380.756 124.933 381.257 125.072C381.887 125.243 382.399 125.413 382.793 125.584C383.188 125.744 383.524 125.989 383.801 126.32C384.089 126.651 384.239 127.083 384.249 127.616C384.249 128.096 384.116 128.528 383.849 128.912C383.583 129.296 383.204 129.6 382.713 129.824C382.233 130.037 381.679 130.144 381.049 130.144Z" fill="#61646B"/>
<path d="M322.218 43V38.84H330.538V68H325.938V43H322.218ZM336.802 53.04C336.802 48.4267 337.576 44.8267 339.122 42.24C340.696 39.6267 343.389 38.32 347.202 38.32C351.016 38.32 353.696 39.6267 355.242 42.24C356.816 44.8267 357.602 48.4267 357.602 53.04C357.602 57.7067 356.816 61.36 355.242 64C353.696 66.6133 351.016 67.92 347.202 67.92C343.389 67.92 340.696 66.6133 339.122 64C337.576 61.36 336.802 57.7067 336.802 53.04ZM353.122 53.04C353.122 50.88 352.976 49.0533 352.682 47.56C352.416 46.0667 351.856 44.8533 351.002 43.92C350.149 42.96 348.882 42.48 347.202 42.48C345.522 42.48 344.256 42.96 343.402 43.92C342.549 44.8533 341.976 46.0667 341.682 47.56C341.416 49.0533 341.282 50.88 341.282 53.04C341.282 55.28 341.416 57.16 341.682 58.68C341.949 60.2 342.509 61.4267 343.362 62.36C344.242 63.2933 345.522 63.76 347.202 63.76C348.882 63.76 350.149 63.2933 351.002 62.36C351.882 61.4267 352.456 60.2 352.722 58.68C352.989 57.16 353.122 55.28 353.122 53.04ZM384.507 55.48H376.427V63.76H372.187V55.48H364.107V51.64H372.187V43.36H376.427V51.64H384.507V55.48Z" fill="#313131"/>
<rect x="258.5" y="193.5" width="191" height="160" fill="#FAFAFA" stroke="#E0E0E0"/>
<path d="M327.014 295.816H330.918V297H325.558V285.848H327.014V295.816ZM333.056 286.808C332.779 286.808 332.544 286.712 332.352 286.52C332.16 286.328 332.064 286.093 332.064 285.816C332.064 285.539 332.16 285.304 332.352 285.112C332.544 284.92 332.779 284.824 333.056 284.824C333.323 284.824 333.547 284.92 333.728 285.112C333.92 285.304 334.016 285.539 334.016 285.816C334.016 286.093 333.92 286.328 333.728 286.52C333.547 286.712 333.323 286.808 333.056 286.808ZM333.76 288.232V297H332.304V288.232H333.76ZM340.353 288.072C341.42 288.072 342.284 288.397 342.945 289.048C343.607 289.688 343.937 290.616 343.937 291.832V297H342.497V292.04C342.497 291.165 342.279 290.499 341.841 290.04C341.404 289.571 340.807 289.336 340.049 289.336C339.281 289.336 338.668 289.576 338.209 290.056C337.761 290.536 337.537 291.235 337.537 292.152V297H336.081V288.232H337.537V289.48C337.825 289.032 338.215 288.685 338.705 288.44C339.207 288.195 339.756 288.072 340.353 288.072ZM354.156 292.28C354.156 292.557 354.14 292.851 354.108 293.16H347.1C347.153 294.024 347.446 294.701 347.98 295.192C348.524 295.672 349.18 295.912 349.948 295.912C350.577 295.912 351.1 295.768 351.516 295.48C351.942 295.181 352.241 294.787 352.412 294.296H353.98C353.745 295.139 353.276 295.827 352.572 296.36C351.868 296.883 350.993 297.144 349.948 297.144C349.116 297.144 348.369 296.957 347.708 296.584C347.057 296.211 346.545 295.683 346.172 295C345.798 294.307 345.612 293.507 345.612 292.6C345.612 291.693 345.793 290.899 346.156 290.216C346.518 289.533 347.025 289.011 347.676 288.648C348.337 288.275 349.094 288.088 349.948 288.088C350.78 288.088 351.516 288.269 352.156 288.632C352.796 288.995 353.286 289.496 353.628 290.136C353.98 290.765 354.156 291.48 354.156 292.28ZM352.652 291.976C352.652 291.421 352.529 290.947 352.284 290.552C352.038 290.147 351.702 289.843 351.276 289.64C350.86 289.427 350.396 289.32 349.884 289.32C349.148 289.32 348.518 289.555 347.996 290.024C347.484 290.493 347.19 291.144 347.116 291.976H352.652ZM359.022 297.144C358.35 297.144 357.747 297.032 357.214 296.808C356.68 296.573 356.259 296.253 355.95 295.848C355.64 295.432 355.47 294.957 355.438 294.424H356.942C356.984 294.861 357.187 295.219 357.55 295.496C357.923 295.773 358.408 295.912 359.006 295.912C359.56 295.912 359.998 295.789 360.318 295.544C360.638 295.299 360.798 294.989 360.798 294.616C360.798 294.232 360.627 293.949 360.286 293.768C359.944 293.576 359.416 293.389 358.702 293.208C358.051 293.037 357.518 292.867 357.102 292.696C356.696 292.515 356.344 292.253 356.046 291.912C355.758 291.56 355.614 291.101 355.614 290.536C355.614 290.088 355.747 289.677 356.014 289.304C356.28 288.931 356.659 288.637 357.15 288.424C357.64 288.2 358.2 288.088 358.83 288.088C359.8 288.088 360.584 288.333 361.182 288.824C361.779 289.315 362.099 289.987 362.142 290.84H360.686C360.654 290.381 360.467 290.013 360.126 289.736C359.795 289.459 359.347 289.32 358.782 289.32C358.259 289.32 357.843 289.432 357.534 289.656C357.224 289.88 357.07 290.173 357.07 290.536C357.07 290.824 357.16 291.064 357.342 291.256C357.534 291.437 357.768 291.587 358.046 291.704C358.334 291.811 358.728 291.933 359.23 292.072C359.859 292.243 360.371 292.413 360.766 292.584C361.16 292.744 361.496 292.989 361.774 293.32C362.062 293.651 362.211 294.083 362.222 294.616C362.222 295.096 362.088 295.528 361.822 295.912C361.555 296.296 361.176 296.6 360.686 296.824C360.206 297.037 359.651 297.144 359.022 297.144ZM373.279 297.112C372.244 297.112 371.3 296.872 370.447 296.392C369.593 295.901 368.916 295.224 368.415 294.36C367.924 293.485 367.679 292.504 367.679 291.416C367.679 290.328 367.924 289.352 368.415 288.488C368.916 287.613 369.593 286.936 370.447 286.456C371.3 285.965 372.244 285.72 373.279 285.72C374.324 285.72 375.273 285.965 376.127 286.456C376.98 286.936 377.652 287.608 378.143 288.472C378.633 289.336 378.879 290.317 378.879 291.416C378.879 292.515 378.633 293.496 378.143 294.36C377.652 295.224 376.98 295.901 376.127 296.392C375.273 296.872 374.324 297.112 373.279 297.112ZM373.279 295.848C374.057 295.848 374.756 295.667 375.375 295.304C376.004 294.941 376.495 294.424 376.847 293.752C377.209 293.08 377.391 292.301 377.391 291.416C377.391 290.52 377.209 289.741 376.847 289.08C376.495 288.408 376.009 287.891 375.391 287.528C374.772 287.165 374.068 286.984 373.279 286.984C372.489 286.984 371.785 287.165 371.167 287.528C370.548 287.891 370.057 288.408 369.695 289.08C369.343 289.741 369.167 290.52 369.167 291.416C369.167 292.301 369.343 293.08 369.695 293.752C370.057 294.424 370.548 294.941 371.167 295.304C371.796 295.667 372.5 295.848 373.279 295.848ZM384.209 289.432H382.369V297H380.913V289.432H379.777V288.232H380.913V287.608C380.913 286.627 381.163 285.912 381.665 285.464C382.177 285.005 382.993 284.776 384.113 284.776V285.992C383.473 285.992 383.019 286.12 382.753 286.376C382.497 286.621 382.369 287.032 382.369 287.608V288.232H384.209V289.432ZM333.764 315.416C333.764 314.328 334.009 313.352 334.5 312.488C334.991 311.613 335.657 310.931 336.5 310.44C337.353 309.949 338.297 309.704 339.332 309.704C340.548 309.704 341.609 309.997 342.516 310.584C343.423 311.171 344.084 312.003 344.5 313.08H342.756C342.447 312.408 341.999 311.891 341.412 311.528C340.836 311.165 340.143 310.984 339.332 310.984C338.553 310.984 337.855 311.165 337.236 311.528C336.617 311.891 336.132 312.408 335.78 313.08C335.428 313.741 335.252 314.52 335.252 315.416C335.252 316.301 335.428 317.08 335.78 317.752C336.132 318.413 336.617 318.925 337.236 319.288C337.855 319.651 338.553 319.832 339.332 319.832C340.143 319.832 340.836 319.656 341.412 319.304C341.999 318.941 342.447 318.424 342.756 317.752H344.5C344.084 318.819 343.423 319.645 342.516 320.232C341.609 320.808 340.548 321.096 339.332 321.096C338.297 321.096 337.353 320.856 336.5 320.376C335.657 319.885 334.991 319.208 334.5 318.344C334.009 317.48 333.764 316.504 333.764 315.416ZM350.331 321.144C349.51 321.144 348.763 320.957 348.091 320.584C347.43 320.211 346.907 319.683 346.523 319C346.15 318.307 345.963 317.507 345.963 316.6C345.963 315.704 346.155 314.915 346.539 314.232C346.934 313.539 347.467 313.011 348.139 312.648C348.811 312.275 349.563 312.088 350.395 312.088C351.227 312.088 351.979 312.275 352.651 312.648C353.323 313.011 353.851 313.533 354.235 314.216C354.63 314.899 354.827 315.693 354.827 316.6C354.827 317.507 354.625 318.307 354.219 319C353.825 319.683 353.286 320.211 352.603 320.584C351.921 320.957 351.163 321.144 350.331 321.144ZM350.331 319.864C350.854 319.864 351.345 319.741 351.803 319.496C352.262 319.251 352.63 318.883 352.907 318.392C353.195 317.901 353.339 317.304 353.339 316.6C353.339 315.896 353.201 315.299 352.923 314.808C352.646 314.317 352.283 313.955 351.835 313.72C351.387 313.475 350.902 313.352 350.379 313.352C349.846 313.352 349.355 313.475 348.907 313.72C348.47 313.955 348.118 314.317 347.851 314.808C347.585 315.299 347.451 315.896 347.451 316.6C347.451 317.315 347.579 317.917 347.835 318.408C348.102 318.899 348.454 319.267 348.891 319.512C349.329 319.747 349.809 319.864 350.331 319.864ZM356.038 316.584C356.038 315.688 356.219 314.904 356.582 314.232C356.944 313.549 357.44 313.021 358.07 312.648C358.71 312.275 359.424 312.088 360.214 312.088C360.896 312.088 361.531 312.248 362.118 312.568C362.704 312.877 363.152 313.288 363.462 313.8V309.16H364.934V321H363.462V319.352C363.174 319.875 362.747 320.307 362.182 320.648C361.616 320.979 360.955 321.144 360.198 321.144C359.419 321.144 358.71 320.952 358.07 320.568C357.44 320.184 356.944 319.645 356.582 318.952C356.219 318.259 356.038 317.469 356.038 316.584ZM363.462 316.6C363.462 315.939 363.328 315.363 363.062 314.872C362.795 314.381 362.432 314.008 361.974 313.752C361.526 313.485 361.03 313.352 360.486 313.352C359.942 313.352 359.446 313.48 358.998 313.736C358.55 313.992 358.192 314.365 357.926 314.856C357.659 315.347 357.526 315.923 357.526 316.584C357.526 317.256 357.659 317.843 357.926 318.344C358.192 318.835 358.55 319.213 358.998 319.48C359.446 319.736 359.942 319.864 360.486 319.864C361.03 319.864 361.526 319.736 361.974 319.48C362.432 319.213 362.795 318.835 363.062 318.344C363.328 317.843 363.462 317.261 363.462 316.6ZM375.234 316.28C375.234 316.557 375.218 316.851 375.186 317.16H368.178C368.232 318.024 368.525 318.701 369.058 319.192C369.602 319.672 370.258 319.912 371.026 319.912C371.656 319.912 372.178 319.768 372.594 319.48C373.021 319.181 373.32 318.787 373.49 318.296H375.058C374.824 319.139 374.354 319.827 373.65 320.36C372.946 320.883 372.072 321.144 371.026 321.144C370.194 321.144 369.448 320.957 368.786 320.584C368.136 320.211 367.624 319.683 367.25 319C366.877 318.307 366.69 317.507 366.69 316.6C366.69 315.693 366.872 314.899 367.234 314.216C367.597 313.533 368.104 313.011 368.754 312.648C369.416 312.275 370.173 312.088 371.026 312.088C371.858 312.088 372.594 312.269 373.234 312.632C373.874 312.995 374.365 313.496 374.706 314.136C375.058 314.765 375.234 315.48 375.234 316.28ZM373.73 315.976C373.73 315.421 373.608 314.947 373.362 314.552C373.117 314.147 372.781 313.843 372.354 313.64C371.938 313.427 371.474 313.32 370.962 313.32C370.226 313.32 369.597 313.555 369.074 314.024C368.562 314.493 368.269 315.144 368.194 315.976H373.73Z" fill="#61646B"/>
<path d="M296.249 234V229.84H304.569V259H299.969V234H296.249ZM310.834 244.04C310.834 239.427 311.607 235.827 313.154 233.24C314.727 230.627 317.42 229.32 321.234 229.32C325.047 229.32 327.727 230.627 329.274 233.24C330.847 235.827 331.634 239.427 331.634 244.04C331.634 248.707 330.847 252.36 329.274 255C327.727 257.613 325.047 258.92 321.234 258.92C317.42 258.92 314.727 257.613 313.154 255C311.607 252.36 310.834 248.707 310.834 244.04ZM327.154 244.04C327.154 241.88 327.007 240.053 326.714 238.56C326.447 237.067 325.887 235.853 325.034 234.92C324.18 233.96 322.914 233.48 321.234 233.48C319.554 233.48 318.287 233.96 317.434 234.92C316.58 235.853 316.007 237.067 315.714 238.56C315.447 240.053 315.314 241.88 315.314 244.04C315.314 246.28 315.447 248.16 315.714 249.68C315.98 251.2 316.54 252.427 317.394 253.36C318.274 254.293 319.554 254.76 321.234 254.76C322.914 254.76 324.18 254.293 325.034 253.36C325.914 252.427 326.487 251.2 326.754 249.68C327.02 248.16 327.154 246.28 327.154 244.04ZM336.459 244.04C336.459 239.427 337.232 235.827 338.779 233.24C340.352 230.627 343.045 229.32 346.859 229.32C350.672 229.32 353.352 230.627 354.899 233.24C356.472 235.827 357.259 239.427 357.259 244.04C357.259 248.707 356.472 252.36 354.899 255C353.352 257.613 350.672 258.92 346.859 258.92C343.045 258.92 340.352 257.613 338.779 255C337.232 252.36 336.459 248.707 336.459 244.04ZM352.779 244.04C352.779 241.88 352.632 240.053 352.339 238.56C352.072 237.067 351.512 235.853 350.659 234.92C349.805 233.96 348.539 233.48 346.859 233.48C345.179 233.48 343.912 233.96 343.059 234.92C342.205 235.853 341.632 237.067 341.339 238.56C341.072 240.053 340.939 241.88 340.939 244.04C340.939 246.28 341.072 248.16 341.339 249.68C341.605 251.2 342.165 252.427 343.019 253.36C343.899 254.293 345.179 254.76 346.859 254.76C348.539 254.76 349.805 254.293 350.659 253.36C351.539 252.427 352.112 251.2 352.379 249.68C352.645 248.16 352.779 246.28 352.779 244.04ZM378.004 259L367.244 246.56V259H362.684V231.2H367.244V243.88L378.044 231.2H383.764L371.684 245.12L383.964 259H378.004ZM409.476 246.48H401.396V254.76H397.156V246.48H389.076V242.64H397.156V234.36H401.396V242.64H409.476V246.48Z" fill="#313131"/>
<g filter="url(#filter0_dddd_1_23)">
<rect x="26" y="2" width="192" height="161" fill="white"/>
</g>
<path d="M78.1717 100.416C78.1717 99.328 78.4171 98.352 78.9077 97.488C79.3984 96.6133 80.0651 95.9307 80.9077 95.44C81.7611 94.9493 82.7051 94.704 83.7397 94.704C84.9557 94.704 86.0171 94.9973 86.9237 95.584C87.8304 96.1707 88.4917 97.0027 88.9078 98.08H87.1637C86.8544 97.408 86.4064 96.8907 85.8197 96.528C85.2437 96.1653 84.5504 95.984 83.7397 95.984C82.9611 95.984 82.2624 96.1653 81.6437 96.528C81.0251 96.8907 80.5397 97.408 80.1877 98.08C79.8357 98.7413 79.6597 99.52 79.6597 100.416C79.6597 101.301 79.8357 102.08 80.1877 102.752C80.5397 103.413 81.0251 103.925 81.6437 104.288C82.2624 104.651 82.9611 104.832 83.7397 104.832C84.5504 104.832 85.2437 104.656 85.8197 104.304C86.4064 103.941 86.8544 103.424 87.1637 102.752H88.9078C88.4917 103.819 87.8304 104.645 86.9237 105.232C86.0171 105.808 84.9557 106.096 83.7397 106.096C82.7051 106.096 81.7611 105.856 80.9077 105.376C80.0651 104.885 79.3984 104.208 78.9077 103.344C78.4171 102.48 78.1717 101.504 78.1717 100.416ZM94.7391 106.144C93.9178 106.144 93.1711 105.957 92.4991 105.584C91.8378 105.211 91.3151 104.683 90.9311 104C90.5578 103.307 90.3711 102.507 90.3711 101.6C90.3711 100.704 90.5631 99.9147 90.9471 99.232C91.3418 98.5387 91.8751 98.0107 92.5471 97.648C93.2191 97.2747 93.9711 97.088 94.8031 97.088C95.6351 97.088 96.3871 97.2747 97.0591 97.648C97.7311 98.0107 98.2591 98.5333 98.6431 99.216C99.0378 99.8987 99.2351 100.693 99.2351 101.6C99.2351 102.507 99.0325 103.307 98.6271 104C98.2325 104.683 97.6938 105.211 97.0111 105.584C96.3285 105.957 95.5711 106.144 94.7391 106.144ZM94.7391 104.864C95.2618 104.864 95.7525 104.741 96.2111 104.496C96.6698 104.251 97.0378 103.883 97.3151 103.392C97.6031 102.901 97.7471 102.304 97.7471 101.6C97.7471 100.896 97.6085 100.299 97.3311 99.808C97.0538 99.3173 96.6911 98.9547 96.2431 98.72C95.7951 98.4747 95.3098 98.352 94.7871 98.352C94.2538 98.352 93.7631 98.4747 93.3151 98.72C92.8778 98.9547 92.5258 99.3173 92.2591 99.808C91.9925 100.299 91.8591 100.896 91.8591 101.6C91.8591 102.315 91.9871 102.917 92.2431 103.408C92.5098 103.899 92.8618 104.267 93.2991 104.512C93.7365 104.747 94.2165 104.864 94.7391 104.864ZM111.534 97.072C112.216 97.072 112.824 97.216 113.358 97.504C113.891 97.7813 114.312 98.2027 114.622 98.768C114.931 99.3333 115.086 100.021 115.086 100.832V106H113.646V101.04C113.646 100.165 113.427 99.4987 112.99 99.04C112.563 98.5707 111.982 98.336 111.246 98.336C110.488 98.336 109.885 98.5813 109.438 99.072C108.99 99.552 108.766 100.251 108.766 101.168V106H107.326V101.04C107.326 100.165 107.107 99.4987 106.669 99.04C106.243 98.5707 105.661 98.336 104.925 98.336C104.168 98.336 103.565 98.5813 103.117 99.072C102.669 99.552 102.445 100.251 102.445 101.168V106H100.989V97.232H102.445V98.496C102.733 98.0373 103.117 97.6853 103.597 97.44C104.088 97.1947 104.627 97.072 105.214 97.072C105.95 97.072 106.6 97.2373 107.166 97.568C107.731 97.8987 108.152 98.384 108.43 99.024C108.675 98.4053 109.08 97.9253 109.646 97.584C110.211 97.2427 110.84 97.072 111.534 97.072ZM118.77 98.848C119.058 98.3467 119.485 97.9307 120.05 97.6C120.626 97.2587 121.293 97.088 122.05 97.088C122.829 97.088 123.533 97.2747 124.162 97.648C124.802 98.0213 125.303 98.5493 125.666 99.232C126.029 99.904 126.21 100.688 126.21 101.584C126.21 102.469 126.029 103.259 125.666 103.952C125.303 104.645 124.802 105.184 124.162 105.568C123.533 105.952 122.829 106.144 122.05 106.144C121.303 106.144 120.642 105.979 120.066 105.648C119.501 105.307 119.069 104.885 118.77 104.384V110.16H117.314V97.232H118.77V98.848ZM124.722 101.584C124.722 100.923 124.589 100.347 124.322 99.856C124.055 99.3653 123.693 98.992 123.234 98.736C122.786 98.48 122.29 98.352 121.746 98.352C121.213 98.352 120.717 98.4853 120.258 98.752C119.81 99.008 119.447 99.3867 119.17 99.888C118.903 100.379 118.77 100.949 118.77 101.6C118.77 102.261 118.903 102.843 119.17 103.344C119.447 103.835 119.81 104.213 120.258 104.48C120.717 104.736 121.213 104.864 121.746 104.864C122.29 104.864 122.786 104.736 123.234 104.48C123.693 104.213 124.055 103.835 124.322 103.344C124.589 102.843 124.722 102.256 124.722 101.584ZM129.422 94.16V106H127.966V94.16H129.422ZM139.744 101.28C139.744 101.557 139.728 101.851 139.696 102.16H132.688C132.741 103.024 133.035 103.701 133.568 104.192C134.112 104.672 134.768 104.912 135.536 104.912C136.165 104.912 136.688 104.768 137.104 104.48C137.531 104.181 137.829 103.787 138 103.296H139.568C139.333 104.139 138.864 104.827 138.16 105.36C137.456 105.883 136.581 106.144 135.536 106.144C134.704 106.144 133.957 105.957 133.296 105.584C132.645 105.211 132.133 104.683 131.76 104C131.387 103.307 131.2 102.507 131.2 101.6C131.2 100.693 131.381 99.8987 131.744 99.216C132.107 98.5333 132.613 98.0107 133.264 97.648C133.925 97.2747 134.683 97.088 135.536 97.088C136.368 97.088 137.104 97.2693 137.744 97.632C138.384 97.9947 138.875 98.496 139.216 99.136C139.568 99.7653 139.744 100.48 139.744 101.28ZM138.24 100.976C138.24 100.421 138.117 99.9467 137.872 99.552C137.627 99.1467 137.291 98.8427 136.864 98.64C136.448 98.4267 135.984 98.32 135.472 98.32C134.736 98.32 134.107 98.5547 133.584 99.024C133.072 99.4933 132.779 100.144 132.704 100.976H138.24ZM143.282 98.432V103.6C143.282 104.027 143.372 104.331 143.554 104.512C143.735 104.683 144.05 104.768 144.498 104.768H145.57V106H144.258C143.447 106 142.839 105.813 142.434 105.44C142.028 105.067 141.826 104.453 141.826 103.6V98.432H140.69V97.232H141.826V95.024H143.282V97.232H145.57V98.432H143.282ZM155.174 101.28C155.174 101.557 155.158 101.851 155.126 102.16H148.118C148.171 103.024 148.465 103.701 148.998 104.192C149.542 104.672 150.198 104.912 150.966 104.912C151.595 104.912 152.118 104.768 152.534 104.48C152.961 104.181 153.259 103.787 153.43 103.296H154.998C154.763 104.139 154.294 104.827 153.59 105.36C152.886 105.883 152.011 106.144 150.966 106.144C150.134 106.144 149.387 105.957 148.726 105.584C148.075 105.211 147.563 104.683 147.19 104C146.817 103.307 146.63 102.507 146.63 101.6C146.63 100.693 146.811 99.8987 147.174 99.216C147.537 98.5333 148.043 98.0107 148.694 97.648C149.355 97.2747 150.113 97.088 150.966 97.088C151.798 97.088 152.534 97.2693 153.174 97.632C153.814 97.9947 154.305 98.496 154.646 99.136C154.998 99.7653 155.174 100.48 155.174 101.28ZM153.67 100.976C153.67 100.421 153.547 99.9467 153.302 99.552C153.057 99.1467 152.721 98.8427 152.294 98.64C151.878 98.4267 151.414 98.32 150.902 98.32C150.166 98.32 149.537 98.5547 149.014 99.024C148.502 99.4933 148.209 100.144 148.134 100.976H153.67ZM156.392 101.584C156.392 100.688 156.573 99.904 156.936 99.232C157.298 98.5493 157.794 98.0213 158.424 97.648C159.064 97.2747 159.778 97.088 160.568 97.088C161.25 97.088 161.885 97.248 162.472 97.568C163.058 97.8773 163.506 98.288 163.816 98.8V94.16H165.288V106H163.816V104.352C163.528 104.875 163.101 105.307 162.536 105.648C161.97 105.979 161.309 106.144 160.552 106.144C159.773 106.144 159.064 105.952 158.424 105.568C157.794 105.184 157.298 104.645 156.936 103.952C156.573 103.259 156.392 102.469 156.392 101.584ZM163.816 101.6C163.816 100.939 163.682 100.363 163.416 99.872C163.149 99.3813 162.786 99.008 162.328 98.752C161.88 98.4853 161.384 98.352 160.84 98.352C160.296 98.352 159.8 98.48 159.352 98.736C158.904 98.992 158.546 99.3653 158.28 99.856C158.013 100.347 157.88 100.923 157.88 101.584C157.88 102.256 158.013 102.843 158.28 103.344C158.546 103.835 158.904 104.213 159.352 104.48C159.8 104.736 160.296 104.864 160.84 104.864C161.384 104.864 161.88 104.736 162.328 104.48C162.786 104.213 163.149 103.835 163.416 103.344C163.682 102.843 163.816 102.261 163.816 101.6ZM99.6152 122.112C99.6152 123.04 99.2952 123.813 98.6552 124.432C98.0259 125.04 97.0605 125.344 95.7592 125.344H93.6152V130H92.1592V118.848H95.7592C97.0179 118.848 97.9725 119.152 98.6232 119.76C99.2845 120.368 99.6152 121.152 99.6152 122.112ZM95.7592 124.144C96.5699 124.144 97.1672 123.968 97.5512 123.616C97.9352 123.264 98.1272 122.763 98.1272 122.112C98.1272 120.736 97.3379 120.048 95.7592 120.048H93.6152V124.144H95.7592ZM102.721 122.656C102.977 122.155 103.339 121.765 103.809 121.488C104.289 121.211 104.87 121.072 105.553 121.072V122.576H105.169C103.537 122.576 102.721 123.461 102.721 125.232V130H101.265V121.232H102.721V122.656ZM110.898 130.144C110.076 130.144 109.33 129.957 108.658 129.584C107.996 129.211 107.474 128.683 107.09 128C106.716 127.307 106.53 126.507 106.53 125.6C106.53 124.704 106.722 123.915 107.106 123.232C107.5 122.539 108.034 122.011 108.706 121.648C109.378 121.275 110.13 121.088 110.962 121.088C111.794 121.088 112.546 121.275 113.218 121.648C113.89 122.011 114.418 122.533 114.802 123.216C115.196 123.899 115.394 124.693 115.394 125.6C115.394 126.507 115.191 127.307 114.786 128C114.391 128.683 113.852 129.211 113.17 129.584C112.487 129.957 111.73 130.144 110.898 130.144ZM110.898 128.864C111.42 128.864 111.911 128.741 112.37 128.496C112.828 128.251 113.196 127.883 113.474 127.392C113.762 126.901 113.906 126.304 113.906 125.6C113.906 124.896 113.767 124.299 113.49 123.808C113.212 123.317 112.85 122.955 112.402 122.72C111.954 122.475 111.468 122.352 110.946 122.352C110.412 122.352 109.922 122.475 109.474 122.72C109.036 122.955 108.684 123.317 108.418 123.808C108.151 124.299 108.018 124.896 108.018 125.6C108.018 126.315 108.146 126.917 108.402 127.408C108.668 127.899 109.02 128.267 109.458 128.512C109.895 128.747 110.375 128.864 110.898 128.864ZM117.932 119.808C117.655 119.808 117.42 119.712 117.228 119.52C117.047 119.328 116.956 119.093 116.956 118.816C116.956 118.539 117.047 118.304 117.228 118.112C117.42 117.92 117.655 117.824 117.932 117.824C118.209 117.824 118.439 117.92 118.62 118.112C118.812 118.304 118.908 118.539 118.908 118.816C118.908 119.093 118.812 119.328 118.62 119.52C118.439 119.712 118.209 119.808 117.932 119.808ZM118.652 131.904C118.652 132.683 118.455 133.253 118.06 133.616C117.665 133.979 117.089 134.16 116.332 134.16H115.484V132.928H116.092C116.497 132.928 116.78 132.848 116.94 132.688C117.111 132.528 117.196 132.256 117.196 131.872V121.232H118.652V131.904ZM128.957 125.28C128.957 125.557 128.941 125.851 128.909 126.16H121.901C121.954 127.024 122.247 127.701 122.781 128.192C123.325 128.672 123.981 128.912 124.749 128.912C125.378 128.912 125.901 128.768 126.317 128.48C126.743 128.181 127.042 127.787 127.213 127.296H128.781C128.546 128.139 128.077 128.827 127.373 129.36C126.669 129.883 125.794 130.144 124.749 130.144C123.917 130.144 123.17 129.957 122.509 129.584C121.858 129.211 121.346 128.683 120.973 128C120.599 127.307 120.413 126.507 120.413 125.6C120.413 124.693 120.594 123.899 120.957 123.216C121.319 122.533 121.826 122.011 122.477 121.648C123.138 121.275 123.895 121.088 124.749 121.088C125.581 121.088 126.317 121.269 126.957 121.632C127.597 121.995 128.087 122.496 128.429 123.136C128.781 123.765 128.957 124.48 128.957 125.28ZM127.453 124.976C127.453 124.421 127.33 123.947 127.085 123.552C126.839 123.147 126.503 122.843 126.077 122.64C125.661 122.427 125.197 122.32 124.685 122.32C123.949 122.32 123.319 122.555 122.797 123.024C122.285 123.493 121.991 124.144 121.917 124.976H127.453ZM130.175 125.6C130.175 124.693 130.356 123.904 130.719 123.232C131.081 122.549 131.583 122.021 132.223 121.648C132.873 121.275 133.615 121.088 134.447 121.088C135.524 121.088 136.409 121.349 137.103 121.872C137.807 122.395 138.271 123.12 138.495 124.048H136.927C136.777 123.515 136.484 123.093 136.047 122.784C135.62 122.475 135.087 122.32 134.447 122.32C133.615 122.32 132.943 122.608 132.431 123.184C131.919 123.749 131.663 124.555 131.663 125.6C131.663 126.656 131.919 127.472 132.431 128.048C132.943 128.624 133.615 128.912 134.447 128.912C135.087 128.912 135.62 128.763 136.047 128.464C136.473 128.165 136.767 127.739 136.927 127.184H138.495C138.26 128.08 137.791 128.8 137.087 129.344C136.383 129.877 135.503 130.144 134.447 130.144C133.615 130.144 132.873 129.957 132.223 129.584C131.583 129.211 131.081 128.683 130.719 128C130.356 127.317 130.175 126.517 130.175 125.6ZM142.053 122.432V127.6C142.053 128.027 142.144 128.331 142.325 128.512C142.507 128.683 142.821 128.768 143.269 128.768H144.341V130H143.029C142.219 130 141.611 129.813 141.205 129.44C140.8 129.067 140.597 128.453 140.597 127.6V122.432H139.461V121.232H140.597V119.024H142.053V121.232H144.341V122.432H142.053ZM149.049 130.144C148.377 130.144 147.775 130.032 147.241 129.808C146.708 129.573 146.287 129.253 145.977 128.848C145.668 128.432 145.497 127.957 145.465 127.424H146.969C147.012 127.861 147.215 128.219 147.577 128.496C147.951 128.773 148.436 128.912 149.033 128.912C149.588 128.912 150.025 128.789 150.345 128.544C150.665 128.299 150.825 127.989 150.825 127.616C150.825 127.232 150.655 126.949 150.313 126.768C149.972 126.576 149.444 126.389 148.729 126.208C148.079 126.037 147.545 125.867 147.129 125.696C146.724 125.515 146.372 125.253 146.073 124.912C145.785 124.56 145.641 124.101 145.641 123.536C145.641 123.088 145.775 122.677 146.041 122.304C146.308 121.931 146.687 121.637 147.177 121.424C147.668 121.2 148.228 121.088 148.857 121.088C149.828 121.088 150.612 121.333 151.209 121.824C151.807 122.315 152.127 122.987 152.169 123.84H150.713C150.681 123.381 150.495 123.013 150.153 122.736C149.823 122.459 149.375 122.32 148.809 122.32C148.287 122.32 147.871 122.432 147.561 122.656C147.252 122.88 147.097 123.173 147.097 123.536C147.097 123.824 147.188 124.064 147.369 124.256C147.561 124.437 147.796 124.587 148.073 124.704C148.361 124.811 148.756 124.933 149.257 125.072C149.887 125.243 150.399 125.413 150.793 125.584C151.188 125.744 151.524 125.989 151.801 126.32C152.089 126.651 152.239 127.083 152.249 127.616C152.249 128.096 152.116 128.528 151.849 128.912C151.583 129.296 151.204 129.6 150.713 129.824C150.233 130.037 149.679 130.144 149.049 130.144Z" fill="#61646B"/>
<path d="M88.2872 61.8C90.8472 59.5867 92.8605 57.7733 94.3272 56.36C95.8205 54.92 97.0605 53.4267 98.0472 51.88C99.0339 50.3333 99.5272 48.7867 99.5272 47.24C99.5272 45.64 99.1405 44.3867 98.3672 43.48C97.6205 42.5733 96.4339 42.12 94.8072 42.12C93.2339 42.12 92.0072 42.6267 91.1272 43.64C90.2739 44.6267 89.8205 45.96 89.7672 47.64H85.3672C85.4472 44.6 86.3539 42.28 88.0872 40.68C89.8472 39.0533 92.0739 38.24 94.7672 38.24C97.6739 38.24 99.9405 39.04 101.567 40.64C103.221 42.24 104.047 44.3733 104.047 47.04C104.047 48.96 103.554 50.8133 102.567 52.6C101.607 54.36 100.447 55.9467 99.0872 57.36C97.7539 58.7467 96.0472 60.36 93.9672 62.2L92.1672 63.8H104.847V67.6H85.4072V64.28L88.2872 61.8ZM108.853 53.04C108.853 48.4267 109.626 44.8267 111.173 42.24C112.746 39.6267 115.44 38.32 119.253 38.32C123.066 38.32 125.746 39.6267 127.293 42.24C128.866 44.8267 129.653 48.4267 129.653 53.04C129.653 57.7067 128.866 61.36 127.293 64C125.746 66.6133 123.066 67.92 119.253 67.92C115.44 67.92 112.746 66.6133 111.173 64C109.626 61.36 108.853 57.7067 108.853 53.04ZM125.173 53.04C125.173 50.88 125.026 49.0533 124.733 47.56C124.466 46.0667 123.906 44.8533 123.053 43.92C122.2 42.96 120.933 42.48 119.253 42.48C117.573 42.48 116.306 42.96 115.453 43.92C114.6 44.8533 114.026 46.0667 113.733 47.56C113.466 49.0533 113.333 50.88 113.333 53.04C113.333 55.28 113.466 57.16 113.733 58.68C114 60.2 114.56 61.4267 115.413 62.36C116.293 63.2933 117.573 63.76 119.253 63.76C120.933 63.76 122.2 63.2933 123.053 62.36C123.933 61.4267 124.506 60.2 124.773 58.68C125.04 57.16 125.173 55.28 125.173 53.04ZM156.558 55.48H148.478V63.76H144.238V55.48H136.158V51.64H144.238V43.36H148.478V51.64H156.558V55.48Z" fill="#313131"/>
<defs>
<filter id="filter0_dddd_1_23" x="0.518518" y="0.703704" width="242.963" height="226.296" filterUnits="userSpaceOnUse" color-interpolation-filters="sRGB">
<feFlood flood-opacity="0" result="BackgroundImageFix"/>
<feColorMatrix in="SourceAlpha" type="matrix" values="0 0 0 0 0 0 0 0 0 0 0 0 0 0 0 0 0 0 127 0" result="hardAlpha"/>
<feOffset dy="1.85185"/>
<feGaussianBlur stdDeviation="1.57407"/>
<feColorMatrix type="matrix" values="0 0 0 0 0.219608 0 0 0 0 0.219608 0 0 0 0 0.219608 0 0 0 0.0240741 0"/>
<feBlend mode="normal" in2="BackgroundImageFix" result="effect1_dropShadow_1_23"/>
<feColorMatrix in="SourceAlpha" type="matrix" values="0 0 0 0 0 0 0 0 0 0 0 0 0 0 0 0 0 0 127 0" result="hardAlpha"/>
<feOffset dy="8.14815"/>
<feGaussianBlur stdDeviation="3.25926"/>
<feColorMatrix type="matrix" values="0 0 0 0 0.219608 0 0 0 0 0.219608 0 0 0 0 0.219608 0 0 0 0.0392593 0"/>
<feBlend mode="normal" in2="effect1_dropShadow_1_23" result="effect2_dropShadow_1_23"/>
<feColorMatrix in="SourceAlpha" type="matrix" values="0 0 0 0 0 0 0 0 0 0 0 0 0 0 0 0 0 0 127 0" result="hardAlpha"/>
<feOffset dy="20"/>
<feGaussianBlur stdDeviation="6.5"/>
<feColorMatrix type="matrix" values="0 0 0 0 0.219608 0 0 0 0 0.219608 0 0 0 0 0.219608 0 0 0 0.05 0"/>
<feBlend mode="normal" in2="effect2_dropShadow_1_23" result="effect3_dropShadow_1_23"/>
<feColorMatrix in="SourceAlpha" type="matrix" values="0 0 0 0 0 0 0 0 0 0 0 0 0 0 0 0 0 0 127 0" result="hardAlpha"/>
<feOffset dy="38.5185"/>
<feGaussianBlur stdDeviation="12.7407"/>
<feColorMatrix type="matrix" values="0 0 0 0 0.219608 0 0 0 0 0.219608 0 0 0 0 0.219608 0 0 0 0.0607407 0"/>
<feBlend mode="normal" in2="effect3_dropShadow_1_23" result="effect4_dropShadow_1_23"/>
<feBlend mode="normal" in="SourceGraphic" in2="effect4_dropShadow_1_23" result="shape"/>
</filter>
</defs>
</svg>
