<?xml version="1.0" standalone="no"?>
<!DOCTYPE svg PUBLIC "-//W3C//DTD SVG 20010904//EN"
 "http://www.w3.org/TR/2001/REC-SVG-20010904/DTD/svg10.dtd">
<svg version="1.0" xmlns="http://www.w3.org/2000/svg"
 width="1280.000000pt" height="1198.000000pt" viewBox="0 0 1280.000000 1198.000000"
 preserveAspectRatio="xMidYMid meet">

<g transform="translate(0.000000,1198.000000) scale(0.100000,-0.100000)"
fill="#000000" stroke="none">
<path d="M0 5990 l0 -5990 6400 0 6400 0 0 5990 0 5990 -6400 0 -6400 0 0
-5990z m3968 3260 c58 -21 137 -75 176 -121 109 -130 160 -338 125 -513 -11
-53 -11 -58 11 -81 12 -13 36 -70 55 -132 59 -193 103 -308 121 -318 10 -5 39
-30 66 -54 63 -57 80 -53 211 47 205 157 390 264 632 366 61 26 121 53 135 60
14 8 81 31 150 51 453 132 872 157 1327 80 159 -27 404 -92 487 -130 28 -12
106 -46 173 -75 208 -88 427 -218 618 -366 46 -35 93 -64 105 -64 13 0 42 18
66 40 24 22 48 40 54 40 20 0 73 138 139 365 12 39 31 83 44 99 22 27 23 31
10 80 -54 208 51 484 227 596 130 82 256 79 531 -16 164 -56 222 -80 384 -160
188 -92 286 -180 336 -304 21 -52 17 -145 -10 -225 -53 -160 -127 -252 -237
-296 -54 -22 -72 -24 -229 -23 -111 0 -210 6 -283 18 -63 10 -117 15 -120 11
-4 -3 0 -18 8 -33 19 -34 152 -101 275 -138 118 -35 324 -45 413 -20 139 39
240 -64 187 -190 -11 -27 -11 -36 -2 -39 7 -2 74 -11 150 -19 76 -9 152 -23
168 -32 39 -20 66 -65 74 -123 8 -62 -19 -207 -51 -276 -48 -101 -103 -121
-268 -99 -61 8 -230 28 -376 44 -146 16 -285 34 -310 40 -51 11 -211 30 -251
30 -20 0 -30 -7 -39 -30 -15 -35 -72 -83 -126 -106 -27 -11 -53 -14 -94 -9
l-57 7 82 -165 c205 -413 311 -912 291 -1372 -28 -632 -252 -1227 -640 -1699
-46 -55 -91 -107 -100 -115 -9 -7 -16 -20 -16 -27 0 -11 39 -14 215 -14 l215
0 0 -635 0 -635 -480 0 c-264 0 -480 -2 -480 -5 0 -2 6 -29 14 -59 8 -31 16
-104 17 -163 l2 -108 -32 -3 c-17 -2 -31 -5 -31 -8 0 -3 9 -22 19 -42 45 -88
65 -296 40 -414 -23 -106 -62 -154 -170 -209 l-59 -29 -1427 0 c-786 0 -1434
0 -1440 0 -10 0 -13 85 -13 390 l0 389 -57 3 -58 3 -3 118 -3 117 -429 0 -430
0 0 410 0 410 -70 0 -70 0 0 235 0 235 260 0 c149 0 260 4 260 9 0 5 -30 44
-68 88 -163 189 -269 348 -381 573 -48 97 -108 232 -133 300 -274 747 -228
1572 129 2285 30 61 59 116 65 122 8 10 -7 11 -70 6 -70 -5 -86 -3 -126 16
-47 23 -106 82 -106 106 0 23 -11 24 -115 10 -118 -16 -424 -55 -724 -91 -118
-15 -236 -24 -262 -22 -62 6 -114 46 -141 107 -47 110 -62 277 -30 341 27 55
64 69 226 89 81 10 148 20 151 23 3 3 -2 21 -10 41 -33 79 -4 147 78 181 46
19 49 19 118 2 99 -26 270 -18 393 18 182 54 289 112 299 161 4 24 2 26 -22
20 -54 -14 -240 -35 -356 -41 -284 -15 -412 70 -496 330 -51 160 -7 292 137
409 139 113 604 307 829 347 62 10 134 3 203 -20z"/>
<path d="M3762 9218 c-153 -23 -588 -203 -738 -305 -152 -103 -207 -226 -169
-373 29 -114 112 -226 191 -261 70 -29 187 -42 324 -35 236 13 391 46 566 120
141 60 137 62 204 -145 28 -88 50 -162 48 -164 -1 -2 -15 7 -29 19 -16 14 -33
45 -43 78 -20 69 -43 90 -106 96 -96 9 -265 -50 -284 -99 -8 -21 -27 -36 -81
-60 -179 -80 -388 -133 -578 -146 -75 -5 -90 -3 -107 12 -43 39 -110 9 -110
-50 0 -45 29 -69 72 -60 18 4 60 9 93 11 327 22 462 39 549 68 22 7 58 17 79
20 34 6 38 5 34 -11 -3 -10 -8 -36 -12 -59 l-6 -41 -192 -22 c-106 -13 -259
-31 -342 -41 -82 -10 -235 -28 -340 -40 -244 -28 -261 -33 -285 -73 -61 -99
16 -361 106 -360 40 1 287 32 343 43 55 12 616 80 717 87 66 5 72 4 78 -15 4
-11 26 -41 50 -66 49 -54 60 -55 214 -30 177 28 290 65 296 97 3 12 9 40 13
62 l9 39 80 13 c103 16 132 27 145 57 15 32 23 33 220 42 189 8 218 2 347 -68
l72 -39 0 -47 c0 -26 -5 -54 -10 -62 -9 -13 -10 -13 -10 0 0 16 -50 49 -141
94 -54 26 -149 41 -149 24 0 -4 21 -9 48 -10 l47 -1 -44 -4 c-39 -4 -71 -21
-71 -38 0 -12 -29 -35 -44 -35 -9 0 -16 -4 -16 -10 0 -5 -7 -10 -15 -10 -11 0
-15 -11 -15 -40 l0 -40 -40 0 -40 0 0 -40 c0 -36 -2 -40 -25 -40 -22 0 -25 -4
-25 -35 0 -30 -3 -35 -24 -35 -45 0 -56 -10 -56 -51 0 -21 -4 -39 -10 -39 -5
0 -10 -16 -10 -35 0 -19 -4 -36 -10 -36 -5 -1 -19 -3 -30 -4 -11 -1 -27 -3
-35 -4 -12 -1 -15 -17 -15 -81 l0 -80 -35 0 -35 0 0 -79 c0 -79 0 -80 -27 -83
-28 -3 -28 -4 -31 -80 -2 -60 -6 -78 -17 -78 -12 0 -15 -16 -15 -75 0 -43 -4
-75 -10 -75 -5 0 -10 -20 -10 -45 0 -43 -1 -45 -30 -45 l-30 0 0 -135 c0 -83
-4 -135 -10 -135 -13 0 -13 -37 0 -45 5 -3 7 -12 3 -21 -3 -8 -2 -14 3 -13 22
4 21 -5 -7 -62 -17 -34 -28 -64 -24 -67 3 -3 5 1 6 9 0 9 4 6 10 -6 8 -17 8
-15 4 8 -3 16 -1 27 5 27 6 0 9 4 6 8 -3 5 10 33 28 63 18 30 33 61 33 69 0 8
4 24 8 35 6 18 5 18 -13 -2 l-20 -23 2 23 c1 19 7 23 32 23 l32 -1 -20 -27
c-27 -38 -17 -35 26 8 20 20 28 33 19 30 -12 -5 -14 -4 -8 2 6 6 19 12 30 14
11 2 19 10 17 17 -1 7 2 10 8 6 5 -3 70 23 142 58 73 36 151 70 173 76 47 12
137 1 184 -24 36 -18 30 -26 78 109 42 119 56 139 107 158 25 9 46 15 46 12 0
-3 -9 -19 -21 -35 -52 -73 -95 -198 -119 -344 l-11 -71 -39 37 c-43 41 -113
69 -173 69 -26 0 -83 -21 -182 -66 -121 -55 -152 -74 -193 -118 -172 -182
-100 -493 134 -573 32 -11 69 -14 122 -11 83 5 128 23 215 84 26 19 49 34 51
34 2 0 7 -35 11 -77 10 -117 42 -263 86 -389 21 -63 39 -116 39 -118 0 -2 -11
-7 -24 -10 -62 -15 -116 -98 -131 -197 l-7 -46 -60 -7 c-117 -12 -214 -78
-242 -165 -26 -81 -75 -369 -102 -593 -6 -57 -6 -58 20 -58 31 0 27 -13 61
230 32 236 62 385 86 432 26 51 92 88 170 95 57 6 61 5 56 -13 -4 -10 -16 -89
-27 -174 -12 -85 -24 -163 -27 -174 -4 -16 -13 -18 -77 -13 -39 3 -81 8 -93
12 -19 6 -23 2 -32 -32 -16 -64 -50 -347 -42 -356 4 -4 61 -6 127 -5 l119 3 7
45 c4 25 28 194 53 375 49 355 72 490 86 518 6 9 19 17 31 17 20 0 20 -3 14
-92 -4 -51 -14 -162 -22 -247 -16 -179 -17 -219 -5 -206 4 6 16 71 25 145 21
160 32 210 50 210 30 0 37 -42 28 -175 -13 -195 7 -206 43 -23 23 116 25 117
74 78 41 -33 41 -34 35 -84 -4 -32 -15 -60 -29 -76 -48 -53 -56 -94 -29 -145
12 -24 13 -33 3 -53 -9 -15 -18 -20 -28 -16 -9 3 -69 9 -133 11 -138 7 -126
18 -152 -144 -25 -159 -41 -143 139 -143 l155 0 12 26 c25 54 128 76 333 72
125 -3 130 -4 133 -25 3 -22 3 -22 -160 -20 -167 2 -244 -9 -269 -39 -10 -12
185 -14 1276 -14 977 0 1286 3 1283 12 -2 6 -22 18 -44 27 -30 12 -79 15 -220
15 l-181 -1 5 22 c3 20 12 23 83 29 94 9 302 -10 342 -31 16 -8 36 -28 45 -44
l17 -29 152 0 c83 0 154 3 156 8 6 9 -37 269 -46 278 -7 8 -152 6 -223 -2 -67
-8 -84 10 -59 62 23 48 14 98 -23 138 -23 24 -31 43 -34 84 -5 51 -4 53 32 82
21 17 40 30 44 30 6 0 20 -50 42 -152 11 -53 21 -78 30 -78 12 0 14 13 10 63
-17 207 -17 219 -1 243 33 51 37 41 69 -175 23 -156 36 -207 36 -145 0 16 -9
136 -21 266 -12 131 -19 244 -16 253 10 24 37 17 48 -12 15 -39 50 -257 99
-613 23 -168 44 -311 46 -317 2 -10 37 -13 130 -13 l126 0 -6 58 c-15 130 -48
338 -55 345 -4 4 -25 0 -46 -9 -38 -15 -126 -16 -142 -1 -10 11 -58 366 -50
374 13 12 119 -15 159 -42 67 -44 78 -75 118 -314 17 -98 60 -394 60 -408 0
-2 11 -3 25 -3 32 0 32 4 -4 255 -54 366 -78 449 -145 500 -49 37 -128 65
-185 65 l-48 0 -7 51 c-4 28 -14 69 -23 90 -17 44 -86 109 -115 109 -23 0 -23
3 12 99 40 113 77 267 91 386 6 55 13 102 15 103 1 2 23 -10 49 -28 93 -64
153 -85 240 -85 91 0 146 20 209 76 134 117 156 328 50 481 -37 53 -86 85
-233 152 -93 42 -135 56 -170 56 -71 0 -119 -18 -167 -62 -25 -23 -46 -39 -48
-37 -2 2 -16 49 -31 103 -14 55 -47 145 -72 200 -24 56 -47 107 -50 115 -6 14
11 12 67 -5 8 -2 -24 37 -72 88 -49 50 -88 99 -88 109 0 39 -43 150 -80 208
-22 34 -40 64 -40 66 0 3 10 5 23 6 15 0 6 8 -33 26 -50 24 -53 27 -32 36 27
12 29 27 2 27 -24 0 -25 8 -5 34 15 19 16 19 53 -17 21 -21 42 -34 47 -30 4 5
5 3 1 -4 -4 -7 10 -33 30 -60 54 -70 98 -169 114 -254 9 -49 23 -89 43 -118
41 -60 110 -204 143 -295 21 -61 30 -76 43 -71 52 21 141 36 179 32 25 -3 96
-31 168 -66 69 -34 130 -58 136 -55 7 4 8 2 4 -4 -4 -7 -2 -12 4 -12 14 0 68
-38 98 -70 44 -47 92 -130 106 -182 11 -45 15 -49 19 -28 3 14 4 -1 2 -32 -2
-32 0 -60 4 -62 4 -3 7 3 7 12 0 46 5 73 12 69 11 -8 13 54 1 72 -7 12 -8 7
-3 -19 6 -35 6 -35 -15 -16 -11 10 -18 23 -14 29 11 18 13 66 3 72 -13 8 -13
75 0 75 15 0 12 30 -3 35 -9 4 -13 44 -14 152 -2 134 -4 149 -22 163 -15 11
-21 33 -27 88 -3 39 -11 72 -15 72 -5 0 -9 18 -9 40 0 29 -4 40 -15 40 -10 0
-15 -11 -15 -35 0 -24 -5 -35 -15 -35 -12 0 -15 15 -15 75 0 41 -4 75 -9 75
-5 0 -12 36 -16 80 -4 50 -11 80 -19 80 -7 0 -10 -14 -8 -40 3 -32 1 -40 -13
-40 -13 0 -16 8 -14 42 2 26 -1 43 -9 46 -6 2 -12 19 -12 38 0 19 -5 34 -11
34 -8 0 -9 24 -4 80 5 56 4 80 -4 80 -6 0 -11 -14 -11 -31 0 -17 -7 -37 -15
-45 -8 -9 -15 -11 -15 -5 0 6 -6 10 -12 8 -8 -1 -14 12 -16 36 -2 20 -7 37
-13 37 -5 0 -9 18 -9 39 0 33 -4 40 -25 45 -21 5 -25 12 -25 41 0 24 -5 35
-15 35 -8 0 -15 5 -15 10 0 6 -7 10 -16 10 -20 0 -44 24 -44 44 0 10 -9 16
-25 17 -14 1 -33 2 -42 3 -18 1 -30 47 -32 124 -1 30 1 32 37 33 25 1 29 3 13
6 -12 3 -33 2 -45 -1 -19 -5 -21 -11 -18 -46 l4 -40 -37 0 c-36 0 -36 0 -33
38 2 23 8 36 16 35 6 -2 12 4 12 12 0 8 -7 15 -15 15 -8 0 -15 5 -15 10 0 22
-152 1 -167 -23 -4 -6 -1 -7 7 -2 8 5 11 4 6 -3 -4 -6 -13 -9 -21 -5 -9 3 -22
0 -31 -7 -12 -11 -12 -15 -2 -22 9 -7 7 -8 -7 -4 -23 6 -119 -46 -108 -59 5
-4 3 -5 -4 -2 -6 4 -19 0 -27 -9 -15 -14 -16 -11 -10 43 8 69 12 73 142 140
91 47 97 48 195 52 56 1 153 0 215 -4 110 -7 113 -8 127 -35 17 -33 47 -45
155 -61 l80 -12 0 -38 c0 -65 14 -85 67 -102 69 -22 226 -55 312 -66 93 -12
116 -2 168 74 21 30 44 54 52 55 28 0 788 -91 836 -101 28 -5 102 -16 165 -23
93 -11 120 -11 140 0 63 31 120 231 90 316 -29 79 33 67 -845 169 -183 21
-330 40 -331 42 -4 13 -21 113 -19 115 1 1 47 -9 101 -23 145 -39 259 -54 439
-61 91 -3 175 -11 195 -19 59 -21 110 16 96 70 -14 55 -71 72 -111 35 -20 -19
-27 -20 -126 -10 -214 22 -397 70 -570 149 -52 23 -68 36 -73 56 -8 32 -77 66
-181 90 -127 30 -179 7 -209 -93 -9 -31 -26 -62 -43 -76 -15 -13 -29 -23 -30
-22 -3 3 79 267 96 309 20 51 45 52 156 7 212 -87 453 -128 690 -117 155 7
215 26 277 88 81 81 135 217 125 320 -13 141 -129 254 -375 366 -43 19 -99 45
-125 59 -84 43 -374 135 -446 141 -176 15 -324 -92 -400 -287 -21 -56 -25 -82
-25 -185 -1 -103 2 -127 21 -168 l22 -48 -25 -9 c-17 -7 -34 -29 -54 -72 -25
-56 -95 -268 -133 -403 -12 -42 -18 -50 -45 -57 -21 -6 -41 -23 -61 -52 -34
-49 -22 -48 -205 -26 -140 17 -238 13 -309 -14 -94 -35 -157 -69 -276 -150
-59 -40 -118 -76 -131 -79 -22 -6 -22 -4 -16 41 4 26 10 72 13 103 5 55 4 57
-29 82 -19 15 -59 32 -89 39 -70 16 -394 16 -475 0 -76 -15 -140 -45 -155 -73
-18 -35 -2 -127 27 -154 15 -14 24 -33 24 -54 0 -17 -2 -31 -5 -31 -3 0 -49
12 -102 26 -73 20 -131 27 -228 31 -126 5 -182 -2 -364 -44 -20 -5 -23 -3 -18
11 4 10 7 26 7 36 0 10 8 20 18 23 12 2 22 17 25 37 9 43 9 112 -1 126 -11 18
-92 51 -157 65 -80 17 -382 17 -458 0 -66 -14 -122 -44 -131 -68 -9 -21 4
-132 15 -139 14 -8 11 -74 -3 -74 -7 0 -53 29 -103 65 -115 82 -232 148 -315
175 -59 20 -78 22 -210 16 -80 -3 -174 -9 -210 -12 l-65 -6 -33 46 c-23 32
-43 49 -63 53 -26 5 -31 13 -50 77 -41 145 -112 352 -135 398 -13 25 -33 49
-44 53 -24 8 -24 12 -4 60 72 172 1 438 -148 555 -83 66 -185 94 -286 78z
m5453 -58 c87 -21 221 -65 239 -78 6 -5 65 -30 131 -57 347 -139 490 -275 456
-434 -29 -138 -107 -238 -206 -267 -71 -20 -317 -22 -443 -4 -144 21 -402 99
-402 121 0 15 28 10 137 -26 172 -57 253 -69 473 -69 224 -1 268 9 315 70 22
29 80 144 72 144 -1 0 -23 -6 -48 -14 -116 -35 -299 -28 -402 16 -37 16 -46
25 -41 37 4 9 9 35 12 58 3 32 -1 46 -17 62 -34 34 -63 35 -181 2 -131 -37
-139 -37 -223 -11 -109 34 -186 137 -188 253 l-1 42 -31 -65 c-27 -56 -32 -79
-35 -160 -3 -77 0 -105 16 -147 21 -55 20 -63 -10 -63 -24 0 -57 70 -65 138
-17 143 65 336 174 411 38 25 133 60 168 60 11 1 56 -8 100 -19z m-5260 -24
c125 -62 215 -229 215 -401 -1 -67 -35 -168 -60 -172 -33 -6 -41 12 -23 48 14
27 18 59 18 149 0 107 -2 119 -29 175 l-29 60 -7 -55 c-9 -70 -29 -117 -70
-164 -41 -46 -71 -62 -153 -81 -61 -14 -67 -14 -148 10 -131 39 -178 42 -213
14 -25 -20 -28 -27 -23 -68 2 -25 8 -53 11 -62 6 -13 -2 -20 -36 -33 -82 -29
-123 -36 -228 -36 -98 0 -140 6 -198 24 -22 7 -23 6 -17 -16 29 -98 88 -163
164 -180 71 -15 330 -15 439 1 86 13 248 56 316 85 25 10 44 13 55 7 13 -8 7
-13 -31 -30 -74 -31 -198 -68 -294 -87 -117 -23 -444 -26 -518 -5 -131 38
-236 265 -182 394 22 51 78 111 150 160 65 44 239 128 356 172 41 16 84 34 95
41 17 10 170 60 240 78 47 12 146 -2 200 -28z m-55 -562 c107 -35 217 -76 244
-92 43 -23 53 -35 73 -85 40 -100 125 -387 119 -402 -3 -9 -18 -15 -35 -15
-27 0 -31 4 -46 58 -52 181 -119 367 -139 385 -30 26 -155 76 -394 157 -112
38 -206 70 -208 73 -2 2 -2 11 1 20 6 13 18 12 98 -10 51 -14 180 -54 287 -89z
m5528 99 c-2 -14 -56 -36 -218 -90 -118 -40 -224 -77 -235 -82 -11 -6 -50 -23
-87 -40 -80 -35 -80 -36 -143 -236 -85 -274 -72 -245 -108 -238 -18 3 -33 7
-35 9 -6 4 88 311 120 395 l29 76 67 31 c37 17 150 58 252 91 338 110 364 116
358 84z m-338 -501 l75 -27 8 -49 c4 -27 7 -50 5 -51 -3 -3 -218 46 -226 51
-9 6 12 68 29 85 23 23 18 24 109 -9z m-5110 -29 c8 -23 11 -45 8 -49 -5 -5
-199 -54 -214 -54 -2 0 -4 20 -4 45 0 49 4 53 94 86 77 27 98 22 116 -28z
m5459 -143 c46 -12 146 -32 224 -45 82 -14 143 -29 148 -37 15 -23 -54 -21
-194 7 -242 47 -387 94 -387 125 0 17 4 17 63 -5 34 -13 100 -34 146 -45z
m-5729 41 c0 -15 -22 -26 -107 -54 -60 -19 -124 -38 -143 -42 -19 -4 -71 -15
-115 -25 -98 -22 -215 -34 -215 -22 0 20 29 30 130 47 143 23 335 69 390 94
57 25 60 25 60 2z m5262 -6 c40 -9 107 -25 149 -36 73 -19 77 -22 88 -57 21
-64 25 -238 7 -321 -27 -129 -97 -251 -142 -251 -15 0 -13 5 8 28 38 40 75
120 91 198 8 38 13 72 11 75 -2 4 -32 5 -66 2 -59 -4 -97 4 -190 42 -14 5 -20
-4 -34 -52 -39 -135 -101 -243 -140 -243 -13 0 -24 2 -24 5 0 3 15 25 34 49
35 47 74 138 103 246 13 47 18 102 18 198 0 72 3 132 7 132 4 0 40 -7 80 -15z
m-4916 -122 c1 -98 6 -147 23 -208 26 -97 85 -226 117 -256 26 -24 23 -39 -7
-39 -29 0 -90 101 -124 206 -16 49 -31 91 -32 93 -1 2 -40 -9 -86 -24 -72 -23
-90 -25 -135 -17 -61 11 -62 9 -37 -96 18 -75 44 -129 86 -177 21 -23 26 -35
16 -35 -66 0 -150 182 -164 357 -7 85 13 216 36 243 16 19 228 79 281 80 l25
0 1 -127z m4778 -1 c-2 -120 -25 -225 -74 -330 -26 -55 -69 -122 -71 -111 0 2
-2 14 -5 26 -2 13 9 49 25 80 51 101 64 158 66 290 1 97 5 127 19 148 30 46
41 17 40 -103z m-4669 69 c9 -19 11 -39 5 -71 -16 -89 12 -235 66 -342 23 -46
32 -98 16 -98 -17 0 -75 113 -102 197 -45 140 -57 261 -33 346 4 15 7 16 20 6
8 -7 20 -24 28 -38z m5905 -51 c0 -24 -26 -38 -42 -22 -16 16 -2 42 22 42 13
0 20 -7 20 -20z m-7150 -10 c0 -24 -26 -38 -42 -22 -16 16 -2 42 22 42 13 0
20 -7 20 -20z m3070 -41 c36 -6 80 -15 99 -21 31 -10 33 -12 28 -45 -4 -20 -8
-37 -10 -40 -3 -2 -51 6 -108 18 -92 18 -124 20 -274 15 -93 -3 -189 -9 -212
-12 l-43 -6 0 36 c0 33 3 36 43 47 96 26 336 30 477 8z m1308 11 c126 -11 188
-31 178 -56 -3 -8 -6 -23 -6 -31 0 -12 -8 -14 -42 -9 -187 28 -389 24 -519 -9
-80 -21 -81 -21 -77 27 3 41 4 42 53 55 46 12 183 29 265 32 19 0 86 -4 148
-9z m-2258 -59 c66 -27 230 -127 229 -139 0 -4 -13 -17 -29 -30 l-29 -23 -68
34 c-37 19 -98 46 -135 61 l-68 27 -202 -11 c-112 -6 -211 -12 -221 -14 -22
-5 -37 22 -37 68 0 34 0 35 53 41 82 10 347 21 397 17 25 -3 74 -16 110 -31z
m3227 28 c198 -12 204 -14 194 -76 l-6 -38 -135 5 c-74 3 -184 5 -245 5 l-110
0 -131 -63 -131 -64 -27 27 c-15 15 -26 28 -24 30 79 61 227 144 296 166 68
22 90 22 319 8z m-2350 -109 c43 -6 93 -16 111 -21 32 -11 33 -12 30 -62 -2
-39 -7 -53 -20 -55 -14 -3 -16 3 -11 31 6 42 -8 52 -85 63 l-52 7 0 -81 c0
-74 -2 -82 -22 -93 -13 -7 -50 -13 -83 -13 l-60 -1 3 99 2 99 -90 -5 c-50 -3
-97 -11 -105 -18 -8 -7 -15 -28 -15 -46 0 -24 -5 -34 -15 -34 -13 0 -15 11
-13 58 l3 57 90 11 c120 15 237 16 332 4z m1448 -3 l80 -12 0 -47 c0 -54 -18
-70 -23 -21 -3 28 -8 34 -40 43 -20 5 -66 10 -102 10 l-65 0 6 -87 c3 -49 4
-91 2 -95 -6 -11 -90 -21 -127 -14 l-33 6 -8 91 -7 91 -49 -6 c-75 -10 -78
-12 -81 -67 -4 -65 -24 -52 -33 22 -8 66 -10 64 105 84 95 16 271 17 375 2z
m-778 -109 l78 -12 -52 -9 c-62 -10 -70 -27 -14 -27 21 0 63 -5 92 -10 77 -15
309 -89 309 -99 0 -5 -26 -21 -57 -37 -32 -16 -59 -32 -61 -36 -2 -4 -16 8
-32 25 -50 57 -197 124 -221 100 -8 -8 -31 -3 -81 18 -39 16 -81 29 -93 29
-12 0 -54 -13 -94 -29 -39 -17 -71 -25 -71 -19 0 14 -73 2 -125 -21 -22 -10
-60 -34 -85 -53 -29 -22 -51 -32 -60 -28 -8 4 -33 17 -56 29 -23 11 -44 18
-48 16 -3 -3 -3 -1 1 4 26 28 315 111 389 111 60 0 47 20 -18 30 l-43 6 65 11
c91 15 186 15 277 1z m-1166 -23 c154 -53 173 -63 200 -114 13 -25 41 -65 63
-88 21 -24 35 -43 31 -43 -4 0 -2 -7 6 -16 10 -12 10 -17 1 -23 -9 -5 -6 -15
11 -34 30 -35 95 -45 156 -23 33 12 42 13 38 3 -7 -20 143 23 228 64 86 41
170 50 230 24 l40 -17 -90 -24 c-49 -13 -119 -39 -155 -57 -103 -52 -214 -166
-187 -194 3 -3 26 11 50 31 51 42 210 118 281 135 54 13 98 7 117 -15 8 -10 8
-14 0 -14 -6 0 -31 -16 -57 -35 -26 -20 -75 -43 -117 -56 -153 -44 -177 -58
-264 -145 -46 -46 -83 -88 -83 -93 0 -5 25 6 56 24 69 42 135 57 213 48 l60
-6 65 63 c41 39 77 86 96 123 34 69 40 57 10 -20 -11 -29 -17 -59 -14 -66 3
-8 -2 -21 -10 -30 -9 -9 -16 -20 -16 -26 0 -6 -10 -16 -22 -22 -42 -23 -82
-94 -91 -161 -5 -43 5 -48 27 -16 9 12 16 19 16 14 0 -5 -16 -28 -35 -52 -31
-37 -34 -47 -25 -64 9 -17 14 -19 26 -9 12 10 13 9 8 -7 -4 -10 -13 -28 -21
-39 -17 -25 -16 -93 2 -125 22 -38 18 -64 -15 -101 -22 -25 -30 -30 -30 -16 0
27 -16 20 -31 -15 -15 -37 -18 -90 -6 -130 13 -48 -10 -30 -32 25 -28 67 -83
143 -123 167 -17 10 -65 26 -107 36 -42 9 -94 25 -116 36 l-40 20 24 -26 c17
-18 20 -26 10 -26 -17 0 -58 27 -76 50 -33 42 2 295 56 405 32 64 133 206 172
242 13 12 49 38 79 58 32 22 45 34 30 30 -30 -9 -69 -32 -173 -102 -43 -29
-84 -53 -92 -53 -10 0 -15 -11 -15 -34 0 -29 -7 -40 -37 -62 -21 -15 -68 -57
-104 -93 -37 -36 -108 -106 -158 -156 -54 -52 -89 -95 -86 -103 2 -7 1 -11 -4
-8 -13 8 -44 -31 -35 -45 4 -7 3 -10 -3 -6 -5 3 -18 -6 -29 -20 -10 -15 -32
-44 -49 -65 -63 -80 -72 -94 -79 -123 -7 -28 -6 -29 11 -15 10 8 29 21 43 29
l25 14 -24 -26 c-13 -15 -20 -31 -16 -38 5 -7 4 -10 -2 -6 -7 4 -11 -2 -11
-16 0 -12 -3 -42 -7 -67 l-6 -45 27 30 c19 21 25 24 20 10 -14 -34 -46 -168
-46 -194 l0 -24 27 24 c21 19 25 20 20 6 -6 -15 -3 -17 14 -12 19 6 20 4 15
-37 -14 -110 -15 -159 -7 -233 20 -176 100 -320 165 -295 15 5 41 12 59 15 18
3 57 10 87 16 30 5 106 12 168 16 l112 6 1 36 c0 33 17 90 18 65 1 -7 10 -14
21 -17 10 -3 29 -26 42 -51 15 -32 28 -46 42 -46 31 0 50 -16 43 -34 -4 -9 -2
-16 2 -16 5 0 11 5 13 12 4 10 13 10 45 0 22 -7 50 -12 63 -12 19 0 20 2 10
15 -7 8 -16 13 -20 10 -5 -3 -12 0 -16 6 -4 8 -3 9 4 5 18 -11 14 2 -8 34 -11
16 -23 48 -26 72 -5 36 -2 46 15 62 24 22 27 17 34 -57 6 -63 59 -127 151
-183 80 -49 109 -87 104 -141 -3 -36 -6 -40 -73 -72 -62 -30 -79 -34 -155 -35
-73 -1 -93 3 -145 27 -33 15 -67 35 -77 43 -15 15 -23 13 -89 -21 -40 -20 -99
-55 -132 -76 -32 -21 -55 -34 -52 -29 10 17 116 85 183 119 34 17 62 35 62 39
0 6 -20 39 -36 61 -7 9 -191 -60 -300 -114 -67 -33 -118 -54 -112 -48 19 23
231 121 321 149 68 22 87 32 87 46 0 10 -6 21 -14 24 -17 7 -143 -23 -171 -40
-11 -7 -52 -25 -92 -40 -116 -44 -166 -88 -184 -161 -5 -23 -7 -14 -8 35 -1
58 -3 63 -16 49 -9 -8 -21 -44 -28 -79 l-13 -63 -17 41 c-30 74 -38 134 -38
265 0 70 -2 127 -4 127 -18 0 -64 -138 -66 -200 -1 -28 -3 -30 -6 -10 -3 14
-11 29 -19 33 -19 11 -19 256 0 345 7 34 9 62 5 62 -12 0 -54 -96 -80 -180
-28 -91 -33 -75 -27 80 4 97 10 128 36 198 36 95 27 94 -49 -9 -28 -38 -52
-69 -53 -69 -2 0 1 30 6 68 11 86 32 160 69 241 16 35 27 66 25 68 -2 2 -21
-18 -42 -44 -43 -55 -84 -93 -100 -93 -8 0 -4 28 11 88 52 199 120 322 222
403 20 16 32 29 28 29 -5 0 -19 -10 -32 -22 -40 -37 -25 -5 22 49 48 54 60 81
23 46 -26 -24 -94 -66 -122 -77 -39 -14 265 268 400 371 l29 23 -29 -10 c-16
-6 -47 -15 -70 -20 l-41 -9 40 31 c45 35 185 178 185 189 0 4 -12 10 -27 15
-24 6 -25 8 -9 12 18 4 18 5 -5 18 -24 13 -24 13 -1 14 12 0 22 5 22 10 0 6
-9 10 -19 10 -11 0 -28 3 -38 7 -15 6 -13 8 10 13 l28 5 -50 37 c-28 21 -55
47 -62 59 -8 15 -8 19 0 15 15 -10 14 7 -1 22 -23 23 3 12 53 -24 28 -19 53
-33 56 -30 4 3 -16 30 -43 59 -27 30 -67 77 -89 105 -52 66 -116 113 -164 119
-30 4 -43 0 -67 -20 -25 -22 -29 -32 -29 -79 0 -29 4 -69 8 -88 7 -33 7 -34
-8 -16 -18 23 -21 130 -4 173 27 71 68 79 190 38z m2234 8 c9 -9 21 -27 26
-40 12 -32 12 -145 -1 -178 -18 -47 -28 -17 -13 39 28 109 -22 183 -106 157
-45 -13 -131 -88 -173 -149 -17 -26 -47 -64 -67 -86 l-36 -39 58 37 c31 20 60
36 63 36 4 0 -2 -12 -11 -27 -16 -24 -16 -26 -1 -20 39 15 -41 -65 -94 -94
l-25 -13 30 -7 30 -6 -33 -8 c-39 -9 -52 -25 -20 -25 22 -1 22 -1 5 -14 -13
-10 -15 -15 -5 -19 7 -2 1 -8 -14 -12 -16 -4 -28 -9 -28 -12 0 -14 96 -114
158 -164 77 -62 74 -75 -13 -44 -21 8 -40 13 -42 11 -1 -1 27 -24 62 -50 58
-42 211 -181 330 -298 48 -46 26 -42 -56 12 l-57 37 70 -91 c73 -97 147 -230
179 -324 17 -48 49 -172 49 -188 0 -17 -66 36 -109 87 -28 33 -51 56 -51 51 0
-6 14 -38 31 -72 31 -63 63 -177 73 -264 l6 -48 -60 80 c-33 44 -64 83 -69 86
-5 4 2 -22 16 -56 46 -114 64 -254 44 -343 -6 -28 -9 -24 -30 45 -21 67 -76
190 -85 190 -2 0 2 -28 9 -62 22 -105 28 -186 20 -274 -5 -62 -10 -84 -21 -84
-8 0 -14 -10 -15 -22 0 -13 -9 11 -18 52 -10 41 -28 98 -39 125 l-22 50 6
-105 c6 -119 -6 -213 -39 -298 -20 -52 -22 -54 -25 -27 -4 45 -32 115 -45 115
-8 0 -11 -19 -10 -57 2 -46 0 -52 -6 -27 -4 18 -18 47 -29 66 -12 19 -19 38
-15 42 4 4 0 4 -10 0 -11 -4 -19 0 -23 10 -3 9 -10 13 -15 10 -5 -3 -9 0 -9 5
0 6 -3 10 -7 9 -7 -2 -43 10 -163 58 -52 20 -160 45 -169 40 -5 -3 -11 -14
-14 -25 -4 -17 7 -23 82 -46 91 -28 289 -121 331 -155 14 -11 -27 7 -90 40
-63 32 -162 75 -220 94 -98 33 -106 34 -118 18 -37 -48 -36 -49 45 -92 43 -22
89 -49 103 -60 14 -12 -23 4 -82 35 l-107 56 -44 -34 c-91 -69 -233 -76 -353
-16 -68 34 -69 35 -72 77 -4 57 28 100 108 143 90 48 150 129 150 203 0 19 6
51 14 73 8 22 17 75 21 119 11 129 18 137 79 84 46 -41 76 -109 85 -193 l7
-70 -47 -57 c-33 -39 -70 -68 -116 -93 -72 -38 -71 -44 4 -26 37 10 47 9 54
-2 7 -11 9 -9 9 7 0 22 17 34 48 34 10 0 28 21 44 53 26 50 27 55 19 142 -5
50 -14 110 -21 134 -6 24 -9 45 -7 48 8 7 44 -97 51 -147 4 -25 13 -67 21 -95
7 -27 16 -67 19 -87 6 -31 11 -38 29 -38 17 0 46 33 119 133 139 189 131 179
124 137 l-6 -35 22 25 c34 40 84 159 104 245 39 172 17 414 -51 562 -25 55
-42 73 -24 27 5 -15 8 -28 6 -30 -7 -8 -63 91 -75 133 -7 23 -27 63 -45 90
-18 26 -48 70 -66 96 -37 54 -64 131 -56 158 4 13 -2 19 -25 24 -16 4 -56 26
-87 49 -62 45 -145 96 -157 96 -4 0 14 -17 41 -38 96 -77 173 -173 231 -288
38 -75 57 -144 72 -256 14 -106 4 -150 -44 -179 -43 -26 -65 -26 -41 1 21 24
14 25 -24 5 -16 -8 -62 -22 -102 -31 -121 -26 -171 -70 -229 -197 -17 -37 -32
-67 -35 -67 -2 0 -1 31 2 69 5 56 2 74 -13 100 l-19 32 -5 -24 c-5 -24 -6 -24
-39 19 -30 40 -32 46 -22 75 17 48 13 108 -8 143 -10 17 -24 58 -31 91 -7 35
-24 77 -42 103 -46 66 -28 73 35 13 52 -49 57 -52 57 -30 0 70 -44 145 -102
175 -16 9 -28 18 -25 20 2 3 -6 40 -19 82 -32 105 -30 127 6 56 16 -33 56 -85
90 -119 l61 -60 92 0 c79 -1 101 -5 152 -28 33 -16 67 -35 77 -44 42 -37 13 9
-42 69 -79 87 -135 121 -250 153 -127 35 -224 94 -206 124 32 51 248 -16 385
-120 28 -21 54 -39 56 -39 3 0 5 10 5 22 0 33 -114 137 -191 174 -78 39 -151
64 -187 65 -15 0 -36 4 -47 9 -18 7 -15 10 20 25 64 28 154 17 245 -28 75 -37
216 -74 203 -54 -4 7 2 8 18 3 13 -4 58 -10 99 -13 74 -5 76 -4 104 26 23 24
26 31 13 31 -9 0 -17 5 -17 10 0 6 5 10 10 10 6 0 10 4 10 10 0 5 19 36 43 69
24 32 49 72 56 89 11 26 28 36 129 75 128 51 198 60 227 30z m420 -104 c4 -6
4 -13 0 -17 -4 -4 -10 -1 -12 6 -5 14 -43 16 -43 2 0 -5 -5 -10 -11 -10 -8 0
-8 5 1 15 14 17 56 20 65 4z m-98 -5 c-3 -3 -12 -4 -19 -1 -8 3 -5 6 6 6 11 1
17 -2 13 -5z m-1554 -31 c13 -12 -225 -55 -248 -45 -17 8 -10 13 45 30 63 20
189 30 203 15z m261 -13 c75 -25 84 -32 60 -40 -10 -4 -44 -1 -74 6 -30 8 -86
19 -123 25 -43 8 -63 15 -55 20 24 16 134 9 192 -11z m-1604 -10 c0 -5 -2 -10
-4 -10 -3 0 -8 5 -11 10 -3 6 -1 10 4 10 6 0 11 -4 11 -10z m-200 -30 c0 -5
-4 -10 -10 -10 -5 0 -10 5 -10 10 0 6 5 10 10 10 6 0 10 -4 10 -10z m333 -101
c-5 -5 -9 -1 -9 9 -1 9 -4 26 -8 37 -4 11 0 7 9 -9 10 -16 13 -32 8 -37z
m2501 25 c3 -8 2 -12 -4 -9 -6 3 -10 10 -10 16 0 14 7 11 14 -7z m546 -84 c0
-5 -4 -10 -10 -10 -5 0 -10 5 -10 10 0 6 5 10 10 10 6 0 10 -4 10 -10z m-3510
-14 c0 -2 -7 -9 -15 -16 -12 -10 -15 -10 -15 4 0 9 7 16 15 16 8 0 15 -2 15
-4z m2860 -57 c0 -18 -2 -19 -15 -9 -15 12 -12 30 6 30 5 0 9 -10 9 -21z
m-3020 -139 c0 -29 -4 -40 -15 -40 -11 0 -15 11 -15 40 0 29 4 40 15 40 11 0
15 -11 15 -40z m755 -20 c4 -6 -6 -10 -22 -10 -22 0 -25 2 -13 10 19 12 27 12
35 0z m-46 -69 l-54 -26 43 -3 c23 -2 42 -5 42 -8 0 -3 -11 -20 -24 -37 -31
-42 -71 -122 -85 -172 -8 -28 -37 -66 -92 -125 -81 -85 -89 -89 -37 -16 17 23
28 52 28 71 0 78 67 232 142 327 27 34 31 36 60 26 l30 -11 -53 -26z m3178
-13 c-2 -13 -4 -3 -4 22 0 25 2 35 4 23 2 -13 2 -33 0 -45z m-4047 -218 c0
-29 -4 -40 -15 -40 -11 0 -15 11 -15 40 0 29 4 40 15 40 11 0 15 -11 15 -40z
m2109 -3 c12 -24 21 -63 21 -86 0 -34 7 -51 30 -78 30 -33 36 -56 24 -87 -11
-29 -32 -16 -73 45 -41 61 -41 62 -41 155 0 52 4 94 9 94 5 0 19 -19 30 -43z
m832 -247 c60 -224 20 -460 -94 -553 -30 -25 -47 -48 -56 -79 -19 -62 -52
-123 -108 -200 l-50 -68 -10 43 c-6 23 -13 49 -17 58 -5 12 0 18 18 23 37 9
94 62 118 110 11 23 49 82 83 131 88 129 88 129 -13 33 -50 -49 -100 -88 -110
-88 -25 0 -114 78 -105 92 3 7 1 8 -6 4 -6 -4 -26 3 -43 16 l-32 22 17 -24 c9
-13 48 -59 87 -102 39 -43 69 -78 65 -78 -23 0 -90 48 -135 97 -29 32 -68 68
-88 80 -38 24 -62 73 -62 133 0 53 22 76 96 100 79 26 107 49 142 115 22 41
37 55 82 76 39 19 57 23 62 15 9 -14 10 -152 2 -196 -4 -20 -17 -38 -34 -49
-15 -9 -25 -21 -23 -27 5 -14 -67 -44 -105 -44 l-27 -1 25 -14 c14 -8 37 -14
53 -15 15 0 27 -4 27 -9 0 -14 -53 -20 -95 -11 -22 5 -41 7 -43 6 -7 -8 89
-56 112 -56 16 0 47 19 87 55 34 30 66 55 71 55 5 0 18 21 29 48 27 60 21 168
-12 259 -22 60 -22 64 -7 115 9 29 19 67 23 83 7 30 7 30 32 -25 13 -30 33
-89 44 -130z m-3021 10 c0 -29 -4 -40 -15 -40 -10 0 -15 10 -15 33 0 19 3 37
7 40 15 16 23 5 23 -33z m2256 -110 c53 -57 65 -128 38 -219 -20 -67 -15 -84
47 -179 27 -42 57 -101 65 -130 14 -48 14 -60 1 -113 -20 -81 -60 -127 -110
-128 -21 -1 -57 -11 -80 -23 -61 -32 -168 -32 -220 0 -28 18 -48 23 -82 20
-40 -3 -45 -1 -58 28 -30 62 0 224 49 265 12 10 13 9 8 -5 -3 -9 -4 -16 -1
-16 3 0 17 25 31 55 14 30 30 55 37 55 6 0 9 7 6 15 -4 8 -2 17 3 20 15 10 23
93 11 127 l-11 33 20 -25 c11 -14 20 -30 20 -37 0 -25 23 -24 51 3 28 26 29
27 48 10 19 -17 20 -17 37 11 9 15 28 45 42 65 l25 38 -27 35 c-15 19 -35 52
-44 72 l-17 38 -87 -92 c-49 -51 -88 -89 -88 -85 0 4 24 32 53 63 116 124 124
135 131 174 12 61 16 61 48 3 17 -29 41 -64 54 -78z m-1015 -4 c5 -6 9 -39 9
-74 0 -107 13 -132 108 -217 46 -42 102 -88 123 -102 21 -14 39 -27 39 -29 0
-8 -84 -64 -96 -64 -7 0 -54 39 -105 88 l-92 87 72 -107 c39 -60 69 -108 66
-108 -3 0 7 -20 24 -43 37 -55 96 -107 120 -107 17 0 17 -4 3 -60 l-15 -61
-49 68 c-58 79 -91 142 -107 201 -8 26 -25 54 -48 75 -56 50 -92 110 -108 179
-18 75 -20 252 -3 332 l11 58 20 -53 c11 -30 23 -58 28 -63z m-140 -127 c5
-92 17 -187 29 -233 22 -86 72 -195 101 -222 19 -17 19 -16 13 17 l-6 34 23
-33 c13 -18 61 -83 107 -144 82 -109 96 -138 49 -102 -247 191 -283 234 -338
402 -30 90 -32 107 -33 242 -1 96 4 164 13 200 14 54 15 54 23 25 5 -16 13
-100 19 -186z m1567 147 c6 -47 -6 -73 -42 -95 -51 -32 -132 -22 -121 14 3 8
7 22 10 30 4 13 8 13 23 4 12 -7 27 -9 38 -4 18 7 18 8 2 12 -49 12 3 76 57
71 25 -3 31 -8 33 -32z m-1227 14 c10 -6 30 -32 44 -59 27 -54 66 -91 116
-110 86 -32 107 -45 118 -67 14 -32 14 -70 -1 -97 -11 -21 -12 -20 -22 18 -12
43 -38 61 -140 99 -59 23 -111 66 -125 106 -8 25 -7 30 5 30 11 0 9 9 -11 37
-35 53 -30 67 16 43z m232 -14 c8 -19 -16 -38 -37 -30 -16 6 -21 25 -9 37 12
12 41 7 46 -7z m-70 -37 c6 -21 37 -25 66 -10 25 14 40 0 34 -31 -6 -32 -31
-42 -77 -34 -36 7 -76 43 -73 66 7 41 40 48 50 9z m2765 -112 c2 -100 0 -117
-13 -117 -13 0 -15 19 -15 121 0 92 3 120 13 117 8 -3 13 -39 15 -121z m-2011
-145 c-13 -12 -16 -12 -22 8 -4 13 -2 33 6 47 l13 25 9 -32 c6 -24 5 -37 -6
-48z m-2352 18 c3 -6 -1 -7 -9 -4 -10 4 -16 1 -16 -7 0 -7 -3 -10 -6 -6 -7 7
4 27 16 27 5 0 12 -4 15 -10z m40 0 c3 -6 -1 -7 -9 -4 -18 7 -21 14 -7 14 6 0
13 -4 16 -10z m4225 0 c24 -15 7 -19 -20 -5 -15 8 -19 14 -10 14 8 1 22 -3 30
-9z m-16 -39 c-2 -3 -12 3 -22 13 -16 17 -16 18 5 5 12 -7 20 -15 17 -18z
m114 -40 c-6 -11 -18 -17 -26 -13 -10 3 -13 0 -10 -9 3 -8 13 -12 23 -11 16 3
17 1 6 -12 -11 -14 -15 -14 -28 -1 -17 18 -8 56 12 49 7 -3 16 -1 20 5 3 6 8
11 11 11 2 0 -1 -9 -8 -19z m-3940 -50 c88 -45 137 -142 130 -257 -2 -35 -10
-70 -17 -76 -10 -11 -11 -4 -6 34 12 77 -16 153 -78 213 -61 59 -105 75 -206
75 -45 0 -70 4 -66 10 21 34 176 35 243 1z m3612 14 c17 -9 30 -18 30 -20 0
-3 -24 -2 -53 1 -176 21 -323 -120 -303 -289 4 -39 3 -48 -6 -39 -18 18 -22
136 -8 188 31 111 119 174 243 174 42 0 79 -6 97 -15z m-4136 -36 c-3 -5 -13
-9 -22 -8 -11 0 -12 2 -4 6 6 2 10 9 7 14 -4 5 1 6 9 3 9 -3 13 -10 10 -15z
m4466 1 c0 -5 -5 -10 -11 -10 -5 0 -7 5 -4 10 3 6 8 10 11 10 2 0 4 -4 4 -10z
m-770 -59 c12 -24 13 -98 1 -105 -5 -3 -11 17 -15 44 -4 28 -9 57 -12 65 -9
22 14 18 26 -4z m-3287 -6 c86 -36 136 -110 137 -201 0 -167 -133 -271 -281
-219 -88 32 -133 102 -134 211 0 61 4 77 30 120 52 85 162 125 248 89z m3783
-4 c71 -32 124 -117 124 -199 0 -87 -67 -190 -139 -213 -79 -26 -176 -4 -228
53 -63 68 -72 212 -18 289 58 82 169 112 261 70z m-2382 -43 c-4 -7 -12 -19
-18 -27 -5 -7 -11 -18 -13 -25 -12 -54 -20 -71 -30 -73 -7 -2 -13 6 -13 16 0
30 11 52 23 44 7 -4 8 0 3 12 -4 12 1 26 15 42 24 24 45 32 33 11z m-74 -154
c0 -13 3 -14 15 -4 15 13 16 12 31 -38 2 -7 9 -10 15 -6 8 5 9 3 4 -6 -6 -10
-4 -12 9 -7 9 4 14 3 11 -2 -6 -10 14 -62 28 -72 11 -8 18 -49 8 -49 -5 0 -15
8 -22 17 -12 15 -12 16 4 10 11 -4 16 -3 12 4 -4 5 -16 7 -27 3 -16 -5 -30 4
-59 36 -21 23 -38 52 -38 64 0 11 -2 31 -6 44 -5 14 -3 22 4 22 6 0 11 -7 11
-16z m356 -139 c93 -31 127 -31 220 1 57 19 78 23 94 14 20 -11 27 -22 11 -17
-5 1 -9 -2 -9 -8 0 -5 4 -9 10 -7 5 1 7 -2 3 -8 -5 -8 -11 -8 -20 0 -9 7 -33
6 -84 -5 -40 -8 -91 -15 -114 -15 -47 0 -209 49 -201 62 7 11 6 11 90 -17z
m44 -60 c16 -9 19 -14 9 -15 -8 0 -24 7 -35 15 -24 18 -7 19 26 0z m160 0 c0
-2 -9 -9 -20 -15 -24 -13 -50 -2 -29 11 15 9 49 12 49 4z m-126 -89 c6 -29 4
-37 -6 -34 -7 3 -14 23 -16 49 -4 53 12 43 22 -15z m82 10 c-1 -19 -4 -38 -8
-41 -10 -10 -20 33 -13 55 10 32 22 23 21 -14z m814 -250 c0 -8 -7 -19 -15
-26 -16 -13 -18 -8 -9 27 6 23 24 22 24 -1z m-845 -16 c10 8 19 8 35 0 11 -6
24 -9 28 -6 4 3 34 -4 67 -15 62 -20 118 -24 175 -10 l35 8 -3 -121 c-2 -71
-9 -133 -17 -151 l-13 -30 -1 47 c-1 26 -5 50 -11 53 -5 3 -10 -1 -10 -9 0 -8
-5 -27 -11 -43 l-12 -28 -6 25 c-6 23 -10 20 -41 -38 -29 -55 -86 -119 -96
-109 -2 2 1 20 7 41 23 83 -18 52 -127 -95 l-20 -28 -42 57 c-23 31 -56 73
-73 92 l-30 35 4 -52 4 -52 -22 17 c-25 19 -87 105 -99 137 -5 15 -9 16 -15 6
-12 -19 -24 4 -16 29 4 11 2 20 -4 20 -6 0 -8 13 -6 33 4 24 2 22 -10 -13 -8
-25 -15 -63 -15 -85 -1 -76 -22 -9 -26 84 -3 47 -6 107 -8 132 l-3 47 31 -9
c57 -17 119 -10 271 30 17 4 38 4 48 -1 12 -6 23 -5 32 2z m1164 -320 c6 -80
16 -216 22 -302 7 -87 10 -160 8 -162 -2 -2 -35 2 -74 10 -85 16 -194 18 -266
3 -30 -6 -61 -11 -69 -12 -12 -2 -17 25 -26 153 -6 85 -14 193 -18 240 l-7 85
72 55 c39 30 82 69 97 85 l25 30 -6 -37 c-3 -21 -4 -38 -2 -38 2 0 15 19 29
43 l26 42 0 -59 0 -60 34 33 c19 19 57 67 83 109 l48 74 7 -73 c3 -41 11 -139
17 -219z m-2214 110 l37 -35 -6 36 c-4 20 -3 44 0 53 5 14 11 10 31 -19 14
-20 26 -35 28 -33 2 2 0 21 -5 43 -5 22 -10 46 -10 53 0 23 21 12 40 -20 11
-18 60 -64 110 -103 l90 -70 -4 -63 c-3 -34 -11 -142 -17 -240 -6 -97 -13
-178 -14 -180 -1 -1 -31 4 -66 13 -82 19 -176 19 -275 0 -43 -8 -80 -13 -82
-10 -5 4 34 568 44 654 l6 45 28 -45 c15 -24 45 -60 65 -79z m606 -62 c10 -18
9 -20 -6 -15 -9 4 -21 7 -26 7 -5 0 -9 7 -9 15 0 22 28 18 41 -7z m898 -3 c-2
-13 -59 -37 -59 -25 0 5 7 16 16 25 17 17 46 17 43 0z m-770 -287 c5 -13 18
-81 30 -153 12 -71 24 -142 27 -157 5 -23 2 -28 -14 -28 -23 0 -31 18 -62 155
-32 134 -40 186 -34 196 10 18 45 9 53 -13z m687 -20 c-4 -24 -21 -104 -39
-178 -30 -123 -34 -135 -56 -138 -20 -3 -23 0 -18 20 3 12 11 55 17 93 16 100
41 229 47 238 2 4 16 7 30 7 24 0 25 -2 19 -42z m774 -254 c99 -23 142 -71
114 -126 l-17 -33 -8 31 c-19 69 -185 110 -342 85 -135 -22 -157 -24 -157 -13
0 20 52 51 103 61 29 6 61 13 72 15 33 8 166 -3 235 -20z m-1971 2 c52 -14 91
-39 91 -59 0 -10 -41 -6 -155 12 -118 20 -280 -6 -322 -51 -12 -13 -23 -32
-25 -43 -4 -18 -6 -16 -20 10 -29 56 8 100 110 126 83 22 246 24 321 5z m41
-80 c0 -2 -9 -6 -20 -9 -11 -3 -18 -1 -14 4 5 9 34 13 34 5z m-43 -258 c-1
-46 -3 -11 -3 77 0 88 2 125 3 83 2 -42 2 -114 0 -160z m1660 15 c-1 -43 -3
-10 -3 72 0 83 2 118 3 78 2 -40 2 -107 0 -150z m-1466 157 c21 -12 27 -74 8
-86 -8 -5 -6 -10 5 -16 16 -9 22 -54 8 -75 -11 -17 -58 -33 -98 -33 l-34 0 0
110 0 110 46 0 c25 0 54 -5 65 -10z m99 -100 c0 -103 -1 -110 -20 -110 -19 0
-20 7 -20 110 0 103 1 110 20 110 19 0 20 -7 20 -110z m80 68 l1 -43 25 43
c19 31 32 42 50 42 l24 0 -27 -48 -27 -48 31 -57 c32 -58 32 -67 1 -67 -12 0
-26 16 -40 45 -25 51 -38 50 -38 -6 0 -31 -4 -39 -19 -39 -16 0 -19 10 -23 87
-6 108 -1 133 23 133 16 0 19 -8 19 -42z m240 22 c0 -17 -7 -20 -41 -20 -36 0
-40 -2 -37 -22 2 -19 10 -24 41 -26 23 -2 37 -8 37 -17 0 -9 -14 -15 -37 -17
-33 -3 -38 -7 -41 -30 -3 -27 -1 -28 37 -28 34 0 41 -3 41 -20 0 -18 -7 -20
-60 -20 l-60 0 0 110 0 110 60 0 c53 0 60 -2 60 -20z m141 10 c22 -12 26 -69
7 -88 -10 -10 -10 -15 -1 -20 6 -4 13 -27 14 -52 3 -39 1 -45 -16 -45 -16 0
-21 8 -25 40 -4 32 -10 41 -27 43 -19 3 -22 -2 -25 -40 -2 -35 -7 -43 -23 -43
-19 0 -20 8 -23 108 l-3 107 51 0 c28 0 60 -5 71 -10z m240 0 c21 -12 27 -74
9 -85 -7 -4 -7 -11 -2 -18 5 -7 12 -34 15 -60 4 -45 3 -48 -17 -45 -16 2 -22
12 -26 43 -4 32 -10 41 -27 43 -19 3 -22 -2 -25 -40 -2 -34 -7 -43 -21 -43
-17 0 -19 11 -22 100 -2 55 -1 103 1 107 7 12 92 10 115 -2z m169 -80 c0 -77
-3 -93 -20 -110 -35 -35 -90 -21 -105 28 -5 18 -2 22 14 22 11 0 25 -9 31 -20
20 -37 30 -10 30 81 0 88 0 89 25 89 25 0 25 -1 25 -90z m220 -20 c0 -103 -1
-110 -20 -110 -18 0 -20 7 -20 74 0 69 -2 75 -22 78 -25 4 -37 28 -14 28 9 0
24 9 33 20 36 41 43 26 43 -90z m172 87 c11 -17 10 -65 -2 -72 -6 -4 -4 -15 6
-29 18 -29 10 -72 -16 -86 -43 -23 -92 -6 -105 38 -5 17 -2 22 13 22 11 0 26
-10 34 -22 18 -26 38 -16 38 19 0 16 -7 27 -20 30 -11 3 -20 11 -20 18 0 7 9
15 20 18 12 3 20 14 20 25 0 31 -21 39 -38 14 -18 -27 -42 -29 -42 -3 0 44 88
66 112 28z m-1574 -47 c-3 -20 -11 -21 -188 -23 -201 -2 -230 -9 -230 -52 0
-28 -15 -33 -24 -9 -6 17 17 68 36 81 24 14 94 21 251 22 154 1 158 0 155 -19z
m2113 -18 c28 -31 37 -61 23 -75 -4 -4 -14 8 -23 25 -9 18 -27 35 -41 39 -14
4 -105 7 -202 8 -174 1 -178 2 -178 22 0 21 3 21 196 17 l196 -3 29 -33z
m-821 -43 c0 -18 -5 -20 -42 -17 -31 2 -44 8 -46 21 -3 14 4 17 42 17 40 0 46
-3 46 -21z m-1177 -166 c-13 -2 -33 -2 -45 0 -13 2 -3 4 22 4 25 0 35 -2 23
-4z"/>
<path d="M9220 9106 c0 -2 34 -26 76 -52 92 -57 128 -92 153 -148 l19 -43 63
9 c77 11 110 5 208 -34 42 -16 98 -39 124 -49 63 -25 57 -10 -18 46 -80 59
-231 133 -390 190 -71 25 -143 52 -160 59 -40 18 -75 28 -75 22z"/>
<path d="M3710 9103 c-8 -3 -28 -11 -45 -19 -16 -7 -88 -34 -160 -59 -160 -57
-330 -140 -410 -200 -33 -25 -61 -49 -63 -55 -2 -5 59 16 135 47 l138 55 85
-7 86 -6 23 50 c23 51 60 87 141 134 44 26 100 67 90 66 -3 0 -12 -3 -20 -6z"/>
<path d="M9030 7900 c-38 -38 -13 -100 40 -100 53 0 68 65 24 99 -33 26 -39
26 -64 1z"/>
<path d="M3841 7884 c-25 -32 -26 -43 -5 -72 30 -43 94 -16 94 41 0 56 -55 75
-89 31z"/>
<path d="M6175 6894 c-55 -30 -115 -65 -133 -77 -47 -32 -85 -114 -86 -187 -1
-51 4 -64 37 -112 20 -30 49 -65 63 -79 l27 -24 -15 30 c-25 49 -32 79 -17 70
9 -6 10 -3 5 11 -4 10 -10 45 -13 76 -5 50 -2 65 23 114 18 35 48 73 78 98 79
66 152 136 141 136 -5 0 -55 -25 -110 -56z"/>
<path d="M5810 6659 c5 -16 7 -36 4 -43 -8 -21 44 -56 84 -56 l35 0 -59 64
c-32 35 -62 64 -66 65 -4 0 -3 -13 2 -30z"/>
<path d="M6177 6637 c-35 -69 -34 -86 6 -139 19 -24 39 -53 45 -63 18 -32 15
6 -4 55 -16 40 -16 106 1 144 6 15 5 17 -5 11 -10 -6 -11 -2 -6 19 11 43 -8
29 -37 -27z"/>
<path d="M5885 5550 c15 -49 102 -149 117 -135 3 3 22 -2 44 -11 22 -10 74
-18 119 -20 87 -3 80 6 -18 24 -84 16 -181 67 -229 121 -32 37 -39 41 -33 21z"/>
<path d="M5720 5533 c-83 -6 -179 -23 -235 -40 l-55 -17 53 -22 52 -22 95 24
c52 13 124 26 160 29 l65 4 -55 -9 c-92 -16 -190 -42 -190 -50 0 -4 9 -15 20
-25 19 -17 22 -17 97 4 43 12 94 25 113 30 22 5 34 13 32 22 -2 8 -5 28 -5 44
-2 29 -4 30 -52 31 -27 1 -70 -1 -95 -3z"/>
<path d="M5904 5417 c0 -14 3 -25 7 -24 3 1 20 -15 38 -35 18 -21 39 -38 46
-38 8 0 21 -9 29 -21 9 -13 19 -18 27 -13 7 4 52 6 100 5 48 -1 89 2 92 6 3 4
-20 9 -50 10 -94 3 -206 48 -260 103 l-31 32 2 -25z"/>
<path d="M5606 5395 c-3 -9 0 -15 9 -15 16 0 20 16 6 24 -5 3 -11 -1 -15 -9z"/>
<path d="M5395 5290 c-3 -6 1 -7 9 -4 18 7 21 14 7 14 -6 0 -13 -4 -16 -10z"/>
<path d="M6631 6937 c2 -2 45 -40 96 -85 115 -102 148 -161 141 -250 -3 -31
-9 -66 -13 -76 -6 -14 -5 -17 3 -12 17 10 15 -9 -4 -45 -8 -17 -13 -33 -11
-35 8 -9 67 69 93 123 21 43 25 60 19 95 -19 113 -65 164 -217 241 -79 39
-125 58 -107 44z"/>
<path d="M7338 6818 c46 -69 131 -248 148 -313 9 -33 21 -78 26 -100 19 -70
13 -290 -10 -376 -28 -104 -75 -197 -133 -263 -46 -51 -162 -147 -232 -191
l-31 -19 135 -17 c174 -23 166 -23 183 9 l15 27 1 -34 c0 -34 0 -34 21 -15 28
26 48 64 80 159 30 88 47 100 65 45 l12 -35 7 38 c4 21 6 106 3 188 -3 127 -2
149 10 144 11 -4 13 0 9 16 -5 20 -3 19 24 -7 22 -21 29 -24 29 -11 0 26 -29
141 -45 181 -15 36 -15 37 4 26 11 -5 25 -18 31 -28 21 -33 -1 50 -31 116 -30
67 -27 74 15 41 15 -12 29 -19 32 -17 10 11 -84 137 -169 225 -71 74 -84 92
-58 79 33 -17 33 -17 20 2 -39 55 -163 172 -183 172 -4 0 6 -19 22 -42z"/>
<path d="M6692 6690 c17 -49 19 -62 11 -57 -6 4 -8 -16 -5 -48 3 -37 -1 -68
-12 -96 -9 -23 -15 -43 -14 -45 8 -8 88 101 88 120 0 11 -12 44 -26 71 -27 51
-52 84 -42 55z"/>
<path d="M7041 6624 c-63 -63 -64 -64 -35 -64 39 0 98 36 90 55 -3 9 -1 27 5
41 5 15 8 28 7 29 -2 2 -32 -26 -67 -61z"/>
<path d="M6992 5530 c-44 -53 -176 -119 -255 -127 -87 -9 -79 -24 10 -19 47 2
94 10 116 21 20 9 40 14 46 11 5 -4 15 3 21 14 6 11 17 20 24 20 13 0 55 62
69 103 9 24 6 22 -31 -23z"/>
<path d="M7050 5513 c0 -15 -3 -37 -6 -48 -5 -19 5 -23 108 -48 143 -35 157
-35 151 -2 -6 28 -8 28 -118 49 -122 23 -124 24 -92 25 16 0 74 -9 130 -20 56
-12 109 -23 117 -23 9 -1 21 -6 29 -10 11 -7 11 -4 0 15 -7 15 -14 19 -17 11
-2 -6 -8 -12 -13 -12 -5 0 -4 8 2 19 7 11 19 16 31 13 18 -4 26 12 10 22 -10
6 -145 23 -249 31 l-83 6 0 -28z"/>
<path d="M6956 5395 c-45 -40 -117 -69 -210 -86 -36 -6 -66 -13 -66 -16 0 -10
192 5 203 16 6 6 16 11 23 11 14 0 94 85 94 100 0 14 0 14 -44 -25z"/>
<path d="M7145 6380 c-3 -5 -2 -10 4 -10 5 0 13 5 16 10 3 6 2 10 -4 10 -5 0
-13 -4 -16 -10z"/>
<path d="M7138 6330 c-4 -24 -2 -27 9 -19 15 13 18 49 4 49 -5 0 -11 -13 -13
-30z"/>
<path d="M7113 6270 c-3 -11 -10 -20 -15 -20 -5 0 -6 -5 -2 -12 5 -7 2 -9 -7
-6 -9 3 -26 -2 -40 -13 -24 -18 -24 -18 -1 -12 12 3 22 9 22 14 0 5 6 6 13 4
6 -2 19 1 28 8 21 16 34 57 19 57 -7 0 -14 -9 -17 -20z"/>
<path d="M6960 6180 c-13 -9 -13 -10 0 -10 8 0 22 5 30 10 13 9 13 10 0 10 -8
0 -22 -5 -30 -10z"/>
<path d="M6010 5665 c0 -8 -5 -15 -11 -15 -8 0 -8 -5 1 -15 14 -17 20 -18 39
-6 11 7 9 13 -8 30 -16 16 -21 17 -21 6z m20 -25 c0 -5 -4 -10 -10 -10 -5 0
-10 5 -10 10 0 6 5 10 10 10 6 0 10 -4 10 -10z"/>
<path d="M6046 5612 c-14 -17 -15 -20 -2 -25 10 -4 13 -1 9 9 -3 7 0 14 6 14
6 0 11 -5 11 -12 0 -6 3 -9 6 -5 3 3 2 13 -3 22 -8 14 -11 14 -27 -3z"/>
<path d="M5777 4143 c-4 -3 -7 -17 -7 -30 0 -20 5 -24 22 -21 26 3 37 36 16
49 -16 11 -23 11 -31 2z"/>
<path d="M5770 4031 c0 -27 4 -31 26 -31 22 0 25 4 22 28 -2 19 -9 28 -25 30
-20 3 -23 -1 -23 -27z"/>
<path d="M6330 4120 c0 -23 4 -30 20 -30 25 0 36 25 20 45 -21 25 -40 18 -40
-15z"/>
<path d="M6570 4119 c0 -26 3 -30 22 -27 26 3 37 36 16 49 -25 17 -38 9 -38
-22z"/>
<path d="M6346 8447 c3 -10 9 -15 12 -12 3 3 0 11 -7 18 -10 9 -11 8 -5 -6z"/>
<path d="M5992 8433 c-6 -2 -10 -9 -6 -14 8 -14 21 -11 21 6 0 8 -1 15 -1 14
-1 0 -7 -3 -14 -6z"/>
<path d="M6296 8383 c-6 -14 -5 -15 5 -6 7 7 10 15 7 18 -3 3 -9 -2 -12 -12z"/>
<path d="M5800 8350 c0 -5 5 -10 11 -10 5 0 7 5 4 10 -3 6 -8 10 -11 10 -2 0
-4 -4 -4 -10z"/>
<path d="M6005 8350 c3 -5 8 -10 11 -10 2 0 4 5 4 10 0 6 -5 10 -11 10 -5 0
-7 -4 -4 -10z"/>
<path d="M6280 8347 c0 -10 8 -17 18 -17 9 0 13 4 7 8 -5 4 -13 11 -17 16 -5
5 -8 2 -8 -7z"/>
<path d="M6640 8356 c0 -2 7 -6 15 -10 8 -3 15 -1 15 4 0 6 -7 10 -15 10 -8 0
-15 -2 -15 -4z"/>
<path d="M5851 8334 c0 -11 3 -14 6 -6 3 7 2 16 -1 19 -3 4 -6 -2 -5 -13z"/>
<path d="M6648 8309 c3 -19 10 -29 21 -28 10 0 11 2 4 6 -7 2 -13 13 -13 23 0
10 -4 21 -8 24 -5 3 -6 -8 -4 -25z"/>
<path d="M6927 8333 c-9 -15 -19 -78 -12 -71 4 3 10 23 15 42 8 34 6 45 -3 29z"/>
<path d="M6083 8305 c1 -17 -2 -36 -6 -43 -5 -6 -4 -12 2 -12 17 0 20 14 11
50 -9 33 -9 33 -7 5z"/>
<path d="M6571 8314 c0 -11 3 -14 6 -6 3 7 2 16 -1 19 -3 4 -6 -2 -5 -13z"/>
<path d="M6144 8290 c1 -33 19 -42 24 -13 3 15 1 16 -8 3 -10 -12 -11 -11 -7
7 3 13 2 25 -2 28 -5 2 -8 -9 -7 -25z"/>
<path d="M6890 8309 c0 -5 -4 -8 -8 -5 -5 3 -9 -1 -9 -8 0 -8 6 -12 13 -9 16
6 27 33 14 33 -6 0 -10 -5 -10 -11z"/>
<path d="M5876 8297 c3 -10 9 -15 12 -12 3 3 0 11 -7 18 -10 9 -11 8 -5 -6z"/>
<path d="M6230 8297 c0 -8 6 -14 13 -14 6 0 21 -4 32 -7 15 -5 15 -4 -2 5 -13
7 -23 16 -23 21 0 4 -4 8 -10 8 -5 0 -10 -6 -10 -13z"/>
<path d="M5835 8289 c-4 -6 -5 -12 -2 -15 2 -3 7 2 10 11 7 17 1 20 -8 4z"/>
<path d="M6760 8285 c0 -8 4 -15 8 -15 5 0 9 7 9 15 0 8 -4 15 -9 15 -4 0 -8
-7 -8 -15z"/>
<path d="M6846 8284 c-4 -9 -4 -19 -1 -22 2 -3 7 3 11 12 4 9 4 19 1 22 -2 3
-7 -3 -11 -12z"/>
<path d="M6985 8255 c2 -22 4 -43 4 -48 1 -10 41 16 41 27 0 4 -7 3 -15 -4 -9
-8 -15 -9 -15 -2 0 6 5 14 10 17 6 3 10 16 9 28 0 21 -1 21 -11 -3 l-11 -25
-8 25 c-6 19 -7 16 -4 -15z"/>
<path d="M5797 8260 c3 -11 9 -17 14 -15 10 7 1 35 -11 35 -5 0 -6 -9 -3 -20z"/>
<path d="M6588 8273 c6 -2 18 -2 25 0 6 3 1 5 -13 5 -14 0 -19 -2 -12 -5z"/>
<path d="M7056 8265 c4 -8 8 -15 10 -15 2 0 4 7 4 15 0 8 -4 15 -10 15 -5 0
-7 -7 -4 -15z"/>
<path d="M7167 8259 c4 -13 8 -18 11 -10 2 7 -1 18 -6 23 -8 8 -9 4 -5 -13z"/>
<path d="M5660 8261 c0 -6 4 -13 10 -16 6 -3 7 1 4 9 -7 18 -14 21 -14 7z"/>
<path d="M5898 8243 c5 -21 7 -23 10 -9 2 10 0 22 -6 28 -6 6 -7 0 -4 -19z"/>
<path d="M6011 8263 c-1 -17 36 -35 62 -30 18 4 17 5 -5 6 -19 1 -28 6 -28 19
0 13 -2 14 -9 3 -7 -11 -9 -11 -14 0 -4 9 -6 10 -6 2z"/>
<path d="M6217 8263 c-23 -6 -17 -27 9 -31 16 -3 16 -1 4 7 -12 9 -11 11 8 11
12 0 22 5 22 10 0 10 -12 11 -43 3z"/>
<path d="M6615 8255 c-16 -8 -23 -14 -15 -14 8 0 26 6 40 14 32 18 15 18 -25
0z"/>
<path d="M7318 8263 c7 -3 16 -2 19 1 4 3 -2 6 -13 5 -11 0 -14 -3 -6 -6z"/>
<path d="M5760 8250 c0 -5 5 -10 11 -10 5 0 7 5 4 10 -3 6 -8 10 -11 10 -2 0
-4 -4 -4 -10z"/>
<path d="M6298 8253 c7 -3 16 -2 19 1 4 3 -2 6 -13 5 -11 0 -14 -3 -6 -6z"/>
<path d="M6711 8239 c11 -11 23 -18 26 -15 7 7 -22 36 -36 36 -6 0 -2 -9 10
-21z"/>
<path d="M6738 8253 c7 -3 16 -2 19 1 4 3 -2 6 -13 5 -11 0 -14 -3 -6 -6z"/>
<path d="M5733 8235 c-9 -10 -6 -12 14 -12 14 0 21 2 17 6 -5 3 -11 9 -14 13
-3 3 -10 0 -17 -7z"/>
<path d="M5940 8240 c19 -6 21 -8 6 -9 -11 -1 -17 -3 -14 -6 3 -4 18 -3 33 1
32 8 15 24 -25 23 l-25 -1 25 -8z"/>
<path d="M6118 8243 c7 -3 16 -2 19 1 4 3 -2 6 -13 5 -11 0 -14 -3 -6 -6z"/>
<path d="M6793 8243 c9 -2 25 -2 35 0 9 3 1 5 -18 5 -19 0 -27 -2 -17 -5z"/>
<path d="M6891 8241 c-10 -6 -9 -10 5 -15 20 -8 25 -4 16 11 -4 7 -13 9 -21 4z"/>
<path d="M7100 8240 c-8 -5 -13 -10 -10 -11 48 -8 54 -8 41 0 -11 7 -10 10 5
14 18 4 18 5 -1 6 -11 0 -27 -4 -35 -9z"/>
<path d="M5514 8228 c-4 -7 -4 -10 1 -6 4 4 16 3 26 -3 11 -5 19 -7 19 -5 0 3
-9 10 -19 16 -15 7 -22 7 -27 -2z"/>
<path d="M6150 8230 c0 -5 7 -7 15 -4 11 4 15 -1 16 -17 0 -13 2 -32 4 -41 2
-9 -3 -22 -11 -29 -11 -9 -14 -8 -14 4 0 8 -5 17 -11 19 -6 2 -12 18 -12 36
-1 23 -7 32 -19 32 -10 0 -15 -5 -12 -13 3 -8 0 -25 -5 -39 -7 -18 -6 -29 2
-37 8 -8 4 -11 -17 -11 -20 0 -27 4 -23 14 3 8 -1 20 -9 27 -12 10 -16 9 -21
-9 -6 -25 -33 -30 -33 -7 0 20 -20 19 -36 -2 -12 -17 -14 -17 -27 1 -10 13
-16 15 -21 8 -4 -7 -5 -16 -1 -21 6 -11 -25 -31 -46 -31 -7 0 -5 7 7 16 10 8
13 12 5 8 -11 -6 -13 -3 -7 12 4 10 4 15 0 11 -4 -4 -14 -1 -22 5 -12 10 -13
7 -10 -17 3 -29 1 -30 -39 -33 -31 -2 -43 -8 -43 -19 0 -13 11 -15 75 -10 57
5 76 3 82 -7 4 -8 17 -16 28 -18 11 -3 -14 -3 -56 0 -42 2 -84 0 -94 -5 -13
-7 16 -11 100 -12 64 0 122 -4 128 -8 7 -4 17 -8 22 -9 6 -1 30 -7 55 -13 25
-7 50 -13 55 -14 29 -8 69 -45 86 -83 22 -46 25 -78 14 -141 l-7 -43 222 0
223 0 -7 55 c-10 86 15 159 65 191 40 25 142 54 192 54 15 0 27 3 27 8 0 4 35
8 78 9 133 2 142 3 142 14 0 11 -103 6 -155 -7 -12 -3 -15 -2 -9 3 6 4 13 16
17 26 5 14 19 17 88 17 82 0 105 14 26 16 -220 5 -247 8 -247 23 0 12 -3 11
-13 -4 -12 -16 -24 -17 -95 -12 -45 3 -85 1 -88 -4 -7 -11 -74 -12 -74 0 0 4
25 11 56 14 30 3 61 10 68 16 7 6 17 6 26 1 22 -14 68 -12 77 3 11 18 12 36 2
43 -5 3 -9 -2 -9 -10 0 -11 -9 -16 -30 -16 -16 0 -30 5 -30 10 0 6 -12 10 -26
10 -14 0 -23 -4 -19 -10 3 -5 -4 -11 -17 -12 -36 -2 -42 -3 -53 -9 -5 -4 -19
-4 -30 -1 -11 2 -35 4 -54 4 -19 -1 -39 5 -45 13 -8 10 -53 15 -158 20 l-146
7 -4 -23 c-5 -37 -28 -36 -28 2 0 19 -7 37 -17 45 -21 16 -53 18 -53 4z m250
-80 c0 -6 -32 -10 -75 -10 -43 0 -75 4 -75 10 0 6 32 10 75 10 43 0 75 -4 75
-10z m-400 -29 c0 -11 -69 -20 -76 -10 -4 7 15 12 64 18 6 0 12 -3 12 -8z
m244 -16 c-4 -8 -15 -15 -26 -15 -10 0 -17 4 -13 9 3 5 -7 12 -22 14 -18 2
-11 5 19 6 38 1 46 -2 42 -14z m-156 -35 c13 -7 5 -9 -31 -10 -27 0 -46 3 -43
8 7 12 56 13 74 2z m-5 -27 c-7 -2 -19 -2 -25 0 -7 3 -2 5 12 5 14 0 19 -2 13
-5z m876 3 c-2 -2 -26 -6 -54 -9 -34 -4 -42 -3 -25 3 25 8 87 13 79 6z"/>
<path d="M6258 8233 c6 -2 18 -2 25 0 6 3 1 5 -13 5 -14 0 -19 -2 -12 -5z"/>
<path d="M6630 8230 c-11 -8 -7 -9 15 -4 37 8 45 14 19 14 -10 0 -26 -5 -34
-10z"/>
<path d="M6768 8223 c7 -3 16 -2 19 1 4 3 -2 6 -13 5 -11 0 -14 -3 -6 -6z"/>
<path d="M7215 8220 c-10 -16 4 -30 28 -29 21 0 21 1 -3 10 -20 8 -22 12 -10
19 9 6 10 10 3 10 -6 0 -15 -4 -18 -10z"/>
<path d="M7310 8219 c0 -5 5 -7 10 -4 6 3 10 8 10 11 0 2 -4 4 -10 4 -5 0 -10
-5 -10 -11z"/>
<path d="M7323 8198 c-13 -17 -23 -58 -14 -58 7 0 33 62 27 67 -2 2 -8 -2 -13
-9z"/>
<path d="M7363 8198 c3 -9 1 -18 -6 -21 -8 -2 -8 -5 0 -10 15 -9 23 17 11 34
-8 11 -9 11 -5 -3z"/>
<path d="M5560 8179 c0 -5 5 -7 10 -4 6 3 10 8 10 11 0 2 -4 4 -10 4 -5 0 -10
-5 -10 -11z"/>
<path d="M7290 8171 c0 -5 -14 -8 -32 -6 -30 4 -31 4 -15 -13 14 -14 19 -14
26 -4 5 8 12 13 17 12 5 -1 10 3 12 9 2 6 1 11 -2 11 -3 0 -6 -4 -6 -9z"/>
<path d="M7385 8169 c-4 -6 -5 -12 -2 -15 2 -3 7 2 10 11 7 17 1 20 -8 4z"/>
<path d="M6976 8157 c3 -8 11 -14 18 -14 7 0 13 6 13 14 0 7 -8 13 -18 13 -11
0 -16 -5 -13 -13z"/>
<path d="M7040 8162 c0 -14 11 -21 26 -15 8 3 11 9 8 14 -7 11 -34 12 -34 1z"/>
<path d="M5456 8152 c-3 -5 1 -9 9 -9 8 0 12 4 9 9 -3 4 -7 8 -9 8 -2 0 -6 -4
-9 -8z"/>
<path d="M5607 8149 c7 -7 15 -10 18 -7 3 3 -2 9 -12 12 -14 6 -15 5 -6 -5z"/>
<path d="M7927 8149 c7 -7 15 -10 18 -7 3 3 -2 9 -12 12 -14 6 -15 5 -6 -5z"/>
<path d="M7265 8090 c-3 -5 -2 -10 4 -10 5 0 13 5 16 10 3 6 2 10 -4 10 -5 0
-13 -4 -16 -10z"/>
<path d="M7328 8083 c7 -3 16 -2 19 1 4 3 -2 6 -13 5 -11 0 -14 -3 -6 -6z"/>
<path d="M7364 8065 c-4 -9 -27 -12 -87 -9 -65 3 -76 1 -52 -7 17 -5 57 -9 90
-8 33 1 68 -1 77 -5 10 -5 23 -6 30 -3 7 3 3 6 -9 6 -24 1 -31 17 -11 23 7 3
2 7 -10 10 -15 4 -25 2 -28 -7z"/>
<path d="M5591 8061 c-12 -8 -10 -11 11 -16 14 -4 39 -5 54 -2 22 3 18 4 -14
6 -26 0 -41 5 -37 11 8 12 4 12 -14 1z"/>
<path d="M5698 8053 c6 -2 18 -2 25 0 6 3 1 5 -13 5 -14 0 -19 -2 -12 -5z"/>
<path d="M7491 8036 c2 -2 21 -6 42 -10 27 -5 37 -4 32 3 -3 6 -22 11 -42 11
-20 0 -34 -2 -32 -4z"/>
<path d="M5478 8023 c6 -2 18 -2 25 0 6 3 1 5 -13 5 -14 0 -19 -2 -12 -5z"/>
<path d="M7448 8023 c6 -2 18 -2 25 0 6 3 1 5 -13 5 -14 0 -19 -2 -12 -5z"/>
<path d="M7519 8004 c18 -8 36 -13 39 -10 6 6 -43 26 -61 25 -7 0 3 -7 22 -15z"/>
<path d="M7948 8013 c7 -3 16 -2 19 1 4 3 -2 6 -13 5 -11 0 -14 -3 -6 -6z"/>
<path d="M5408 8003 c7 -3 16 -2 19 1 4 3 -2 6 -13 5 -11 0 -14 -3 -6 -6z"/>
<path d="M7587 7975 c-9 -23 7 -33 26 -15 17 17 17 18 -2 23 -11 2 -22 -1 -24
-8z"/>
<path d="M5277 7960 c-19 -22 -22 -35 -7 -25 10 6 34 45 28 45 -2 0 -11 -9
-21 -20z"/>
<path d="M7676 7967 c3 -10 9 -15 12 -12 3 3 0 11 -7 18 -10 9 -11 8 -5 -6z"/>
<path d="M5155 7945 c11 -8 25 -19 32 -24 8 -8 11 -5 10 8 0 10 -6 17 -13 14
-7 -2 -15 0 -19 6 -3 6 -12 11 -18 11 -7 0 -3 -7 8 -15z"/>
<path d="M5305 7945 c-3 -8 -7 -22 -10 -31 -3 -8 -1 -12 4 -9 5 3 13 0 17 -6
4 -7 12 1 21 21 7 18 11 35 8 38 -2 3 -9 -7 -14 -22 -13 -33 -25 -34 -17 -1 7
27 -1 35 -9 10z"/>
<path d="M7760 7950 c0 -5 5 -10 11 -10 5 0 7 5 4 10 -3 6 -8 10 -11 10 -2 0
-4 -4 -4 -10z"/>
<path d="M7654 7932 c-1 -9 -4 -24 -8 -33 -10 -23 21 -32 47 -14 12 8 17 15
11 15 -5 0 -15 -5 -22 -12 -9 -9 -12 -5 -12 19 0 33 -15 55 -16 25z"/>
<path d="M7618 7903 c4 -30 6 -34 12 -18 6 16 -3 55 -13 55 -2 0 -1 -17 1 -37z"/>
<path d="M7690 7929 c0 -5 5 -7 10 -4 6 3 10 8 10 11 0 2 -4 4 -10 4 -5 0 -10
-5 -10 -11z"/>
<path d="M7725 7920 c-3 -5 -2 -10 4 -10 5 0 13 5 16 10 3 6 2 10 -4 10 -5 0
-13 -4 -16 -10z"/>
<path d="M5254 7883 c9 -9 56 -13 56 -4 0 5 -14 9 -30 9 -17 -1 -29 -3 -26 -5z"/>
<path d="M7630 7855 c-11 -13 -10 -14 4 -9 9 3 16 10 16 15 0 13 -6 11 -20 -6z"/>
<path d="M5307 7849 c7 -7 15 -10 18 -7 3 3 -2 9 -12 12 -14 6 -15 5 -6 -5z"/>
<path d="M4775 7531 c31 -9 102 -14 94 -7 -2 2 -31 6 -64 9 -39 4 -50 3 -30
-2z"/>
<path d="M8136 7532 c-2 -4 21 -8 51 -9 31 -1 54 0 51 2 -8 8 -98 14 -102 7z"/>
<path d="M4612 7515 c-7 -8 -9 -15 -4 -15 5 0 15 7 22 15 16 19 -1 19 -18 0z"/>
<path d="M4710 7520 c8 -5 24 -10 34 -10 26 0 18 6 -19 14 -22 5 -26 4 -15 -4z"/>
<path d="M8288 7523 c7 -3 16 -2 19 1 4 3 -2 6 -13 5 -11 0 -14 -3 -6 -6z"/>
<path d="M4793 7503 c9 -2 25 -2 35 0 9 3 1 5 -18 5 -19 0 -27 -2 -17 -5z"/>
<path d="M4518 7453 c7 -3 16 -2 19 1 4 3 -2 6 -13 5 -11 0 -14 -3 -6 -6z"/>
<path d="M8468 7443 c7 -3 16 -2 19 1 4 3 -2 6 -13 5 -11 0 -14 -3 -6 -6z"/>
<path d="M8639 6736 c-3 -32 -1 -42 9 -39 14 6 17 83 3 83 -5 0 -11 -20 -12
-44z"/>
<path d="M8803 6064 c3 -85 8 -158 11 -161 3 -4 6 66 6 155 0 110 -3 162 -11
162 -7 0 -9 -47 -6 -156z"/>
<path d="M4170 5969 c0 -5 5 -7 10 -4 6 3 10 8 10 11 0 2 -4 4 -10 4 -5 0 -10
-5 -10 -11z"/>
<path d="M4183 5920 c3 -11 1 -23 -4 -26 -5 -3 -9 -11 -9 -17 1 -19 30 25 30
45 0 10 -5 18 -11 18 -6 0 -9 -9 -6 -20z"/>
<path d="M8814 5700 c0 -69 1 -97 3 -62 2 34 2 90 0 125 -2 34 -3 6 -3 -63z"/>
<path d="M4170 5785 c0 -11 5 -27 10 -35 8 -12 10 -12 10 5 0 11 -5 27 -10 35
-8 12 -10 12 -10 -5z"/>
<path d="M4183 5695 c0 -22 2 -30 4 -17 2 12 2 30 0 40 -3 9 -5 -1 -4 -23z"/>
<path d="M8781 5704 c0 -11 3 -14 6 -6 3 7 2 16 -1 19 -3 4 -6 -2 -5 -13z"/>
<path d="M8763 5635 c1 -58 -3 -88 -15 -110 -21 -37 -23 -17 -3 32 18 42 19
53 4 53 -5 0 -7 -5 -4 -10 4 -6 1 -21 -7 -33 -21 -33 -39 -79 -29 -73 4 3 7
-10 5 -29 -1 -19 2 -37 7 -41 5 -3 9 2 9 10 0 9 5 16 10 16 6 0 9 3 8 8 -1 4
1 17 6 29 5 15 13 20 24 17 11 -4 13 -3 5 3 -9 6 -10 25 -4 68 5 33 6 64 3 69
-3 5 -8 23 -12 40 -5 21 -7 4 -7 -49z"/>
<path d="M8785 5670 c3 -5 8 -10 11 -10 2 0 4 5 4 10 0 6 -5 10 -11 10 -5 0
-7 -4 -4 -10z"/>
<path d="M4187 5630 c3 -11 7 -20 9 -20 2 0 4 9 4 20 0 11 -4 20 -9 20 -5 0
-7 -9 -4 -20z"/>
<path d="M4169 5598 c-4 -17 -2 -25 4 -21 7 4 8 -1 3 -13 -14 -33 -18 -62 -5
-34 11 24 11 24 19 5 8 -18 9 -18 9 -2 1 10 6 15 11 12 6 -4 8 -16 5 -28 -5
-19 -5 -20 5 -5 14 22 -5 62 -23 51 -7 -4 -6 0 2 10 12 15 12 17 -2 11 -11 -4
-16 1 -19 18 -3 22 -4 22 -9 -4z"/>
<path d="M4244 5485 c19 -28 21 -39 5 -29 -8 5 -8 1 0 -14 6 -12 17 -24 24
-28 9 -5 9 -4 0 7 -22 22 -14 33 9 13 14 -13 10 -3 -12 29 -34 48 -55 66 -26
22z"/>
<path d="M8672 5460 c-6 -11 -12 -23 -12 -27 0 -5 5 0 11 10 5 9 15 17 22 17
8 0 7 -3 -2 -9 -7 -5 -11 -13 -8 -18 4 -6 -5 -10 -21 -9 -16 0 -26 -4 -24 -12
1 -7 -3 -12 -10 -12 -6 0 -21 -9 -32 -19 -36 -33 -119 -69 -181 -80 -67 -12
-206 -10 -198 2 4 7 -86 52 -91 45 -2 -1 -8 -34 -14 -73 -16 -94 -16 -96 -51
-209 l-31 -99 36 -35 c42 -41 84 -115 84 -148 0 -26 18 -38 69 -48 18 -3 60
-20 93 -36 61 -31 83 -36 92 -21 4 5 -5 8 -19 7 -13 -2 -22 1 -19 5 7 12 41
11 49 -1 3 -5 15 -10 26 -10 14 0 18 4 12 13 -4 6 -6 19 -5 29 2 9 -7 23 -19
32 -28 19 -21 28 25 28 35 0 36 1 36 39 0 38 1 39 35 39 34 0 35 1 35 40 0 22
5 40 10 40 6 0 10 32 10 75 0 58 4 77 15 81 12 5 15 24 15 84 0 57 4 81 15 90
13 11 15 6 15 -39 0 -39 4 -51 15 -51 11 0 15 11 15 40 0 22 4 40 9 40 8 0 24
116 25 184 1 35 -15 43 -32 16z m-32 -126 c0 -7 -7 -15 -16 -18 -11 -4 -14 -1
-12 12 1 9 -1 23 -6 30 -7 11 -4 11 13 0 12 -7 21 -18 21 -24z m-113 -60 c-3
-3 -12 -4 -19 -1 -8 3 -5 6 6 6 11 1 17 -2 13 -5z m-50 -466 c-2 -13 -4 -5 -4
17 -1 22 1 32 4 23 2 -10 2 -28 0 -40z m-225 -45 c-6 -2 -10 -8 -7 -13 3 -4
-5 -6 -17 -2 -21 5 -21 6 -2 13 10 4 24 8 29 8 6 -1 4 -3 -3 -6z"/>
<path d="M4221 5424 c0 -11 3 -14 6 -6 3 7 2 16 -1 19 -3 4 -6 -2 -5 -13z"/>
<path d="M4327 5384 c4 -12 3 -15 -5 -10 -7 4 -12 2 -12 -4 0 -7 8 -9 19 -5
11 3 22 1 26 -5 4 -6 1 -11 -6 -10 -8 1 -24 -1 -36 -5 -19 -6 -23 -15 -23 -46
0 -28 4 -39 15 -39 12 0 15 -16 15 -80 0 -47 -4 -80 -10 -80 -5 0 -10 -18 -10
-40 0 -22 5 -40 10 -40 6 0 10 18 10 40 0 38 2 40 30 40 l30 0 0 -80 c0 -72 2
-80 19 -80 46 0 51 -9 51 -86 l0 -74 30 0 c18 0 33 -6 36 -15 4 -9 19 -15 40
-15 30 0 34 -3 34 -25 0 -14 6 -25 13 -25 6 0 1 -9 -13 -20 -32 -25 -17 -26
18 -1 15 10 47 27 71 38 27 13 39 22 30 26 -8 3 7 3 33 0 45 -5 47 -5 53 23
11 52 44 114 85 158 l40 43 -15 44 c-20 55 -61 219 -70 279 -9 55 -12 61 -30
54 -8 -4 -12 -11 -8 -17 3 -6 1 -7 -5 -3 -6 4 -31 -3 -54 -15 -33 -17 -60 -22
-115 -21 -40 0 -76 2 -80 5 -4 3 -24 8 -43 12 -19 4 -52 16 -73 27 -21 10 -43
16 -49 12 -6 -4 -9 -3 -6 2 3 5 -8 19 -23 32 -23 19 -28 20 -22 6z m13 -94 c0
-5 -4 -10 -9 -10 -6 0 -13 5 -16 10 -3 6 1 10 9 10 9 0 16 -4 16 -10z m110 -5
c-14 -8 -32 -14 -40 -14 -8 0 -1 7 15 14 39 18 57 18 25 0z m-20 -225 c0 -29
-4 -40 -15 -40 -11 0 -15 11 -15 40 0 29 4 40 15 40 11 0 15 -11 15 -40z m257
-306 c-3 -3 -12 -4 -19 -1 -8 3 -5 6 6 6 11 1 17 -2 13 -5z"/>
<path d="M8639 5064 c1 -24 7 -44 12 -44 14 0 11 77 -3 83 -10 3 -12 -7 -9
-39z"/>
<path d="M4470 4728 c0 -10 7 -18 15 -18 8 0 15 -5 15 -11 0 -5 5 -7 10 -4 7
4 7 12 0 24 -5 10 -7 20 -5 23 2 2 -5 4 -15 4 -13 0 -20 -7 -20 -18z"/>
<path d="M4530 4690 c0 -3 -9 -16 -21 -28 -13 -15 -19 -32 -16 -50 4 -27 4
-27 12 6 4 18 16 37 26 43 25 13 24 4 -2 -33 -12 -16 -18 -32 -15 -35 3 -4 6
-2 6 4 0 6 12 22 26 37 15 14 23 26 19 26 -5 0 -1 8 8 18 16 18 16 19 -13 19
-16 0 -30 -3 -30 -7z"/>
<path d="M8451 4630 c0 -8 4 -22 9 -30 12 -18 12 -2 0 25 -6 13 -9 15 -9 5z"/>
<path d="M8420 4616 c0 -2 8 -10 18 -17 15 -13 16 -12 3 4 -13 16 -21 21 -21
13z"/>
<path d="M8460 4551 c0 -6 4 -13 10 -16 6 -3 7 1 4 9 -7 18 -14 21 -14 7z"/>
<path d="M8501 4424 c0 -11 3 -14 6 -6 3 7 2 16 -1 19 -3 4 -6 -2 -5 -13z"/>
<path d="M8531 4254 c0 -11 3 -14 6 -6 3 7 2 16 -1 19 -3 4 -6 -2 -5 -13z"/>
<path d="M3890 3605 l0 -215 65 0 65 0 0 -405 0 -405 419 0 c368 0 421 -2 435
-16 13 -12 16 -38 16 -119 0 -111 2 -115 55 -109 58 6 56 20 58 -397 l2 -384
1425 0 1425 0 56 26 c127 60 163 134 162 334 0 126 -12 185 -53 264 -26 52
-21 71 21 71 l32 0 -6 113 c-4 62 -13 135 -21 162 -9 27 -13 52 -10 57 3 4
221 8 485 8 l479 0 0 615 0 615 -2555 0 -2555 0 0 -215z m3107 81 c63 -30 107
-87 123 -159 8 -35 10 -153 8 -352 l-3 -300 -27 -46 c-59 -100 -186 -143 -312
-105 -68 21 -114 60 -145 125 l-26 56 0 310 0 310 26 56 c42 89 111 128 229
129 59 0 86 -5 127 -24z m1201 6 c8 -6 24 -85 42 -218 85 -613 100 -722 100
-732 0 -9 -34 -12 -114 -12 l-114 0 -7 85 -7 85 -38 0 -38 0 -7 -67 c-3 -38
-7 -75 -8 -83 -2 -12 -23 -16 -106 -18 -58 -1 -110 -1 -116 2 -8 3 -8 31 1
107 7 57 31 271 54 474 23 204 46 372 51 375 14 9 294 11 307 2z m427 -200
l60 -203 3 206 2 206 93 -3 92 -3 3 -482 2 -483 -95 0 c-113 0 -93 -27 -162
226 l-48 179 -3 -202 -2 -203 -95 0 -95 0 0 485 0 486 93 -3 92 -3 60 -203z
m-4095 103 l0 -95 -65 0 -65 0 0 -385 0 -385 -115 0 -115 0 0 385 0 385 -65 0
-65 0 0 95 0 95 245 0 245 0 0 -95z m275 40 c0 -27 2 -103 3 -167 l2 -118 30
0 30 0 0 170 0 170 115 0 115 0 0 -480 0 -480 -115 0 -115 0 0 200 0 200 -30
0 -30 0 0 -200 0 -200 -115 0 -115 0 0 480 0 481 112 -3 113 -3 0 -50z m755
-40 l0 -95 -75 0 -75 0 0 -90 0 -90 70 0 70 0 0 -95 0 -95 -70 0 -71 0 3 -102
3 -103 83 -3 82 -3 0 -94 0 -95 -195 0 -195 0 0 480 0 480 185 0 185 0 0 -95z
m594 -117 c16 -117 29 -214 30 -215 1 -2 8 50 15 115 6 64 17 161 23 215 l11
97 148 0 149 0 0 -480 0 -481 -97 3 -98 3 -5 295 -5 295 -33 -290 c-18 -159
-33 -294 -32 -298 0 -4 -33 -7 -72 -5 l-73 3 -31 235 c-53 389 -51 387 -53 58
l-1 -298 -93 0 -94 0 -6 317 c-4 174 -7 390 -7 480 l0 163 148 0 148 0 28
-212z m1286 42 l0 -170 35 0 35 0 0 170 0 170 110 0 110 0 2 -415 c1 -228 2
-443 3 -477 l0 -63 -112 -3 -113 -3 0 201 0 200 -35 0 -35 0 0 -200 0 -200
-110 0 -110 0 0 313 c0 173 -3 389 -7 480 l-6 167 116 0 117 0 0 -170z m-1246
-900 c64 -24 120 -81 135 -137 6 -21 14 -78 17 -126 l7 -87 -116 0 -116 0 -3
96 c-2 77 -6 99 -20 107 -12 8 -21 7 -32 -2 -14 -12 -16 -52 -16 -317 0 -296
5 -354 32 -354 36 1 43 18 46 125 l4 105 -26 0 c-26 0 -26 1 -26 75 l0 75 135
0 135 0 0 -260 0 -260 -71 0 c-70 0 -70 0 -81 32 l-11 31 -20 -27 c-78 -108
-273 -52 -321 92 -22 64 -27 623 -8 690 17 57 82 127 135 146 62 21 156 20
221 -4z m1651 -7 c82 -43 105 -89 105 -211 l0 -73 -102 3 -103 3 -5 70 c-4 59
-8 70 -24 73 -28 6 -46 -25 -46 -79 0 -59 18 -82 118 -152 152 -107 182 -164
182 -347 0 -136 -18 -178 -100 -224 -50 -28 -63 -31 -145 -31 -76 0 -97 4
-139 25 -87 45 -116 106 -116 248 l0 82 105 0 104 0 3 -91 c3 -76 6 -94 21
-103 15 -9 22 -6 39 14 17 21 20 35 15 88 -5 71 -13 82 -102 150 -91 70 -144
123 -168 167 -19 35 -22 56 -22 161 0 115 1 122 28 163 19 29 45 50 80 67 46
22 62 25 142 21 67 -2 100 -9 130 -24z m-2385 -78 c0 -47 0 -88 0 -92 0 -5
-29 -9 -65 -11 l-65 -3 0 -384 0 -385 -110 0 -110 0 -2 383 -3 382 -67 3 -68
3 0 94 0 95 245 0 245 0 0 -85z m280 -395 l0 -480 -110 0 -110 0 0 383 c0 210
-2 426 -4 480 l-5 97 115 0 114 0 0 -480z m1070 385 l0 -95 -75 0 -75 0 0 -90
0 -90 70 0 70 0 0 -95 0 -95 -70 0 -70 0 0 -105 0 -105 85 0 85 0 0 -95 0 -95
-193 0 -194 0 -6 152 c-4 83 -7 299 -7 480 l0 328 190 0 190 0 0 -95z m439 84
c102 -22 148 -116 139 -286 -5 -96 -23 -129 -78 -148 l-33 -11 32 -13 c19 -8
42 -31 56 -56 24 -41 25 -48 25 -238 l0 -197 -105 0 -105 0 0 199 c0 171 -2
202 -16 216 -9 9 -24 15 -33 13 -14 -3 -16 -26 -14 -216 l3 -212 -115 0 -115
0 0 480 0 480 155 0 c84 0 177 -5 204 -11z"/>
<path d="M6846 3535 c-3 -9 -6 -157 -6 -330 0 -253 3 -315 14 -324 18 -15 43
-5 50 22 8 31 6 586 -3 617 -8 29 -45 39 -55 15z"/>
<path d="M8042 3349 c-7 -57 -15 -143 -18 -191 l-7 -88 37 0 c20 0 36 4 36 10
0 19 -31 355 -33 364 -2 5 -8 -38 -15 -95z"/>
<path d="M7110 2355 c0 -105 0 -105 25 -105 34 0 45 27 45 109 0 61 -3 72 -22
85 -44 31 -48 23 -48 -89z"/>
</g>
</svg>
