<?xml version="1.0" standalone="no"?>
<!DOCTYPE svg PUBLIC "-//W3C//DTD SVG 20010904//EN"
 "http://www.w3.org/TR/2001/REC-SVG-20010904/DTD/svg10.dtd">
<svg version="1.0" xmlns="http://www.w3.org/2000/svg"
 width="1179.000000pt" height="931.000000pt" viewBox="0 0 1179.000000 931.000000"
 preserveAspectRatio="xMidYMid meet">

<g transform="translate(0.000000,931.000000) scale(0.100000,-0.100000)"
fill="#000000" stroke="none">
<path d="M0 4655 l0 -4655 5895 0 5895 0 0 4655 0 4655 -5895 0 -5895 0 0
-4655z m6011 1965 c57 -40 148 -104 202 -142 l97 -70 0 -394 0 -394 220 -146
220 -145 2 -596 3 -595 60 -24 c33 -13 63 -28 67 -32 5 -5 7 -105 6 -222 l-3
-215 -22 25 c-22 23 -23 31 -23 210 l0 186 -35 17 c-19 9 -53 20 -75 23 l-40
7 0 -123 c0 -122 0 -123 -20 -105 -18 16 -20 31 -20 123 0 85 -3 103 -14 99
-8 -3 -45 -9 -83 -12 -56 -6 -71 -4 -82 9 -17 20 -17 20 132 42 l117 17 0 576
0 576 -213 140 c-116 77 -218 141 -224 143 -10 3 -13 -128 -13 -630 l0 -633
-55 60 -54 60 -43 -45 c-24 -25 -65 -70 -91 -100 l-47 -55 0 572 c0 483 2 573
14 580 8 4 75 60 150 123 l135 115 1 370 0 370 -187 130 c-102 72 -190 132
-195 133 -4 2 -8 -16 -8 -39 l0 -43 -29 28 -29 28 26 39 c15 21 32 37 38 35 6
-2 57 -37 115 -76z m-234 -2594 c-8 -6 -69 -74 -138 -151 -68 -77 -141 -158
-161 -180 l-38 -40 0 362 0 363 -40 25 c-22 14 -42 25 -45 25 -3 0 -5 -182 -5
-405 0 -223 -2 -405 -5 -405 -3 0 -16 12 -29 27 -19 22 -23 36 -20 77 2 27 1
53 -2 57 -3 5 -20 1 -39 -8 -32 -16 -36 -15 -55 2 -25 22 -22 27 45 65 54 31
55 33 55 76 0 24 -4 44 -9 44 -4 0 -45 -21 -90 -46 l-82 -46 -19 22 c-11 13
-20 24 -20 26 0 2 49 31 108 64 l109 61 1 44 c1 24 -2 46 -6 49 -5 3 -24 -5
-43 -18 -68 -45 -169 -97 -178 -92 -13 8 -4 59 12 69 7 4 57 34 112 65 97 56
100 58 103 96 2 21 0 42 -5 47 -4 4 -55 -19 -112 -52 -110 -64 -123 -64 -116
-7 2 15 6 31 9 36 3 4 68 48 145 96 l140 88 38 -26 38 -26 5 906 5 907 170
197 170 196 3 -1289 c2 -1062 0 -1292 -11 -1301z m258 2255 c10 -33 -5 -51
-41 -51 -32 0 -34 2 -34 35 0 33 2 35 34 35 25 0 36 -5 41 -19z m143 -134 l3
-37 -40 0 -41 0 0 41 0 40 38 -3 c35 -4 37 -6 40 -41z m-148 -32 c0 -34 -1
-35 -40 -35 -39 0 -40 1 -40 35 0 34 1 35 40 35 39 0 40 -1 40 -35z m438 -790
l3 -67 -63 35 -63 35 -3 67 -3 66 63 -35 63 -34 3 -67z m-1533 6 l200 -118 3
-380 2 -381 -95 -57 -95 -58 0 -133 c0 -74 -3 -134 -7 -133 -5 0 -57 56 -116
124 l-108 124 -2 565 c-1 372 1 566 8 566 6 -1 100 -54 210 -119z m2181 -18
c92 -76 184 -151 205 -168 l38 -30 0 -420 1 -420 -115 -95 -115 -94 0 -169 0
-169 -61 -69 c-53 -60 -66 -69 -95 -69 l-34 0 0 920 c0 506 2 920 5 920 3 0
80 -62 171 -137z m-496 -5 c33 -17 60 -38 62 -46 5 -25 -4 -112 -11 -112 -4 0
-31 15 -61 33 l-55 32 -1 63 c-1 34 0 62 3 62 2 0 31 -14 63 -32z m-150 -255
c0 -35 -2 -63 -4 -63 -2 0 -31 14 -65 30 l-61 31 0 64 0 65 65 -32 65 -32 0
-63z m150 -13 l60 -30 0 -65 c0 -36 -2 -65 -4 -65 -3 0 -32 16 -65 35 l-61 36
0 59 c0 33 2 60 5 60 3 0 32 -14 65 -30z m-209 -171 l59 -32 0 -64 c0 -36 -4
-63 -8 -61 -5 2 -34 17 -65 33 l-57 30 0 63 c0 34 3 62 6 62 3 0 33 -14 65
-31z m209 -98 l55 -28 3 -67 3 -67 -49 25 c-73 37 -82 49 -82 112 0 30 3 54 8
54 4 0 32 -13 62 -29z m-152 -276 l3 -67 -63 34 -63 35 -3 66 -3 66 63 -34 63
-33 3 -67z m160 5 l52 -30 0 -65 0 -65 -62 34 -63 34 -3 61 c-3 72 1 74 76 31z
m1013 -154 c-4 -24 -28 -59 -82 -118 -41 -46 -131 -146 -199 -223 -67 -77
-127 -141 -131 -143 -5 -2 -9 31 -9 73 0 88 -18 63 174 235 71 63 154 138 185
167 31 28 59 50 62 47 3 -2 3 -19 0 -38z m-1041 -341 c0 -19 -1 -35 -3 -35 -2
0 -17 16 -34 35 l-31 35 34 0 c32 0 34 -2 34 -35z m-1900 -175 c3 -3 84 -93
180 -200 96 -107 187 -208 202 -224 27 -30 27 -30 8 -56 -40 -56 -39 -57 -150
71 -58 67 -116 133 -130 149 -14 15 -67 75 -119 134 -51 58 -96 106 -100 105
-3 0 -67 -70 -141 -156 -74 -85 -175 -200 -224 -256 -49 -56 -105 -120 -125
-142 -20 -22 -90 -101 -156 -175 -66 -74 -126 -142 -134 -150 -13 -13 -6 -15
62 -18 l77 -3 0 -39 0 -40 -182 0 -182 0 25 28 c14 15 70 77 124 137 54 61
121 135 149 165 29 30 87 96 131 145 102 116 136 154 215 240 93 101 216 238
294 326 l67 76 52 -56 c29 -31 54 -58 57 -61z m1577 -12 c59 -68 110 -125 113
-128 16 -14 737 -815 759 -843 13 -16 3 -17 -168 -17 l-181 0 0 40 0 40 75 0
c41 0 75 3 75 6 0 5 -38 49 -194 224 -17 19 -121 136 -231 260 -109 124 -202
227 -205 230 -4 4 -136 154 -156 179 -4 4 -81 -78 -155 -166 -38 -44 -107
-122 -299 -338 -19 -21 -55 -62 -80 -90 -124 -138 -260 -294 -260 -299 0 -3
34 -6 75 -6 l75 0 0 -40 0 -40 -181 0 c-176 0 -180 0 -167 19 13 19 189 216
313 351 33 36 82 90 109 120 449 499 559 620 566 620 5 0 57 -55 117 -122z
m1705 -111 c236 -264 431 -481 492 -547 22 -25 82 -90 131 -145 50 -55 92
-102 95 -105 3 -3 21 -22 39 -43 l35 -37 -187 0 -187 0 0 40 0 40 81 0 81 0
-63 73 c-35 39 -100 113 -144 162 -44 50 -145 164 -225 255 -208 234 -330 372
-350 393 -16 18 -26 8 -220 -210 -111 -125 -215 -243 -231 -260 -16 -18 -33
-33 -37 -33 -5 0 -21 13 -37 30 l-28 29 59 68 c32 37 127 142 209 233 83 91
174 193 203 228 30 34 59 62 65 61 7 0 105 -105 219 -232z m-3412 -272 l0 -95
-55 0 -55 0 0 44 c0 25 5 57 10 73 12 33 57 73 83 73 15 0 17 -11 17 -95z m84
83 c38 -17 57 -54 63 -119 l6 -59 -57 0 -56 0 0 95 c0 54 4 95 10 95 5 0 20
-5 34 -12z m1486 -83 l0 -95 -60 0 -60 0 0 41 c0 71 53 149 101 149 17 0 19
-9 19 -95z m93 75 c31 -24 60 -96 55 -136 -3 -28 -5 -29 -60 -32 l-58 -3 0 96
c0 86 2 95 19 95 10 0 30 -9 44 -20z m1517 -75 l0 -95 -55 0 -55 0 0 53 c0 70
44 136 93 137 15 0 17 -11 17 -95z m91 78 c37 -22 59 -69 59 -127 l0 -46 -55
0 -55 0 0 95 c0 102 3 106 51 78z m-3271 -288 l0 -75 -55 0 -55 0 0 75 0 75
55 0 55 0 0 -75z m150 0 l0 -75 -55 0 -55 0 0 75 0 75 55 0 55 0 0 -75z m1420
0 l0 -75 -60 0 -60 0 0 75 0 75 60 0 60 0 0 -75z m150 0 l0 -75 -60 0 -60 0 0
75 0 75 60 0 60 0 0 -75z m1460 0 l0 -75 -55 0 -55 0 0 75 0 75 55 0 55 0 0
-75z m150 0 l0 -75 -55 0 -55 0 0 75 0 75 55 0 55 0 0 -75z m-3142 -132 c3
-10 -34 -13 -162 -13 -152 0 -179 4 -159 24 4 3 76 5 162 4 113 -2 155 -6 159
-15z m1565 2 c-3 -10 -296 -20 -321 -10 -7 3 -10 10 -7 15 9 14 331 9 328 -5z
m1605 -2 c3 -10 -34 -13 -162 -13 -142 0 -166 2 -166 15 0 13 22 15 162 13
118 -2 162 -6 166 -15z m-4687 -1423 c20 -50 34 -90 30 -91 -44 -6 -50 -4 -49
10 3 44 -2 51 -37 51 -41 0 -55 -21 -36 -53 11 -17 11 -19 -4 -13 -9 3 -21 6
-27 6 -7 0 -7 4 -1 13 5 6 25 49 43 94 19 46 36 81 38 78 3 -3 22 -46 43 -95z
m152 93 c-9 -3 -13 -31 -13 -88 0 -95 13 -111 61 -76 26 19 27 19 22 1 -7 -25
-27 -31 -82 -24 l-46 6 3 79 c2 52 -1 85 -8 95 -11 12 -6 14 31 13 24 0 38 -3
32 -6z m173 -6 c-14 -10 -16 -25 -14 -87 3 -75 3 -75 33 -78 19 -3 33 2 42 14
12 17 13 16 13 -4 0 -12 -6 -22 -12 -22 -99 -4 -128 -4 -128 2 0 4 5 10 10 13
6 3 10 39 10 80 0 60 -3 76 -17 84 -14 8 -7 10 31 11 43 0 47 -2 32 -13z m344
-9 c0 -20 -1 -21 -13 -4 -7 10 -22 17 -33 14 -16 -3 -19 -13 -22 -77 -2 -42 2
-79 8 -85 17 -17 12 -21 -25 -22 -24 0 -32 3 -25 10 5 5 10 47 10 93 0 80 -1
83 -23 83 -15 0 -28 -9 -35 -22 -10 -23 -11 -23 -11 5 l-1 27 85 0 c81 0 85
-1 85 -22z m104 5 c-3 -10 5 -34 18 -53 12 -20 20 -47 19 -63 -1 -15 3 -35 9
-43 10 -12 8 -14 -17 -14 -27 0 -29 2 -25 34 4 33 -24 102 -56 139 -14 16 -13
17 21 17 28 0 34 -3 31 -17z m100 2 c-12 -8 -27 -28 -34 -45 -7 -17 -15 -29
-17 -26 -2 2 3 18 11 35 15 28 15 31 -2 40 -14 8 -9 10 23 11 37 0 38 -1 19
-15z m171 -10 c14 -13 25 -29 25 -35 0 -21 -49 -60 -76 -60 -25 0 -26 -2 -22
-38 5 -35 4 -37 -21 -36 -17 1 -24 6 -21 15 2 8 4 47 5 87 0 54 -4 75 -15 82
-10 7 3 10 43 10 48 0 62 -4 82 -25z m195 3 c-1 -21 -2 -21 -11 -5 -6 10 -22
17 -39 17 -28 0 -30 -2 -30 -40 0 -35 3 -40 23 -40 13 0 28 5 35 12 9 9 12 6
12 -17 0 -23 -3 -26 -12 -17 -7 7 -22 12 -35 12 -20 0 -23 -5 -23 -40 0 -29 4
-40 15 -40 8 0 15 -3 15 -8 0 -4 -17 -6 -37 -4 l-38 4 3 85 c3 63 0 88 -10 94
-8 5 16 9 60 9 68 0 72 -1 72 -22z m269 7 c33 -16 41 -33 41 -81 0 -46 -14
-70 -52 -90 -80 -41 -168 38 -134 120 26 62 85 83 145 51z m224 -5 c6 -24 -8
-27 -17 -4 -4 10 -15 14 -33 12 -28 -3 -28 -3 -30 -85 -1 -48 2 -83 7 -83 6 0
10 -4 10 -10 0 -5 -10 -8 -22 -6 -13 3 -25 5 -28 5 -3 1 -3 38 -1 83 3 70 1
84 -15 95 -15 11 -8 13 53 13 62 0 71 -2 76 -20z m235 4 c43 -30 20 -89 -40
-101 -28 -6 -30 -8 -25 -43 4 -34 3 -36 -22 -32 -26 3 -26 4 -23 83 2 52 -1
85 -8 95 -11 12 -4 14 42 14 32 0 62 -6 76 -16z m190 0 c26 -18 28 -46 6 -69
-15 -15 -15 -19 2 -52 11 -19 25 -37 32 -40 22 -9 12 -21 -12 -15 -14 4 -38
25 -54 48 -29 39 -29 41 -9 50 38 17 27 84 -14 84 -19 0 -20 -5 -17 -90 l3
-90 -25 0 c-25 0 -25 0 -22 86 3 64 0 89 -10 95 -8 5 8 9 42 9 34 0 64 -6 78
-16z m243 -13 c21 -21 29 -39 29 -64 0 -50 -7 -64 -46 -88 -84 -52 -182 35
-139 124 30 63 107 77 156 28z m197 13 c47 -33 15 -104 -47 -104 -22 0 -23 -3
-19 -38 5 -37 5 -38 -23 -34 -16 2 -26 9 -22 14 11 19 3 162 -10 170 -7 4 13
8 43 8 34 0 64 -6 78 -16z m202 -6 c0 -20 -1 -21 -13 -4 -8 11 -23 17 -38 14
-20 -2 -25 -9 -27 -40 -3 -34 -1 -38 20 -38 13 0 29 5 36 12 9 9 12 6 12 -17
0 -23 -3 -26 -12 -17 -7 7 -22 12 -35 12 -20 0 -23 -5 -23 -40 0 -34 3 -40 22
-40 35 0 14 -10 -30 -14 -40 -4 -54 5 -32 19 17 11 12 141 -6 159 -14 15 -9
16 55 16 66 0 71 -1 71 -22z m178 6 c26 -18 29 -59 5 -73 -18 -10 -13 -29 23
-78 16 -22 15 -23 -5 -23 -14 0 -30 14 -47 42 -23 36 -24 42 -10 50 21 12 22
74 0 82 -33 13 -35 6 -32 -83 l3 -89 -32 -4 c-22 -3 -30 -1 -23 6 15 15 13
173 -2 179 -7 3 12 6 42 6 35 1 64 -5 78 -15z m232 -1 c0 -13 -3 -14 -12 -5
-7 7 -20 12 -31 12 -17 0 -18 -8 -15 -89 l3 -89 -32 -4 c-18 -2 -33 0 -33 4 0
4 5 8 10 8 6 0 10 35 10 85 0 78 -2 85 -19 85 -11 0 -27 -10 -35 -22 l-16 -22
0 27 0 27 85 0 c73 0 85 -2 85 -17z m111 8 c-13 -8 -12 -15 4 -45 22 -41 31
-44 40 -15 4 11 9 19 11 16 2 -2 -2 -20 -11 -39 -14 -34 -14 -66 0 -88 4 -6
-6 -10 -22 -10 -27 0 -28 2 -25 43 3 34 -3 51 -32 95 l-35 52 42 0 c29 0 38
-3 28 -9z m89 -11 c-11 -11 -23 -20 -27 -20 -3 0 -3 3 0 7 4 3 2 12 -4 20 -9
10 -5 13 20 13 l31 0 -20 -20z m213 -1 c5 -19 4 -20 -12 -5 -23 21 -57 20 -66
-1 -6 -18 10 -36 64 -73 54 -37 6 -109 -64 -96 -30 6 -35 11 -34 34 0 27 0 27
11 4 12 -23 49 -39 67 -27 23 13 9 44 -34 79 -25 21 -45 44 -45 52 0 47 102
77 113 33z m153 -42 c20 -63 43 -109 58 -119 6 -4 -5 -8 -25 -8 -23 0 -37 5
-36 13 1 41 -3 47 -37 47 -26 0 -36 -5 -41 -20 -3 -11 -3 -24 0 -30 3 -5 -3
-10 -14 -10 -19 0 -19 1 -1 38 9 20 20 44 23 52 4 12 6 11 6 -2 1 -12 9 -18
26 -18 29 0 28 -2 14 38 -6 18 -15 30 -20 27 -4 -3 -3 8 2 25 14 39 24 32 45
-33z m167 56 c-9 -3 -13 -31 -13 -88 0 -57 4 -85 13 -88 6 -3 -4 -6 -23 -6
l-35 -1 3 81 c2 52 -1 85 -8 95 -11 12 -6 14 31 13 24 0 38 -3 32 -6z m237 3
c0 -2 3 -13 7 -23 6 -17 6 -17 -14 0 -12 10 -32 17 -45 15 -19 -2 -24 -10 -26
-40 -3 -36 -2 -38 27 -38 16 0 32 6 34 13 3 6 5 -1 5 -18 0 -16 -2 -24 -5 -17
-8 19 -59 15 -61 -5 -2 -36 9 -63 26 -64 9 -1 -1 -5 -23 -8 -38 -7 -72 -2 -47
7 8 2 12 30 12 82 0 65 -3 81 -17 89 -14 8 0 10 55 11 39 0 72 -2 72 -4z m248
-12 c46 -32 15 -104 -45 -104 -19 0 -23 -5 -23 -29 0 -16 6 -32 13 -34 6 -3 0
-6 -15 -6 -16 -1 -31 0 -34 2 -4 1 -6 40 -5 86 2 60 -1 86 -11 92 -8 5 9 9 42
9 34 0 64 -6 78 -16z m134 4 c-7 -7 -12 -40 -12 -78 0 -72 10 -90 50 -90 41 0
50 17 50 96 0 61 -3 73 -17 77 -10 3 0 5 22 6 30 1 36 -2 27 -11 -7 -7 -12
-28 -12 -47 -1 -57 -17 -114 -37 -125 -32 -18 -69 -17 -94 2 -20 17 -24 31
-27 93 -3 41 -9 77 -16 81 -6 4 9 8 34 8 34 0 41 -3 32 -12z m286 -4 c25 -17
30 -62 7 -70 -22 -9 -18 -26 16 -74 22 -30 26 -41 14 -37 -9 4 -21 7 -26 7 -5
0 -20 18 -34 40 -34 53 -49 52 -43 -3 5 -42 4 -44 -20 -42 -25 1 -25 1 -23 89
2 65 -1 91 -11 97 -8 5 9 9 42 9 34 0 64 -6 78 -16z m246 0 c11 -29 6 -39 -10
-16 -22 32 -76 30 -103 -4 -46 -58 -6 -154 64 -154 7 0 23 12 34 26 15 18 21
22 21 11 0 -32 -31 -49 -77 -44 -49 5 -88 35 -98 74 -9 36 11 86 43 105 36 23
118 24 126 2z m118 7 c-10 -6 -13 -31 -10 -95 3 -86 3 -86 -22 -86 -25 0 -25
0 -22 86 3 64 0 89 -10 95 -8 6 4 9 32 9 28 0 40 -3 32 -9z m123 -8 c-14 -14
-17 -31 -13 -98 l4 -81 -29 4 c-16 3 -24 7 -19 11 6 3 11 41 10 84 0 61 -3 79
-16 87 -13 7 -5 9 31 10 45 0 47 -1 32 -17z m158 -35 c28 -82 49 -128 59 -128
5 0 7 -4 4 -8 -8 -13 -64 -2 -63 11 1 42 -4 47 -38 47 -40 0 -55 -21 -37 -50
9 -15 7 -18 -14 -16 -13 0 -24 1 -24 2 0 9 49 95 49 87 1 -7 13 -13 27 -13 22
0 24 3 19 23 -4 12 -13 26 -20 31 -9 7 -10 17 -3 38 6 15 13 28 17 28 3 0 14
-24 24 -52z m210 30 c5 -21 5 -21 -7 -5 -25 33 -85 13 -66 -23 5 -10 25 -27
45 -39 43 -25 49 -70 13 -95 -41 -29 -80 -19 -93 24 -7 25 -7 25 15 -3 28 -35
64 -34 68 4 2 20 -5 30 -35 50 -65 41 -51 109 22 109 26 0 34 -5 38 -22z m185
-3 c2 -18 2 -18 -8 -2 -6 10 -23 17 -40 17 -28 0 -30 -2 -30 -40 0 -35 3 -40
23 -40 13 0 28 5 35 12 9 9 12 6 12 -17 0 -23 -3 -26 -12 -17 -7 7 -22 12 -35
12 -20 0 -23 -5 -23 -40 0 -40 0 -40 38 -40 30 0 41 5 50 23 6 13 11 16 11 7
1 -31 -16 -39 -82 -42 -37 -2 -67 0 -67 5 0 4 5 7 10 7 6 0 10 33 10 80 0 65
-3 81 -17 89 -14 8 0 10 52 8 61 -2 70 -4 73 -22z m-4168 -71 c0 -22 -2 -24
-15 -14 -11 9 -12 15 -2 25 16 19 17 19 17 -11z m3547 0 c-3 -3 -12 -4 -19 -1
-8 3 -5 6 6 6 11 1 17 -2 13 -5z m-2452 -77 c-7 -17 -45 -31 -45 -16 0 5 6 9
14 9 8 0 17 7 20 16 4 9 9 15 11 12 3 -3 3 -12 0 -21z m1382 0 c-6 -16 -47
-30 -47 -16 0 5 7 9 15 9 9 0 18 7 22 15 3 9 8 14 10 11 3 -3 3 -11 0 -19z
m-2947 -2 c0 -9 -9 -15 -22 -14 -17 1 -19 2 -5 6 9 2 17 9 17 14 0 5 2 9 5 9
3 0 5 -7 5 -15z m2760 1 c0 -7 -9 -16 -20 -19 -25 -6 -26 1 -2 19 22 17 22 17
22 0z"/>
<path d="M3171 1692 c-17 -32 -13 -42 14 -42 28 0 30 5 11 39 -13 24 -14 24
-25 3z"/>
<path d="M4210 1710 c0 -47 2 -51 22 -48 28 4 47 51 32 76 -6 9 -21 18 -33 20
-19 3 -21 -1 -21 -48z"/>
<path d="M4656 1744 c-24 -24 -22 -118 4 -144 44 -44 92 -10 92 65 0 79 -53
123 -96 79z"/>
<path d="M5140 1710 c0 -33 4 -50 13 -50 21 0 35 14 42 43 8 32 -8 57 -36 57
-16 0 -19 -8 -19 -50z"/>
<path d="M5530 1739 c-15 -27 -15 -101 -1 -128 7 -11 23 -24 38 -27 42 -11 66
27 61 93 -3 28 -10 59 -17 67 -20 23 -68 20 -81 -5z"/>
<path d="M5770 1710 c0 -41 3 -50 18 -50 25 0 42 20 42 50 0 30 -17 50 -42 50
-15 0 -18 -9 -18 -50z"/>
<path d="M7600 1716 c0 -50 10 -62 40 -46 38 20 21 90 -22 90 -15 0 -18 -8
-18 -44z"/>
<path d="M8020 1715 c0 -42 2 -46 23 -43 19 3 22 9 22 43 0 34 -3 40 -22 43
-21 3 -23 -1 -23 -43z"/>
</g>
</svg>
