<?xml version="1.0" encoding="UTF-8"?>
<svg version="1.1" xmlns="http://www.w3.org/2000/svg" width="500" height="500">
<path d="M0 0 C165 0 330 0 500 0 C500 165 500 330 500 500 C335 500 170 500 0 500 C0 335 0 170 0 0 Z " fill="#FEFBF4" transform="translate(0,0)"/>
<path d="M0 0 C3.0386642 2.60456932 4.63305721 5.24090731 6 9 C5.90551758 11.11450195 5.90551758 11.11450195 5.58203125 13.48828125 C4.91570799 19.21792907 4.88749443 24.86281974 4.9375 30.625 C4.94201172 31.62917969 4.94652344 32.63335937 4.95117188 33.66796875 C4.96281033 36.11204471 4.9791576 38.5559882 5 41 C8.01896209 38.15971878 9.79462031 34.95994876 11.6875 31.3125 C12.00783203 30.70599609 12.32816406 30.09949219 12.65820312 29.47460938 C13.44371484 27.98565434 14.22252942 26.49316953 15 25 C15.33 25.66 15.66 26.32 16 27 C16.99257812 26.28714844 17.98515625 25.57429688 19.0078125 24.83984375 C40.4761076 9.61261075 60.25775326 2.53055539 86.625 5.625 C94.85754867 7.05765034 102.84203076 10.32682638 110.24609375 14.1640625 C112.96952448 15.46208962 115.03525125 15.37059359 118 15 C121.58248809 12.33872313 123.17639433 9.01193247 125 5 C126.32 5 127.64 5 129 5 C129.70953165 9.64299774 130.20810948 14.23468662 130.5 18.921875 C130.5825 20.19417969 130.665 21.46648437 130.75 22.77734375 C130.87566315 24.77420968 131.00130555 26.77107756 131.125 28.76806641 C131.24661824 30.71538342 131.37323775 32.66238607 131.5 34.609375 C131.5721875 35.76405273 131.644375 36.91873047 131.71875 38.10839844 C131.89790211 41.06521089 131.89790211 41.06521089 133 44 C133.22373872 46.99621866 133.18513857 49.99625668 133.1875 53 C133.19974609 53.81984375 133.21199219 54.6396875 133.22460938 55.484375 C133.22654297 56.27328125 133.22847656 57.0621875 133.23046875 57.875 C133.23457764 58.59429687 133.23868652 59.31359375 133.24291992 60.0546875 C133 62 133 62 131 65 C130.47931647 67.52242244 130.06643648 69.95194699 129.75 72.5 C129.65992676 73.20962891 129.56985352 73.91925781 129.47705078 74.65039062 C128.81084627 80.78335026 129.49848278 85.99393113 131 92 C134.96 87.71 138.92 83.42 143 79 C143 82 143 82 140.5625 84.5 C139.716875 85.325 138.87125 86.15 138 87 C137.67 87.99 137.34 88.98 137 90 C137.66 90 138.32 90 139 90 C139.33 89.34 139.66 88.68 140 88 C140.33 89.98 140.66 91.96 141 94 C141.33 94 141.66 94 142 94 C142 95.65 142 97.3 142 99 C145.36207429 95.89340248 147.66160845 92.16644098 150.18359375 88.375 C151.94388266 86.07337493 153.60405075 84.60081005 156 83 C156.34654062 86.63867652 156.1496871 88.70062581 154.5 92 C151.41834176 95.69798989 147.95364947 98.29386128 144 101 C148.3984746 101 153.75965607 98.53560306 157.75 96.8125 C160.57808767 95.79124612 163.01798756 95.86130175 166 96 C165.76315386 99.19742287 164.70476035 100.34066114 162.5625 102.8125 C160.40373711 104.53430847 159.38158532 105.00185536 156.58984375 104.98828125 C154.85870289 104.74545154 153.12943951 104.48885219 151.40234375 104.21875 C147.8235214 103.89287349 145.85666747 104.90975551 143 107 C141.11868431 109.54788853 141.11868431 109.54788853 140 112 C141.32 112.33 142.64 112.66 144 113 C144 114.65 144 116.3 144 118 C140.71303767 118.79953138 139.28976808 119.09658936 136 118 C136.99 117.01 137.98 116.02 139 115 C137.02 115.99 137.02 115.99 135 117 C135 117.33 135 117.66 135 118 C133.9275 118.0825 132.855 118.165 131.75 118.25 C127.66499825 119.06700035 126.65108323 119.9561637 124 123 C123.34 123 122.68 123 122 123 C121.8453125 123.928125 121.8453125 123.928125 121.6875 124.875 C121 127 121 127 118 129 C117.03929566 131.88211302 116.89418117 133.69850044 116.9375 136.6875 C116.94652344 137.49574219 116.95554687 138.30398438 116.96484375 139.13671875 C116.97644531 139.75160156 116.98804688 140.36648438 117 141 C122.70711259 140.28661093 124.85275174 138.39906732 128.4375 133.875 C129.64143484 132.26213852 130.83446748 130.6408276 132 129 C133.32 129.66 134.64 130.32 136 131 C133.75302336 137.54867525 129.18968833 142.60061293 125 148 C123.8553125 149.5778125 123.8553125 149.5778125 122.6875 151.1875 C109.0280676 165.48225483 91.80103048 171.94448432 72.36035156 172.42456055 C48.8484829 172.52646838 30.92925572 166.31056585 13.83203125 149.921875 C-2.51716617 132.84534384 -8.66646392 109.00038564 -8.2734375 85.92578125 C-7.77794268 73.57520484 -4.52290877 62.51704668 0.76806641 51.4362793 C2.94329551 46.69070876 3.48959622 43.44334164 2.47265625 38.3671875 C1.12853604 31.63547802 2.02297748 24.71702982 3 18 C3.43836714 11.78315693 3.29268237 7.48780394 0 2 C0 1.34 0 0.68 0 0 Z " fill="#FCFAF3" transform="translate(171,183)"/>
<path d="M0 0 C3.0386642 2.60456932 4.63305721 5.24090731 6 9 C5.90551758 11.11450195 5.90551758 11.11450195 5.58203125 13.48828125 C4.91570799 19.21792907 4.88749443 24.86281974 4.9375 30.625 C4.94201172 31.62917969 4.94652344 32.63335937 4.95117188 33.66796875 C4.96281033 36.11204471 4.9791576 38.5559882 5 41 C8.01896209 38.15971878 9.79462031 34.95994876 11.6875 31.3125 C12.00783203 30.70599609 12.32816406 30.09949219 12.65820312 29.47460938 C13.44371484 27.98565434 14.22252942 26.49316953 15 25 C15.33 25.66 15.66 26.32 16 27 C16.99257812 26.28714844 17.98515625 25.57429688 19.0078125 24.83984375 C40.4761076 9.61261075 60.25775326 2.53055539 86.625 5.625 C94.85754867 7.05765034 102.84203076 10.32682638 110.24609375 14.1640625 C112.96952448 15.46208962 115.03525125 15.37059359 118 15 C121.58248809 12.33872313 123.17639433 9.01193247 125 5 C126.32 5 127.64 5 129 5 C129.70953165 9.64299774 130.20810948 14.23468662 130.5 18.921875 C130.5825 20.19417969 130.665 21.46648437 130.75 22.77734375 C130.87566315 24.77420968 131.00130555 26.77107756 131.125 28.76806641 C131.24661824 30.71538342 131.37323775 32.66238607 131.5 34.609375 C131.5721875 35.76405273 131.644375 36.91873047 131.71875 38.10839844 C131.89790211 41.06521089 131.89790211 41.06521089 133 44 C133.22373872 46.99621866 133.18513857 49.99625668 133.1875 53 C133.19974609 53.81984375 133.21199219 54.6396875 133.22460938 55.484375 C133.22654297 56.27328125 133.22847656 57.0621875 133.23046875 57.875 C133.23457764 58.59429687 133.23868652 59.31359375 133.24291992 60.0546875 C133 62 133 62 131 65 C130.38605779 67.73457747 129.84714777 70.42928983 129.375 73.1875 C129.2409375 73.93708984 129.106875 74.68667969 128.96875 75.45898438 C128.63954581 77.30487928 128.31893502 79.15230309 128 81 C127.72414063 80.41734375 127.44828125 79.8346875 127.1640625 79.234375 C126.04344446 77.08339003 124.80424386 75.20580738 123.375 73.25 C122.92898438 72.63640625 122.48296875 72.0228125 122.0234375 71.390625 C121.51683594 70.70226562 121.51683594 70.70226562 121 70 C121.33 69.34 121.66 68.68 122 68 C123.32 68.66 124.64 69.32 126 70 C127.17348213 66.47955362 126.83679382 64.57539179 126 61 C125.34 60.34 124.68 59.68 124 59 C123.01 59.99 123.01 59.99 122 61 C122 58.03 122 55.06 122 52 C123.98 53.98 123.98 53.98 126 56 C125.50526702 50.57884144 124.07559695 46.41143897 121.4375 41.625 C120.90068604 40.64382202 120.90068604 40.64382202 120.35302734 39.64282227 C115.0532283 30.25384406 108.76957619 23.72675083 99 19 C98.1646875 18.58621094 97.329375 18.17242187 96.46875 17.74609375 C89.68525834 14.94887808 83.11740438 14.61936485 75.875 14.5625 C74.95686523 14.55234863 74.03873047 14.54219727 73.09277344 14.53173828 C64.74055161 14.63797399 57.21194327 16.59326684 49.75 20.375 C48.98171875 20.75398438 48.2134375 21.13296875 47.421875 21.5234375 C33.87212064 29.78441677 26.91059803 44.95114161 23.00390625 59.78125 C17.25702838 85.51846379 17.41952852 114.63212431 31.25 137.875 C39.45551551 149.85821537 51.4823681 156.81923261 65.5 159.9375 C81.88304633 162.67083726 96.76944 160.92008542 111 152 C119.50802805 145.55770716 125.80619131 137.57190877 132 129 C133.32 129.66 134.64 130.32 136 131 C133.75302336 137.54867525 129.18968833 142.60061293 125 148 C123.8553125 149.5778125 123.8553125 149.5778125 122.6875 151.1875 C109.0280676 165.48225483 91.80103048 171.94448432 72.36035156 172.42456055 C48.8484829 172.52646838 30.92925572 166.31056585 13.83203125 149.921875 C-2.51716617 132.84534384 -8.66646392 109.00038564 -8.2734375 85.92578125 C-7.77794268 73.57520484 -4.52290877 62.51704668 0.76806641 51.4362793 C2.94329551 46.69070876 3.48959622 43.44334164 2.47265625 38.3671875 C1.12853604 31.63547802 2.02297748 24.71702982 3 18 C3.43836714 11.78315693 3.29268237 7.48780394 0 2 C0 1.34 0 0.68 0 0 Z " fill="#060606" transform="translate(171,183)"/>
<path d="M0 0 C5.01340907 -0.09038509 8.50319863 0.24681716 13.125 2.25 C14.11757813 2.66765625 15.11015625 3.0853125 16.1328125 3.515625 C21.83508857 6.46775702 21.83508857 6.46775702 24 9 C24.71225267 12.75897897 24.61137594 16.43683937 24.5 20.25 C24.48227539 21.32523926 24.46455078 22.40047852 24.44628906 23.50830078 C23.95637574 41.91307822 20.23816699 58.17421643 7.20703125 71.88671875 C-1.69061666 79.96993665 -12.01662037 82.47799706 -23.81640625 82.24609375 C-31.73342427 81.6341034 -37.65534038 78.92402651 -43 73 C-46.08533877 68.42175538 -46.77457165 64.37896981 -46 59 C-44.21711438 53.84944153 -41.86987836 51.43493918 -37 49 C-33.34003603 48.55053074 -30.89460211 48.67270655 -27.4375 49.9375 C-22.20836529 54.36215245 -19.26072763 60.33260526 -16.5 66.5 C-14.67309785 70.32589223 -14.67309785 70.32589223 -11 72.4375 C-6.7881998 71.82327914 -5.53318292 70.37757723 -3 67 C-0.33993085 60.26010951 -0.6507627 53.35396863 -0.5859375 46.19140625 C-0.56720174 44.85618424 -0.54762658 43.52097377 -0.5272522 42.18577576 C-0.47617881 38.69246257 -0.43642153 35.19911109 -0.39910889 31.70562744 C-0.35891262 28.1324333 -0.30789202 24.55939499 -0.2578125 20.98632812 C-0.16134743 13.99099961 -0.07684969 6.99557078 0 0 Z " fill="#040404" transform="translate(251,207)"/>
<path d="M0 0 C24.42 0 48.84 0 74 0 C74 1.65 74 3.3 74 5 C73.13117188 5.03738281 72.26234375 5.07476562 71.3671875 5.11328125 C60.97114926 5.62621473 60.97114926 5.62621473 52.6875 11.4375 C50.08359565 15.39157698 49.87117007 18.73417285 49.79467773 23.41113281 C49.77473251 24.49195129 49.75478729 25.57276978 49.73423767 26.68634033 C49.70916893 28.42714874 49.70916893 28.42714874 49.68359375 30.203125 C49.66281265 31.39605164 49.64203156 32.58897827 49.62062073 33.8180542 C49.55523761 37.62864423 49.49629224 41.43930314 49.4375 45.25 C49.39430411 47.83334046 49.35068948 50.41667395 49.30664062 53 C49.19956766 59.33326052 49.09778028 65.66658956 49 72 C47.28103516 71.58427734 47.28103516 71.58427734 45.52734375 71.16015625 C43.9974356 70.79410461 42.46748543 70.42822853 40.9375 70.0625 C40.18533203 69.88009766 39.43316406 69.69769531 38.65820312 69.50976562 C34.11620899 68.42833845 29.63270877 67.58447189 25 67 C24.99120064 66.16887192 24.99120064 66.16887192 24.98222351 65.32095337 C24.91789281 59.51231095 24.83337504 53.70420242 24.73754883 47.89599609 C24.70445798 45.73330765 24.67637764 43.57053612 24.65356445 41.40771484 C24.61972574 38.28447326 24.56739649 35.16198223 24.51171875 32.0390625 C24.50532883 31.08448151 24.4989389 30.12990051 24.49235535 29.14639282 C24.35637159 22.82472214 23.60315955 16.82711973 21 11 C15.18079702 5.82737513 7.50602411 5.79120365 0 5 C0 3.35 0 1.7 0 0 Z " fill="#050404" transform="translate(226,112)"/>
<path d="M0 0 C2.72343073 1.29802712 4.7891575 1.20653109 7.75390625 0.8359375 C11.33639434 -1.82533937 12.93030058 -5.15213003 14.75390625 -9.1640625 C16.07390625 -9.1640625 17.39390625 -9.1640625 18.75390625 -9.1640625 C19.4634379 -4.52106476 19.96201573 0.07062412 20.25390625 4.7578125 C20.33640625 6.03011719 20.41890625 7.30242187 20.50390625 8.61328125 C20.6295694 10.61014718 20.7552118 12.60701506 20.87890625 14.60400391 C21.00052449 16.55132092 21.127144 18.49832357 21.25390625 20.4453125 C21.3621875 22.1773291 21.3621875 22.1773291 21.47265625 23.94433594 C21.65180836 26.90114839 21.65180836 26.90114839 22.75390625 29.8359375 C22.97764497 32.83215616 22.93904482 35.83219418 22.94140625 38.8359375 C22.95365234 39.65578125 22.96589844 40.475625 22.97851562 41.3203125 C22.98044922 42.10921875 22.98238281 42.898125 22.984375 43.7109375 C22.98848389 44.43023437 22.99259277 45.14953125 22.99682617 45.890625 C22.75390625 47.8359375 22.75390625 47.8359375 20.75390625 50.8359375 C20.13996404 53.57051497 19.60105402 56.26522733 19.12890625 59.0234375 C18.99484375 59.77302734 18.86078125 60.52261719 18.72265625 61.29492188 C18.39345206 63.14081678 18.07284127 64.98824059 17.75390625 66.8359375 C17.47804688 66.25328125 17.2021875 65.670625 16.91796875 65.0703125 C15.79735071 62.91932753 14.55815011 61.04174488 13.12890625 59.0859375 C12.68289063 58.47234375 12.236875 57.85875 11.77734375 57.2265625 C11.27074219 56.53820312 11.27074219 56.53820312 10.75390625 55.8359375 C11.24890625 54.8459375 11.24890625 54.8459375 11.75390625 53.8359375 C13.73390625 54.8259375 13.73390625 54.8259375 15.75390625 55.8359375 C16.92738838 52.31549112 16.59070007 50.41132929 15.75390625 46.8359375 C15.09390625 46.1759375 14.43390625 45.5159375 13.75390625 44.8359375 C12.76390625 45.8259375 12.76390625 45.8259375 11.75390625 46.8359375 C11.75390625 43.8659375 11.75390625 40.8959375 11.75390625 37.8359375 C13.07390625 39.1559375 14.39390625 40.4759375 15.75390625 41.8359375 C15.25917327 36.41477894 13.8295032 32.24737647 11.19140625 27.4609375 C10.65459229 26.47975952 10.65459229 26.47975952 10.10693359 25.47875977 C4.80713455 16.08978156 -1.47651756 9.56268833 -11.24609375 4.8359375 C-12.08140625 4.42214844 -12.91671875 4.00835937 -13.77734375 3.58203125 C-20.56083541 0.78481558 -27.12868937 0.45530235 -34.37109375 0.3984375 C-35.28922852 0.38828613 -36.20736328 0.37813477 -37.15332031 0.36767578 C-46.23449341 0.48318336 -54.05206294 3.0951843 -62.24609375 6.8359375 C-62.82359375 6.1965625 -63.40109375 5.5571875 -63.99609375 4.8984375 C-66.21740534 2.86223521 -67.2724341 2.03418148 -70.24609375 1.8359375 C-70.90609375 2.4959375 -71.56609375 3.1559375 -72.24609375 3.8359375 C-72.57609375 2.1859375 -72.90609375 0.5359375 -73.24609375 -1.1640625 C-49.23554816 -12.28982813 -23.57070787 -12.21577556 0 0 Z M-69.24609375 2.8359375 C-68.25609375 2.8359375 -67.26609375 2.8359375 -66.24609375 2.8359375 C-66.57609375 3.8259375 -66.90609375 4.8159375 -67.24609375 5.8359375 C-68.23609375 5.1759375 -69.22609375 4.5159375 -70.24609375 3.8359375 C-69.91609375 3.5059375 -69.58609375 3.1759375 -69.24609375 2.8359375 Z " fill="#0A0909" transform="translate(281.24609375,197.1640625)"/>
<path d="M0 0 C12.64608603 0.74388741 23.34648285 6.1467525 32.08203125 15.14453125 C36.24603891 19.94548081 39.26881229 25.04988679 42 30.75 C42.30309082 31.37583984 42.60618164 32.00167969 42.91845703 32.64648438 C44.69912317 36.58214341 45.31681658 39.69657475 45 44 C43.68 42.35 42.36 40.7 41 39 C41.83755224 41.51265671 42.79188304 43.65927339 44 46 C45.33281171 48.66562342 45.69814573 51.04182816 46 54 C45.34 54.99 44.68 55.98 44 57 C43.05125 56.649375 42.1025 56.29875 41.125 55.9375 C38.12939828 54.64973223 38.12939828 54.64973223 36 56 C30.0960874 56.40026526 26.17402552 55.95658601 21 53 C19.66720648 50.58431174 19.94266749 49.29940312 20.45703125 46.61328125 C21.2388352 41.41062907 21.50664501 36.2543135 21.6875 31 C21.76677734 29.93265625 21.84605469 28.8653125 21.92773438 27.765625 C22.01354313 24.55677685 21.96190452 22.06761127 21 19 C18.00127555 16.17187688 14.78906989 14.55996337 11 13 C9.4221875 12.3503125 9.4221875 12.3503125 7.8125 11.6875 C4.58857363 10.89942911 1.28549263 10.46935609 -2 10 C-2 29.8 -2 49.6 -2 70 C-2.33 70 -2.66 70 -3 70 C-3 49.21 -3 28.42 -3 7 C-3.66 6.67 -4.32 6.34 -5 6 C-3.35 6 -1.7 6 0 6 C0.33 5.01 0.66 4.02 1 3 C1.66 2.34 2.32 1.68 3 1 C2.01 0.67 1.02 0.34 0 0 Z " fill="#F9F9F1" transform="translate(253,197)"/>
<path d="M0 0 C0.66 0.33 1.32 0.66 2 1 C2 5 2 9 2 13 C2.99 13.33 3.98 13.66 5 14 C5.33 13.34 5.66 12.68 6 12 C6.66 15.3 7.32 18.6 8 22 C8.33 22 8.66 22 9 22 C12 22 12 22 13.75 22.5 C16.84792802 23.18842845 19.83834629 23.06080103 23 23 C21.82479701 26.29056837 20.02399692 28.25808308 17.09765625 30.15625 C14.28946556 31.28580156 11.63634975 31.3737634 8.625 31.625 C4.65570361 32.11553663 2.6345115 32.40312902 -0.3046875 35.16796875 C-1.59679096 36.92450298 -2.85532218 38.70625562 -4.078125 40.51171875 C-7.00300108 44.29860099 -10.6849288 46.10216776 -15 48 C-14.7834375 47.26136719 -14.566875 46.52273437 -14.34375 45.76171875 C-12.4741243 38.94970287 -10.81229727 32.0796398 -12 25 C-12.9931339 23.66154461 -13.99352171 22.32844993 -15 21 C-15.73046875 18.203125 -15.73046875 18.203125 -16.1875 15.25 C-16.34605469 14.26515625 -16.50460937 13.2803125 -16.66796875 12.265625 C-16.77753906 11.51796875 -16.88710938 10.7703125 -17 10 C-13.70851757 11.13499394 -13.0040131 11.99283376 -11.25 15.125 C-10.8375 16.07375 -10.425 17.0225 -10 18 C-9.52949219 17.03578125 -9.05898438 16.0715625 -8.57421875 15.078125 C-7.94552821 13.80197704 -7.31660993 12.52594126 -6.6875 11.25 C-6.37876953 10.61578125 -6.07003906 9.9815625 -5.75195312 9.328125 C-4.089649 5.96852088 -2.38120835 2.90141079 0 0 Z " fill="#FAF8F3" transform="translate(337,205)"/>
<path d="M0 0 C0.66 0 1.32 0 2 0 C3.59112769 3.18225539 3.33732786 5.45805748 3 9 C1.85181315 11.35025973 0.53689302 13.54217194 -0.8203125 15.77734375 C-2.47612315 18.89706646 -2.77670292 21.50167914 -3 25 C-2.5153125 24.27554688 -2.030625 23.55109375 -1.53125 22.8046875 C2.55600316 16.90961082 6.52271654 11.40380528 13 8 C13.99 8 14.98 8 16 8 C14.83656793 16.28294178 14.83656793 16.28294178 11.8125 18.875 C10.884375 19.24625 9.95625 19.6175 9 20 C7.72883086 20.56174072 6.45800542 21.12425974 5.1875 21.6875 C4.135625 22.120625 3.08375 22.55375 2 23 C2 23.66 2 24.32 2 25 C1.34 25 0.68 25 0 25 C-0.33 25.66 -0.66 26.32 -1 27 C-2.32810215 28.67083819 -3.66172696 30.33729713 -5 32 C-5.66 32.99 -6.32 33.98 -7 35 C-7.66 35 -8.32 35 -9 35 C-9.26554688 35.70511719 -9.53109375 36.41023438 -9.8046875 37.13671875 C-11.06498967 40.15567786 -12.53957994 42.95185076 -14.125 45.8125 C-14.66382813 46.78832031 -15.20265625 47.76414063 -15.7578125 48.76953125 C-16.16773438 49.50558594 -16.57765625 50.24164063 -17 51 C-17.99 51 -18.98 51 -20 51 C-20.02949232 47.54168516 -20.0469616 44.08340346 -20.0625 40.625 C-20.07087891 39.65949219 -20.07925781 38.69398438 -20.08789062 37.69921875 C-20.10663693 32.11282 -19.85380202 26.7170789 -19.07617188 21.18164062 C-18.94984115 17.56339901 -20.29370575 15.13958142 -22 12 C-21.401875 12.226875 -20.80375 12.45375 -20.1875 12.6875 C-19.465625 12.790625 -18.74375 12.89375 -18 13 C-16.22809091 11.64555699 -16.22809091 11.64555699 -15 10 C-15.061875 10.78375 -15.12375 11.5675 -15.1875 12.375 C-15.125625 13.24125 -15.06375 14.1075 -15 15 C-14.01 15.66 -13.02 16.32 -12 17 C-11.34 15.68 -10.68 14.36 -10 13 C-9.34 14.65 -8.68 16.3 -8 18 C-7.67 17.01 -7.34 16.02 -7 15 C-6.34 16.98 -5.68 18.96 -5 21 C-4.80664062 19.90300781 -4.61328125 18.80601562 -4.4140625 17.67578125 C-4.15131825 16.22130418 -3.88828199 14.76687983 -3.625 13.3125 C-3.43550781 12.2306543 -3.43550781 12.2306543 -3.2421875 11.12695312 C-2.52507241 7.200748 -1.660678 3.66071195 0 0 Z " fill="#F9F7F2" transform="translate(195,173)"/>
<path d="M0 0 C0.34654062 3.63867652 0.1496871 5.70062581 -1.5 9 C-4.58165824 12.69798989 -8.04635053 15.29386128 -12 18 C-7.6015254 18 -2.24034393 15.53560306 1.75 13.8125 C4.57808767 12.79124612 7.01798756 12.86130175 10 13 C9.76315386 16.19742287 8.70476035 17.34066114 6.5625 19.8125 C4.40373711 21.53430847 3.38158532 22.00185536 0.58984375 21.98828125 C-1.14129711 21.74545154 -2.87056049 21.48885219 -4.59765625 21.21875 C-8.1764786 20.89287349 -10.14333253 21.90975551 -13 24 C-14.88131569 26.54788853 -14.88131569 26.54788853 -16 29 C-14.68 29.33 -13.36 29.66 -12 30 C-12 31.65 -12 33.3 -12 35 C-15.28696233 35.79953138 -16.71023192 36.09658936 -20 35 C-19.01 34.01 -18.02 33.02 -17 32 C-18.32 32.66 -19.64 33.32 -21 34 C-21 34.33 -21 34.66 -21 35 C-22.0725 35.0825 -23.145 35.165 -24.25 35.25 C-28.33500175 36.06700035 -29.34891677 36.9561637 -32 40 C-32.66 40 -33.32 40 -34 40 C-34.103125 40.61875 -34.20625 41.2375 -34.3125 41.875 C-35 44 -35 44 -38 46 C-38.80541207 49.10811287 -38.80541207 49.10811287 -39.1875 52.625 C-39.34605469 53.81351562 -39.50460937 55.00203125 -39.66796875 56.2265625 C-39.77753906 57.14179688 -39.88710938 58.05703125 -40 59 C-40.33 59 -40.66 59 -41 59 C-41.33876338 49.113128 -40.89759662 40.55500154 -38 31 C-37.5949312 29.41900419 -37.19788683 27.8359084 -36.8125 26.25 C-36.544375 25.1775 -36.27625 24.105 -36 23 C-35.01 23 -34.02 23 -33 23 C-33.33 25.31 -33.66 27.62 -34 30 C-34.66 30 -35.32 30 -36 30 C-36.66 32.97 -37.32 35.94 -38 39 C-37.34 39 -36.68 39 -36 39 C-35.67 38.34 -35.34 37.68 -35 37 C-35 37.66 -35 38.32 -35 39 C-34.25234375 38.38511719 -33.5046875 37.77023437 -32.734375 37.13671875 C-31.25710938 35.92435547 -31.25710938 35.92435547 -29.75 34.6875 C-28.77546875 33.88699219 -27.8009375 33.08648437 -26.796875 32.26171875 C-24 30 -24 30 -21.6796875 28.6015625 C-19.15126638 26.19074236 -19.46171431 24.10483209 -19.375 20.6875 C-19.23503033 16.05235066 -18.64484372 12.3489668 -17 8 C-16.34 8 -15.68 8 -15 8 C-14.67 10.64 -14.34 13.28 -14 16 C-11.39616342 13.58668805 -9.49013395 10.93282898 -7.5 8 C-2.07142857 0 -2.07142857 0 0 0 Z " fill="#E5E4DF" transform="translate(327,266)"/>
<path d="M0 0 C0 3 0 3 -2.4375 5.5 C-3.283125 6.325 -4.12875 7.15 -5 8 C-5.33 8.99 -5.66 9.98 -6 11 C-5.34 11 -4.68 11 -4 11 C-3.67 10.34 -3.34 9.68 -3 9 C-3.309375 10.216875 -3.61875 11.43375 -3.9375 12.6875 C-4.64196644 15.63050123 -4.99864195 18.13801231 -4.96875 21.17578125 C-4.88825707 29.73821696 -4.88825707 29.73821696 -8.40234375 33.7265625 C-11.18688306 35.97322103 -14.0395122 37.99450827 -17 40 C-17.55558594 40.57105469 -18.11117188 41.14210938 -18.68359375 41.73046875 C-20 43 -20 43 -22.6875 43.1875 C-23.8321875 43.0946875 -23.8321875 43.0946875 -25 43 C-24.46835604 37.78988923 -23.2006991 33.7399673 -21 29 C-20.47623684 27.75122479 -19.95534544 26.50124077 -19.4375 25.25 C-18 22 -18 22 -16 19 C-16.33 18.34 -16.66 17.68 -17 17 C-16.34 16.67 -15.68 16.34 -15 16 C-15 11.38 -15 6.76 -15 2 C-13 5 -13 5 -12 13 C-8.04 8.71 -4.08 4.42 0 0 Z " fill="#F2F1EC" transform="translate(314,262)"/>
<path d="M0 0 C0.66 0 1.32 0 2 0 C3.58255197 4.32564205 4.45144652 8.428721 5 13 C5.99 11.6696875 5.99 11.6696875 7 10.3125 C10.0533141 6.62927583 13.7321501 4.1292143 18 2 C18.66 2 19.32 2 20 2 C19.68408496 6.42281054 18.5985429 9.29343336 15.66015625 12.66015625 C13.67385075 14.26322163 11.86193865 14.79163236 9.4375 15.5625 C6.07746781 16.87319024 5.20668704 17.53792022 3.70703125 20.890625 C3.06360496 23.19120227 2.45993265 25.50323309 1.89453125 27.82421875 C1.06689139 30.76252095 0.3413102 32.31684073 -1.5625 34.625 C-4.98149802 38.79322289 -5.85095171 43.8339536 -7 49 C-8.12489013 45.62532961 -7.75842717 43.43370108 -7 40 C-6.67400678 33.58560391 -7.04263848 27.34252004 -8 21 C-6.35 20.67 -4.7 20.34 -3 20 C-1.35993952 13.33042073 -0.48641215 6.84817102 0 0 Z " fill="#BFBEB9" transform="translate(192,123)"/>
<path d="M0 0 C1.32 0.66 2.64 1.32 4 2 C1.75302336 8.54867525 -2.81031167 13.60061293 -7 19 C-7.763125 20.051875 -8.52625 21.10375 -9.3125 22.1875 C-16.17977628 29.37418447 -24.73730695 35.32813562 -34 39 C-34.66 39 -35.32 39 -36 39 C-36.12375 38.05125 -36.2475 37.1025 -36.375 36.125 C-36.71687177 32.91332809 -36.71687177 32.91332809 -39 31 C-38.03320312 30.6596875 -37.06640625 30.319375 -36.0703125 29.96875 C-20.17279581 24.14689352 -9.44714915 14.01835036 0 0 Z " fill="#0F0D0C" transform="translate(303,312)"/>
<path d="M0 0 C5.57894737 3.15789474 5.57894737 3.15789474 7 6 C6.984375 8.05859375 6.984375 8.05859375 6.75 10.4375 C6.68296875 11.21996094 6.6159375 12.00242187 6.546875 12.80859375 C5.8956961 15.41796062 5.10493912 16.36115454 3 18 C-0.63782632 19.21260877 -3.17735999 19.39544552 -7 19 C-10.07858499 16.96944394 -11.645391 15.4855968 -12.515625 11.83984375 C-12.75643284 8.56157336 -12.73366826 6.08422647 -10.85546875 3.30859375 C-7.41147475 0.1190373 -4.54804834 -0.85275906 0 0 Z " fill="#F4F1EC" transform="translate(352,382)"/>
<path d="M0 0 C2.5 1.0625 2.5 1.0625 4 2 C3.34 4.64 2.68 7.28 2 10 C2.66 10.33 3.32 10.66 4 11 C3.01 12.485 3.01 12.485 2 14 C2 14.99 2 15.98 2 17 C-1.72983966 18.19354869 -5.10823039 18.40965996 -9 18 C-12.07858499 15.96944394 -13.645391 14.4855968 -14.515625 10.83984375 C-14.75526106 7.5775255 -14.68096853 5.09450214 -12.92578125 2.2734375 C-8.6601608 -1.91037653 -5.33232727 -1.29007918 0 0 Z " fill="#F6F4EE" transform="translate(207,383)"/>
<path d="M0 0 C0.66 0 1.32 0 2 0 C3.59112769 3.18225539 3.33732786 5.45805748 3 9 C1.85181315 11.35025973 0.53689302 13.54217194 -0.8203125 15.77734375 C-2.47612315 18.89706646 -2.77670292 21.50167914 -3 25 C-2.5153125 24.27554688 -2.030625 23.55109375 -1.53125 22.8046875 C2.55600316 16.90961082 6.52271654 11.40380528 13 8 C13.99 8 14.98 8 16 8 C14.83656793 16.28294178 14.83656793 16.28294178 11.8125 18.875 C10.884375 19.24625 9.95625 19.6175 9 20 C7.72883086 20.56174072 6.45800542 21.12425974 5.1875 21.6875 C3.6096875 22.3371875 3.6096875 22.3371875 2 23 C2 23.66 2 24.32 2 25 C1.34 25 0.68 25 0 25 C-0.33 25.66 -0.66 26.32 -1 27 C-3.18603505 29.84184556 -5.3992343 32.52927259 -8 35 C-7.7525 34.175 -7.505 33.35 -7.25 32.5 C-6.98887511 28.84425152 -7.23580973 28.14624659 -8.9375 25.125 C-11.3276338 20.87039757 -11.3446004 17.82440556 -11 13 C-10.690625 13.639375 -10.38125 14.27875 -10.0625 14.9375 C-9.1654837 16.93610821 -9.1654837 16.93610821 -8 18 C-7.67 17.01 -7.34 16.02 -7 15 C-6.34 16.98 -5.68 18.96 -5 21 C-4.80664062 19.90300781 -4.61328125 18.80601562 -4.4140625 17.67578125 C-4.15131825 16.22130418 -3.88828199 14.76687983 -3.625 13.3125 C-3.49867188 12.59126953 -3.37234375 11.87003906 -3.2421875 11.12695312 C-2.52507241 7.200748 -1.660678 3.66071195 0 0 Z " fill="#5D5A55" transform="translate(195,173)"/>
<path d="M0 0 C0.66 0.33 1.32 0.66 2 1 C2.17069867 6.03561089 2.07470484 9.36242448 0 14 C-0.103125 14.99 -0.20625 15.98 -0.3125 17 C-1.20998618 20.91630334 -3.09239748 22.30008338 -6 25 C-9.51150489 29.78682757 -9.99193121 34.66551696 -10.81640625 40.38085938 C-11.12225053 42.27041456 -11.55375865 44.13859511 -12 46 C-12.99 46.66 -13.98 47.32 -15 48 C-14.7834375 47.26136719 -14.566875 46.52273437 -14.34375 45.76171875 C-12.4741243 38.94970287 -10.81229727 32.0796398 -12 25 C-12.9931339 23.66154461 -13.99352171 22.32844993 -15 21 C-15.73046875 18.203125 -15.73046875 18.203125 -16.1875 15.25 C-16.34605469 14.26515625 -16.50460937 13.2803125 -16.66796875 12.265625 C-16.77753906 11.51796875 -16.88710938 10.7703125 -17 10 C-13.70851757 11.13499394 -13.0040131 11.99283376 -11.25 15.125 C-10.8375 16.07375 -10.425 17.0225 -10 18 C-9.52949219 17.03578125 -9.05898438 16.0715625 -8.57421875 15.078125 C-7.94552821 13.80197704 -7.31660993 12.52594126 -6.6875 11.25 C-6.37876953 10.61578125 -6.07003906 9.9815625 -5.75195312 9.328125 C-4.089649 5.96852088 -2.38120835 2.90141079 0 0 Z " fill="#92908B" transform="translate(337,205)"/>
<path d="M0 0 C4.20411739 2.57979931 7.03224317 5.07832134 10 9 C10.66 9.33 11.32 9.66 12 10 C12.38063221 12.3260857 12.71269945 14.66055264 13 17 C13.33 17.66 13.66 18.32 14 19 C14.15648936 20.64313829 14.27571942 22.28991518 14.375 23.9375 C14.78883327 29.08667128 15.88012305 33.75370651 17.37890625 38.6875 C18 41 18 41 18 44 C14.1132457 38.60869565 14.1132457 38.60869565 13.5 35.3125 C13.19949078 32.81301146 13.19949078 32.81301146 10.9375 31.1875 C10.298125 30.795625 9.65875 30.40375 9 30 C9.66 30 10.32 30 11 30 C9.02 27.69 7.04 25.38 5 23 C4.34 23.33 3.68 23.66 3 24 C1.78323854 21.42332866 0.94815167 19.62217997 1.1875 16.75 C1.455625 16.1725 1.72375 15.595 2 15 C2.99 14.67 3.98 14.34 5 14 C4.6390625 13.24074219 4.278125 12.48148438 3.90625 11.69921875 C3.4421875 10.70535156 2.978125 9.71148437 2.5 8.6875 C2.0359375 7.70136719 1.571875 6.71523437 1.09375 5.69921875 C0 3 0 3 0 0 Z " fill="#C7C4BF" transform="translate(152,139)"/>
<path d="M0 0 C0.66 0 1.32 0 2 0 C3.01428514 2.03460769 4.01086789 4.07804606 5 6.125 C5.556875 7.26195312 6.11375 8.39890625 6.6875 9.5703125 C8.00504969 13.01319533 8.26577282 15.35669762 8 19 C6.68 17.35 5.36 15.7 4 14 C4.83755224 16.51265671 5.79188304 18.65927339 7 21 C8.33281171 23.66562342 8.69814573 26.04182816 9 29 C8.34 29.99 7.68 30.98 7 32 C2.88850165 30.47722283 0.18400136 27.72008231 -2 24 C-3.25339165 20.38406457 -4.18219634 16.73663135 -5 13 C-4.01 12.34 -3.02 11.68 -2 11 C-1.96810977 8.99091531 -1.9437563 6.9766764 -2.08984375 4.97265625 C-2 3 -2 3 0 0 Z " fill="#F8F7F1" transform="translate(290,222)"/>
<path d="M0 0 C2.475 0.99 2.475 0.99 5 2 C4.34 2.66 3.68 3.32 3 4 C4.98 5.98 6.96 7.96 9 10 C8.34 7.69 7.68 5.38 7 3 C10.86835681 6.06800712 11.95650986 9.20353974 13.2890625 13.78125 C13.99850693 15.99534032 14.90995042 17.95033412 16 20 C12.26214983 22.49190011 9.32535814 22.51398223 5 22 C2.28647749 21.289192 0.48718747 20.42124998 -2 19 C-3.787113 15.76085769 -2.71728547 12.50672895 -2 9 C-1.67 9.99 -1.34 10.98 -1 12 C-0.34 12 0.32 12 1 12 C1.2981424 8.2236068 1.2981424 8.2236068 0 6 C-0.039992 4.00039988 -0.04346799 1.99952758 0 0 Z " fill="#EFEEE9" transform="translate(276,231)"/>
<path d="M0 0 C10.19694397 -0.48556876 10.19694397 -0.48556876 13.6875 1.625 C15.32796316 4.59345714 15.30375856 6.65865579 15 10 C13.02 10.99 13.02 10.99 11 12 C12.32 14.31 13.64 16.62 15 19 C13.0625 18.25 13.0625 18.25 11 17 C10.25 14.875 10.25 14.875 10 13 C7.69 13 5.38 13 3 13 C3 14.98 3 16.96 3 19 C2.01 19 1.02 19 0 19 C0 12.73 0 6.46 0 0 Z " fill="#736F6B" transform="translate(221,382)"/>
<path d="M0 0 C6.04801071 0.54981916 11.30601106 1.90429574 17 4 C15.625 6.5 15.625 6.5 14 9 C13.34 9 12.68 9 12 9 C12.33 10.32 12.66 11.64 13 13 C8.05 12.01 3.1 11.02 -2 10 C-2 29.8 -2 49.6 -2 70 C-2.33 70 -2.66 70 -3 70 C-3 49.21 -3 28.42 -3 7 C-3.66 6.67 -4.32 6.34 -5 6 C-3.35 6 -1.7 6 0 6 C0.33 5.01 0.66 4.02 1 3 C1.66 2.34 2.32 1.68 3 1 C2.01 0.67 1.02 0.34 0 0 Z " fill="#D9D8D4" transform="translate(253,197)"/>
<path d="M0 0 C0.66 0 1.32 0 2 0 C4.79441201 4.70869426 5.39036978 8.50675354 5.1875 13.875 C5.16719727 14.90753906 5.16719727 14.90753906 5.14648438 15.9609375 C5.1114837 17.64097001 5.05768954 19.3205935 5 21 C4.34 21 3.68 21 3 21 C2.67 24.63 2.34 28.26 2 32 C-8.5 21.5 -8.5 21.5 -11 18 C-10.505 16.515 -10.505 16.515 -10 15 C-7.69 16.65 -5.38 18.3 -3 20 C-2.86722656 18.80761719 -2.73445312 17.61523438 -2.59765625 16.38671875 C-2.41944017 14.82029322 -2.24104544 13.25388802 -2.0625 11.6875 C-1.97548828 10.90181641 -1.88847656 10.11613281 -1.79882812 9.30664062 C-1.71181641 8.54931641 -1.62480469 7.79199219 -1.53515625 7.01171875 C-1.41732788 5.96697388 -1.41732788 5.96697388 -1.29711914 4.90112305 C-1 3 -1 3 0 0 Z " fill="#87847F" transform="translate(182,112)"/>
<path d="M0 0 C0.33 0 0.66 0 1 0 C1.16682272 4.92127034 1.24828052 8.50343896 -1 13 C-0.46890625 12.72285156 0.0621875 12.44570312 0.609375 12.16015625 C1.66898437 11.61681641 1.66898437 11.61681641 2.75 11.0625 C3.44609375 10.70285156 4.1421875 10.34320313 4.859375 9.97265625 C9.29485585 7.9572644 13.14015613 7.90654146 18 8 C16.82778882 11.28219131 15.03724638 13.25635134 12.109375 15.140625 C9.25331189 16.30420627 6.49694988 16.52890838 3.4375 16.875 C-2.1744676 17.53112546 -2.1744676 17.53112546 -6.25 21.125 C-6.8275 22.07375 -7.405 23.0225 -8 24 C-8.33 24 -8.66 24 -9 24 C-9 14.68517442 -4.53898572 7.84758579 0 0 Z " fill="#484641" transform="translate(342,220)"/>
<path d="M0 0 C8.99563319 0.19213974 8.99563319 0.19213974 12.875 3.3125 C13.57625 4.199375 14.2775 5.08625 15 6 C17.78412349 8.95813121 20.44205778 11.02336543 24 13 C23.01 13.33 22.02 13.66 21 14 C20.505 14.680625 20.01 15.36125 19.5 16.0625 C15.46030862 19.19326082 10.93272332 18.30616903 6 18 C6 17.01 6 16.02 6 15 C12.625 12 12.625 12 16 12 C16 11.34 16 10.68 16 10 C15.33613281 9.97421875 14.67226562 9.9484375 13.98828125 9.921875 C9.72957628 9.64832315 6.68842951 9.39338829 2.9375 7.25 C0.7987468 4.7662866 0.26947168 3.23366021 0 0 Z " fill="#AEADA8" transform="translate(136,159)"/>
<path d="M0 0 C0.99 0 1.98 0 3 0 C2.67 2.31 2.34 4.62 2 7 C1.34 7 0.68 7 0 7 C-0.66 9.97 -1.32 12.94 -2 16 C-1.34 16 -0.68 16 0 16 C0.33 15.34 0.66 14.68 1 14 C1 14.66 1 15.32 1 16 C2.12148438 15.06027344 2.12148438 15.06027344 3.265625 14.1015625 C4.74289062 12.87566406 4.74289062 12.87566406 6.25 11.625 C7.22453125 10.81289063 8.1990625 10.00078125 9.203125 9.1640625 C11.4552682 7.42148243 13.40711386 6.123584 16 5 C15.67 5.99 15.34 6.98 15 8 C17.64 8 20.28 8 23 8 C21.68 9.65 20.36 11.3 19 13 C18.01 12.67 17.02 12.34 16 12 C16.99 11.01 17.98 10.02 19 9 C17.02 9.99 17.02 9.99 15 11 C15 11.33 15 11.66 15 12 C13.9275 12.0825 12.855 12.165 11.75 12.25 C7.66499825 13.06700035 6.65108323 13.9561637 4 17 C3.34 17 2.68 17 2 17 C1.896875 17.61875 1.79375 18.2375 1.6875 18.875 C1 21 1 21 -2 23 C-2.80541207 26.10811287 -2.80541207 26.10811287 -3.1875 29.625 C-3.34605469 30.81351562 -3.50460937 32.00203125 -3.66796875 33.2265625 C-3.77753906 34.14179688 -3.88710938 35.05703125 -4 36 C-4.33 36 -4.66 36 -5 36 C-5.33876338 26.113128 -4.89759662 17.55500154 -2 8 C-1.5949312 6.41900419 -1.19788683 4.8359084 -0.8125 3.25 C-0.4103125 1.64125 -0.4103125 1.64125 0 0 Z " fill="#DCD9D4" transform="translate(291,289)"/>
<path d="M0 0 C1.94238281 0.21264648 1.94238281 0.21264648 4 1 C5.09667969 2.58227539 5.09667969 2.58227539 5.921875 4.59765625 C6.22480469 5.31630859 6.52773437 6.03496094 6.83984375 6.77539062 C7.14019531 7.53013672 7.44054687 8.28488281 7.75 9.0625 C8.06582031 9.82111328 8.38164062 10.57972656 8.70703125 11.36132812 C9.48491249 13.23531476 10.24424502 15.11698127 11 17 C10.01 17 9.02 17 8 17 C7.67 15.68 7.34 14.36 7 13 C3.37 13 -0.26 13 -4 13 C-4.66 14.65 -5.32 16.3 -6 18 C-6.66 17.67 -7.32 17.34 -8 17 C-6.85700498 14.35290709 -5.71075628 11.70730948 -4.5625 9.0625 C-4.23701172 8.30775391 -3.91152344 7.55300781 -3.57617188 6.77539062 C-1.11328125 1.11328125 -1.11328125 1.11328125 0 0 Z " fill="#6D6A65" transform="translate(157,383)"/>
<path d="M0 0 C3.90474767 1.30158256 4.73350273 3.08983851 7.0625 6.4375 C9.81118131 10.40370402 9.81118131 10.40370402 13 14 C13.33 9.71 13.66 5.42 14 1 C14.66 1 15.32 1 16 1 C16 7.27 16 13.54 16 20 C12.25497567 18.75165856 11.23515724 17.13825974 8.8125 14.0625 C8.09707031 13.16660156 7.38164062 12.27070313 6.64453125 11.34765625 C5 9 5 9 5 7 C4.34 7 3.68 7 3 7 C3 11.29 3 15.58 3 20 C2.01 20 1.02 20 0 20 C0 13.4 0 6.8 0 0 Z " fill="#7D7A75" transform="translate(371,381)"/>
<path d="M0 0 C3.34543994 1.04726815 4.01339514 2.02506981 5.703125 5.1875 C6.23248618 6.45267321 6.74773178 7.72382872 7.25 9 C7.518125 9.64195312 7.78625 10.28390625 8.0625 10.9453125 C10 15.67044005 10 15.67044005 10 18 C9.34 18 8.68 18 8 18 C7.67 16.35 7.34 14.7 7 13 C3.04 13 -0.92 13 -5 13 C-5.33 14.65 -5.66 16.3 -6 18 C-6.66 18 -7.32 18 -8 18 C-7.26733512 13.91358743 -5.31342025 10.40525846 -3.4375 6.75 C-3.10814453 6.1003125 -2.77878906 5.450625 -2.43945312 4.78125 C-1.62992435 3.18565706 -0.81544958 1.59257517 0 0 Z " fill="#6C6B66" transform="translate(280,383)"/>
<path d="M0 0 C2.42717415 3.64076123 2.85878856 5.62244525 3 10 C1.94835711 13.14953562 0.50518414 16.04558652 -1 19 C-2.68072509 22.92169187 -3.87050701 26.8854184 -5 31 C-5.79352609 28.61942172 -6.03507283 27.17447996 -5.53515625 24.6875 C-4.11852911 17.57334326 -4.92580889 10.11651613 -6 3 C-5.195625 2.87625 -4.39125 2.7525 -3.5625 2.625 C-2.716875 2.41875 -1.87125 2.2125 -1 2 C-0.67 1.34 -0.34 0.68 0 0 Z " fill="#BBB8B3" transform="translate(190,141)"/>
<path d="M0 0 C2 3 2 3 3 6 C2.3709375 6.36351562 1.741875 6.72703125 1.09375 7.1015625 C-3.99996711 10.09335418 -8.78969586 13.20897825 -13.40625 16.8984375 C-15 18 -15 18 -17 18 C-14.47320394 10.84074448 -10.29931492 5.24098614 -4 1 C-1.78125 0.33203125 -1.78125 0.33203125 0 0 Z " fill="#F5F3EF" transform="translate(204,192)"/>
<path d="M0 0 C0.78375 0.825 1.5675 1.65 2.375 2.5 C4.63721264 5.22988506 4.63721264 5.22988506 7 5 C7 5.66 7 6.32 7 7 C7.99 7 8.98 7 10 7 C9.5496745 9.91810922 9.09009058 12.83423984 8.625 15.75 C8.49867188 16.575 8.37234375 17.4 8.2421875 18.25 C8.11328125 19.04921875 7.984375 19.8484375 7.8515625 20.671875 C7.67874756 21.77160645 7.67874756 21.77160645 7.50244141 22.89355469 C6.96401163 25.15087834 6.1112302 26.97009934 5 29 C4.566875 27.9275 4.13375 26.855 3.6875 25.75 C2.44678487 22.83727354 1.04929621 20.43963834 -1 18 C-0.67 17.34 -0.34 16.68 0 16 C1.32 16.66 2.64 17.32 4 18 C5.17348213 14.47955362 4.83679382 12.57539179 4 9 C3.34 8.34 2.68 7.68 2 7 C1.34 7.66 0.68 8.32 0 9 C0 6.03 0 3.06 0 0 Z " fill="#777571" transform="translate(293,235)"/>
<path d="M0 0 C-1.16343207 8.28294178 -1.16343207 8.28294178 -4.1875 10.875 C-5.115625 11.24625 -6.04375 11.6175 -7 12 C-8.27116914 12.56174072 -9.54199458 13.12425974 -10.8125 13.6875 C-11.864375 14.120625 -12.91625 14.55375 -14 15 C-14 15.66 -14 16.32 -14 17 C-14.66 17 -15.32 17 -16 17 C-16.33 17.66 -16.66 18.32 -17 19 C-17.68359375 17.2734375 -17.68359375 17.2734375 -18 15 C-14.68583952 8.82105674 -7.50778581 0 0 0 Z " fill="#999792" transform="translate(211,181)"/>
<path d="M0 0 C2.21801069 1.6826288 2.27654021 2.72226974 2.8125 5.375 C2.31621094 5.69210938 1.81992188 6.00921875 1.30859375 6.3359375 C-4.66775424 10.44113289 -8.33463859 15.28266289 -12.1875 21.375 C-13.35977259 17.69868935 -12.80739998 15.88303996 -11.140625 12.3828125 C-10.4563962 10.94144527 -9.8269391 9.47359775 -9.234375 7.9921875 C-8.74710938 6.78949219 -8.74710938 6.78949219 -8.25 5.5625 C-7.95222656 4.81355469 -7.65445313 4.06460938 -7.34765625 3.29296875 C-5.51784036 0.26791959 -3.4532264 -0.98663611 0 0 Z " fill="#F6F5F0" transform="translate(204.1875,177.625)"/>
<path d="M0 0 C4.29 0 8.58 0 13 0 C13 0.66 13 1.32 13 2 C9.37 2 5.74 2 2 2 C2 4.31 2 6.62 2 9 C5.3 9 8.6 9 12 9 C12 9.66 12 10.32 12 11 C9.03 11 6.06 11 3 11 C3 12.98 3 14.96 3 17 C6.63 17 10.26 17 14 17 C14 17.66 14 18.32 14 19 C9.38 19 4.76 19 0 19 C0 12.73 0 6.46 0 0 Z " fill="#75726D" transform="translate(248,382)"/>
<path d="M0 0 C5.57894737 3.15789474 5.57894737 3.15789474 7 6 C6.984375 8.05859375 6.984375 8.05859375 6.75 10.4375 C6.68296875 11.21996094 6.6159375 12.00242187 6.546875 12.80859375 C5.8956961 15.41796062 5.10493912 16.36115454 3 18 C-0.63782632 19.21260877 -3.17735999 19.39544552 -7 19 C-10.07858499 16.96944394 -11.645391 15.4855968 -12.515625 11.83984375 C-12.75643284 8.56157336 -12.73366826 6.08422647 -10.85546875 3.30859375 C-7.41147475 0.1190373 -4.54804834 -0.85275906 0 0 Z M-11 7 C-11 10.51955419 -10.63108355 12.84920059 -8.9375 15.9375 C-5.73774742 17.69220303 -2.5005106 17.626852 1 17 C3.62716577 15.54002013 3.62716577 15.54002013 5 13 C5.75015195 10.04308291 5.75015195 10.04308291 5 7 C2.54405875 3.67725596 1.0743356 2.22381992 -3 1.375 C-7.11289267 2.23185264 -8.59686932 3.57735933 -11 7 Z " fill="#66635E" transform="translate(352,382)"/>
<path d="M0 0 C-0.38895251 5.44533513 -2.2148953 8.12686961 -6 12 C-9.03191641 14.08444253 -11.36109611 14.20216133 -15 14 C-14.41614049 10.05894832 -12.72211107 7.86170651 -10 5 C-3.1010929 0 -3.1010929 0 0 0 Z " fill="#72706A" transform="translate(212,125)"/>
<path d="M0 0 C2.50559358 2.50559358 2.27333855 3.47021115 2.4375 6.9375 C2.80517286 12.1053463 3.87593015 16.73990402 5.37890625 21.6875 C6 24 6 24 6 27 C2.1132457 21.60869565 2.1132457 21.60869565 1.5 18.3125 C1.19949078 15.81301146 1.19949078 15.81301146 -1.0625 14.1875 C-1.701875 13.795625 -2.34125 13.40375 -3 13 C-2.34 13 -1.68 13 -1 13 C-2.98 10.69 -4.96 8.38 -7 6 C-7.99 6.495 -7.99 6.495 -9 7 C-9.66 5.02 -10.32 3.04 -11 1 C-10.2575 1.350625 -9.515 1.70125 -8.75 2.0625 C-5.8677274 3.04509293 -4.78823655 3.0326802 -2 2 C-1.34 3.32 -0.68 4.64 0 6 C0 4.02 0 2.04 0 0 Z " fill="#53514D" transform="translate(164,156)"/>
<path d="M0 0 C2.50611625 1.21263689 2.93431154 2.39094468 3.9375 4.9375 C4.2675 5.5975 4.5975 6.2575 4.9375 6.9375 C5.625 9.875 5.625 9.875 5.9375 12.9375 C4.9475 14.4225 4.9475 14.4225 3.9375 15.9375 C-0.28684114 14.37292921 -2.50776698 11.55670511 -5.0625 7.9375 C-5.63646552 4.85243531 -5.54679366 3.66394048 -3.8125 1.0625 C-2.0625 -0.0625 -2.0625 -0.0625 0 0 Z " fill="#F3F2ED" transform="translate(293.0625,238.0625)"/>
<path d="M0 0 C6.0546875 -0.1953125 6.0546875 -0.1953125 8 0 C10 2 10 2 10.25 4.5 C10 7 10 7 8 9 C5.31160615 9.26991906 2.70858064 9.08737357 0 9 C0 6.03 0 3.06 0 0 Z " fill="#F6F4EF" transform="translate(224,384)"/>
<path d="M0 0 C1.17539996 0.92652701 2.34010577 1.86663387 3.5 2.8125 C4.1496875 3.33457031 4.799375 3.85664063 5.46875 4.39453125 C7 6 7 6 7 9 C7.66 9.66 8.32 10.32 9 11 C11 13 11 13 11 16 C8.36 15.67 5.72 15.34 3 15 C3 13.68 3 12.36 3 11 C2.360625 10.7525 1.72125 10.505 1.0625 10.25 C-1 9 -1 9 -1.75 6.875 C-1.8325 6.25625 -1.915 5.6375 -2 5 C-1.34 4.67 -0.68 4.34 0 4 C0 2.68 0 1.36 0 0 Z " fill="#D7D6D1" transform="translate(156,161)"/>
<path d="M0 0 C0 0.66 0 1.32 0 2 C-2.97 2 -5.94 2 -9 2 C-9.33 3.32 -9.66 4.64 -10 6 C-5.05 7.98 -5.05 7.98 0 10 C0.1875 12.875 0.1875 12.875 0 16 C-4.08430208 18.72286806 -6.14590877 18.38524534 -11 18 C-11.66 17.01 -12.32 16.02 -13 15 C-9.7 15 -6.4 15 -3 15 C-3 13.68 -3 12.36 -3 11 C-3.55429687 10.80664062 -4.10859375 10.61328125 -4.6796875 10.4140625 C-5.40414063 10.15367187 -6.12859375 9.89328125 -6.875 9.625 C-7.95394531 9.24214844 -7.95394531 9.24214844 -9.0546875 8.8515625 C-11 8 -11 8 -13 6 C-12.9375 3.5 -12.9375 3.5 -12 1 C-7.95664562 -1.61628813 -4.56788952 -0.89566461 0 0 Z " fill="#67645F" transform="translate(413,383)"/>
<path d="M0 0 C1.60495567 0.11442461 3.20898119 0.24194694 4.8125 0.375 C5.70582031 0.44460937 6.59914062 0.51421875 7.51953125 0.5859375 C10 1 10 1 13 3 C13 4.32 13 5.64 13 7 C9.8125 8.25 9.8125 8.25 6 9 C3.125 7.4375 3.125 7.4375 1 5 C0.1875 2.25 0.1875 2.25 0 0 Z " fill="#B5B3AE" transform="translate(136,159)"/>
<path d="M0 0 C0 0.99 0 1.98 0 3 C-1.258125 2.773125 -2.51625 2.54625 -3.8125 2.3125 C-7.00878394 1.91397188 -7.00878394 1.91397188 -10 2.9375 C-11.65747208 6.35603617 -11.29956174 9.22552213 -11 13 C-9.18806994 15.24324836 -9.18806994 15.24324836 -6.6171875 15.1953125 C-5.25980469 15.16050781 -5.25980469 15.16050781 -3.875 15.125 C-2.96492187 15.10695313 -2.05484375 15.08890625 -1.1171875 15.0703125 C-0.06917969 15.03550781 -0.06917969 15.03550781 1 15 C-1.25920675 17.57412647 -1.7871746 17.96847031 -5.375 18.5 C-9 18 -9 18 -11.9375 16.0625 C-14.33535649 12.50204643 -14.8043823 10.38907065 -14.54296875 6.1640625 C-13.93433852 3.73829886 -13.27709401 2.61801275 -11.5 0.875 C-6.92508327 -1.57584825 -4.97016517 -1.11400254 0 0 Z " fill="#706D68" transform="translate(207,383)"/>
<path d="M0 0 C3.29148243 1.13499394 3.9959869 1.99283376 5.75 5.125 C6.1625 6.07375 6.575 7.0225 7 8 C7.66 6.35 8.32 4.7 9 3 C10.12758089 6.38274266 9.81750262 7.76778223 9.0625 11.1875 C8.86785156 12.08855469 8.67320312 12.98960937 8.47265625 13.91796875 C8.31667969 14.60503906 8.16070312 15.29210937 8 16 C3.77401813 14.13533996 2.69470346 12.35780889 1 8 C0.4989974 5.32156305 0.23462845 2.72169003 0 0 Z " fill="#777671" transform="translate(320,215)"/>
<path d="M0 0 C1.32 0.66 2.64 1.32 4 2 C4 5.63 4 9.26 4 13 C3.67 12.34 3.34 11.68 3 11 C1.6846659 10.29848848 0.34882408 9.63474075 -1 9 C-1.99 8.34 -2.98 7.68 -4 7 C-4.99 7.495 -4.99 7.495 -6 8 C-6.33 6.35 -6.66 4.7 -7 3 C-6.401875 2.87625 -5.80375 2.7525 -5.1875 2.625 C-2.73768652 2.04524015 -2.73768652 2.04524015 0 0 Z " fill="#F7F5EF" transform="translate(176,121)"/>
<path d="M0 0 C2.375 0.3125 2.375 0.3125 5 1 C5.66 1.99 6.32 2.98 7 4 C6.01 4.33 5.02 4.66 4 5 C3.54753906 5.48210937 3.09507812 5.96421875 2.62890625 6.4609375 C0.53648177 8.43795248 -1.29715975 8.88377478 -4.0625 9.625 C-7.62062155 10.57905266 -7.62062155 10.57905266 -11 12 C-9.66569274 7.99707821 -7.04720274 6.43728143 -3.65625 4.24609375 C-1.71142135 2.92614649 -1.71142135 2.92614649 0 0 Z " fill="#F5F4EF" transform="translate(325,274)"/>
<path d="M0 0 C0.34287537 3.60019136 0.13805933 5.71187619 -1.4375 9 C-4.77670804 12.90931673 -8.623553 15.36291014 -13 18 C-11.63410386 14.20810923 -9.89545351 11.15618622 -7.5625 7.875 C-6.96566406 7.02679688 -6.36882812 6.17859375 -5.75390625 5.3046875 C-1.71694915 0 -1.71694915 0 0 0 Z " fill="#666560" transform="translate(327,266)"/>
<path d="M0 0 C2.475 0.99 2.475 0.99 5 2 C4.34 2.66 3.68 3.32 3 4 C4.98 5.98 6.96 7.96 9 10 C8.34 7.69 7.68 5.38 7 3 C9.30142435 4.78174788 10.80034391 6.16304165 11.48828125 9.046875 C11.72323102 11.0246611 11.86751458 13.01271872 12 15 C6.95742125 12.80917088 2.83031625 10.95305344 0 6 C-0.25 2.6875 -0.25 2.6875 0 0 Z " fill="#63625C" transform="translate(276,231)"/>
<path d="M0 0 C0.66 0.33 1.32 0.66 2 1 C2.46450943 7.50313209 1.32575612 11.4174808 -2 17 C-2.99 17 -3.98 17 -5 17 C-5.75 14.9375 -5.75 14.9375 -6 12 C-5.07285219 10.20964561 -4.13620028 8.41887899 -3.05859375 6.71484375 C-1.73979599 4.57848871 -0.85623805 2.35465465 0 0 Z " fill="#CBCAC5" transform="translate(337,205)"/>
<path d="M0 0 C0.66 0 1.32 0 2 0 C2.91260261 7.75712216 2.91260261 7.75712216 0.76953125 10.67578125 C-1.6835408 12.72909341 -3.96987606 13.98995869 -7 15 C-8 13 -8 13 -7.44140625 11.0546875 C-7.00634766 9.97574219 -7.00634766 9.97574219 -6.5625 8.875 C-6.27503906 8.15054688 -5.98757813 7.42609375 -5.69140625 6.6796875 C-5.46324219 6.12539062 -5.23507812 5.57109375 -5 5 C-3.68 5 -2.36 5 -1 5 C-0.67 3.35 -0.34 1.7 0 0 Z " fill="#D7D4CF" transform="translate(332,236)"/>
<path d="M0 0 C-0.29950017 2.8951683 -0.80934832 3.83823494 -3.0625 5.75 C-6.95741064 7.40740878 -9.78875961 7.21413087 -14 7 C-14.33 6.34 -14.66 5.68 -15 5 C-13.68 4.67 -12.36 4.34 -11 4 C-11 3.34 -11 2.68 -11 2 C-7.17010894 0.19769832 -4.21878192 -0.19622241 0 0 Z " fill="#DCDBD6" transform="translate(337,279)"/>
<path d="M0 0 C4.95 0 9.9 0 15 0 C15.33 0.66 15.66 1.32 16 2 C13.69 2 11.38 2 9 2 C9 7.61 9 13.22 9 19 C8.34 19 7.68 19 7 19 C7 13.39 7 7.78 7 2 C4.69 2 2.38 2 0 2 C0 1.34 0 0.68 0 0 Z " fill="#615E59" transform="translate(298,382)"/>
<path d="M0 0 C2.97 0 5.94 0 9 0 C9.0809313 2.60478883 9.14045434 5.20706653 9.1875 7.8125 C9.22520508 8.91948242 9.22520508 8.91948242 9.26367188 10.04882812 C9.33747625 15.48575047 9.33747625 15.48575047 7.6875 18 C5.14645011 19.50580734 2.88224911 19.19214994 0 19 C-0.33 18.01 -0.66 17.02 -1 16 C1.31 16 3.62 16 6 16 C6.33 11.38 6.66 6.76 7 2 C4.69 2 2.38 2 0 2 C0 1.34 0 0.68 0 0 Z " fill="#5A5752" transform="translate(88,382)"/>
<path d="M0 0 C1.32 1.32 2.64 2.64 4 4 C3 5.5 3 5.5 1 7 C-4.29912732 7.51281877 -7.70781464 7.4874006 -12 4 C-12 3.34 -12 2.68 -12 2 C-7.05 2.99 -7.05 2.99 -2 4 C-2 3.34 -2 2.68 -2 2 C-3.98 2 -5.96 2 -8 2 C-8 1.67 -8 1.34 -8 1 C-6.865625 1.020625 -5.73125 1.04125 -4.5625 1.0625 C-1.18424326 1.41577477 -1.18424326 1.41577477 0 0 Z " fill="#7D7C77" transform="translate(288,246)"/>
<path d="M0 0 C4.1375105 2.5389269 7.35715148 4.87715631 10 9 C9.67 9.99 9.34 10.98 9 12 C8.34 11.34 7.68 10.68 7 10 C7.309375 11.423125 7.309375 11.423125 7.625 12.875 C7.74875 13.90625 7.8725 14.9375 8 16 C7.34 16.66 6.68 17.32 6 18 C4.9936345 15.56495491 3.99473587 13.12729136 3 10.6875 C2.71382812 9.99720703 2.42765625 9.30691406 2.1328125 8.59570312 C0.91089256 5.58454326 0 3.28113016 0 0 Z " fill="#726E6A" transform="translate(152,139)"/>
<path d="M0 0 C2.56616632 3.84924948 2.55097676 6.4349304 3 11 C4.32 10.01 5.64 9.02 7 8 C5.88793071 10.30968238 4.72622504 12.41573234 3.3125 14.5625 C2.879375 15.366875 2.44625 16.17125 2 17 C2.33 17.99 2.66 18.98 3 20 C2.34 20 1.68 20 1 20 C0.67 20.66 0.34 21.32 0 22 C-1.4375 23.625 -1.4375 23.625 -3 25 C-3.66 25 -4.32 25 -5 25 C-3.87548273 22.0280615 -2.77706209 19.66559313 -1 17 C-1.33 16.34 -1.66 15.68 -2 15 C-1.34 14.67 -0.68 14.34 0 14 C0 9.38 0 4.76 0 0 Z " fill="#9E9B96" transform="translate(299,264)"/>
<path d="M0 0 C4.455 0.99 4.455 0.99 9 2 C9 5 9 5 7.375 6.75 C4.22485359 8.40797179 2.37974305 7.84493576 -1 7 C-1.625 5.1875 -1.625 5.1875 -2 3 C-1.34 2.01 -0.68 1.02 0 0 Z " fill="#F0EFEC" transform="translate(238,272)"/>
<path d="M0 0 C0.66 0 1.32 0 2 0 C5.39366878 5.37330889 5.32712342 9.86946489 5 16 C4.67 16 4.34 16 4 16 C3.67 13.03 3.34 10.06 3 7 C2.67 9.97 2.34 12.94 2 16 C1.67 16 1.34 16 1 16 C0.67 14.35 0.34 12.7 0 11 C-0.33 13.64 -0.66 16.28 -1 19 C-1.33 19 -1.66 19 -2 19 C-2.22262303 12.2718373 -1.95021536 6.46008837 0 0 Z " fill="#66635E" transform="translate(182,112)"/>
<path d="M0 0 C0.66 0.33 1.32 0.66 2 1 C1.67 1.66 1.34 2.32 1 3 C3.64 3 6.28 3 9 3 C7.68 4.65 6.36 6.3 5 8 C4.01 7.67 3.02 7.34 2 7 C2.99 6.01 3.98 5.02 5 4 C3.02 4.99 3.02 4.99 1 6 C1 6.33 1 6.66 1 7 C-0.60875 7.12375 -0.60875 7.12375 -2.25 7.25 C-6.2738451 8.05476902 -7.48169253 8.87729874 -10 12 C-10.66 11.67 -11.32 11.34 -12 11 C-8.17426612 7.07503959 -4.38002676 3.31820209 0 0 Z " fill="#6D6C67" transform="translate(305,294)"/>
<path d="M0 0 C0.66 0 1.32 0 2 0 C1.35990432 3.21502602 0.18839348 5.57737126 -1.5 8.375 C-3.53832504 11.92885201 -4.68107258 14.85394349 -5 19 C-5.33 19 -5.66 19 -6 19 C-6.061875 17.5459375 -6.061875 17.5459375 -6.125 16.0625 C-6.72116842 11.56830731 -9.09469117 8.5105516 -11.72265625 4.91796875 C-13 3 -13 3 -13 1 C-12.34 1 -11.68 1 -11 1 C-9.7109375 2.75 -9.7109375 2.75 -8.375 5 C-7.92898437 5.7425 -7.48296875 6.485 -7.0234375 7.25 C-6.68570313 7.8275 -6.34796875 8.405 -6 9 C-3.12807199 6.32114278 -1.66212727 3.56170128 0 0 Z " fill="#63605B" transform="translate(138,382)"/>
<path d="M0 0 C0.99 0 1.98 0 3 0 C5.24018522 4.48037043 4.34808477 10.37766639 3 15.0625 C2.505 16.5165625 2.505 16.5165625 2 18 C1.01 17.34 0.02 16.68 -1 16 C-1.328125 13.828125 -1.328125 13.828125 -1.25 11.25 C-1.22421875 10.36054687 -1.1984375 9.47109375 -1.171875 8.5546875 C-0.97675996 5.65456847 -0.59887069 2.8446358 0 0 Z " fill="#F4F2ED" transform="translate(182,117)"/>
<path d="M0 0 C2.875 -0.125 2.875 -0.125 6 0 C6.66 0.66 7.32 1.32 8 2 C7.360625 2.61875 6.72125 3.2375 6.0625 3.875 C3.96116416 5.82597612 3.96116416 5.82597612 3 8 C0.4375 8.625 0.4375 8.625 -2 9 C-2.66 7.35 -3.32 5.7 -4 4 C-3.01 4.33 -2.02 4.66 -1 5 C-0.67 3.35 -0.34 1.7 0 0 Z " fill="#F7F6EF" transform="translate(275,396)"/>
<path d="M0 0 C0.66 0 1.32 0 2 0 C3.5121867 3.02437339 3.17263369 5.66241534 3 9 C2 11.4375 2 11.4375 1 13 C0.01 13 -0.98 13 -2 13 C-3.18771723 9.57056481 -2.80226223 7.62215325 -1.5625 4.25 C-1.27503906 3.45078125 -0.98757812 2.6515625 -0.69140625 1.828125 C-0.46324219 1.22484375 -0.23507813 0.6215625 0 0 Z " fill="#8B8984" transform="translate(195,173)"/>
<path d="M0 0 C0.33 0 0.66 0 1 0 C1.12375 1.11375 1.2475 2.2275 1.375 3.375 C1.6465813 7.03103677 1.6465813 7.03103677 4 9 C3.01 9.495 3.01 9.495 2 10 C1.26242872 12.14356654 0.60770443 14.31606222 0 16.5 C-0.60770443 18.68393778 -1.26242872 20.85643346 -2 23 C-2.66 23.33 -3.32 23.66 -4 24 C-3.70703125 22.01432292 -3.4140625 20.02864583 -3.12109375 18.04296875 C-2.86095201 15.7974658 -2.86095201 15.7974658 -4 13 C-4.12781786 10.32605036 -4.04391871 7.67904143 -4 5 C-3.67 5 -3.34 5 -3 5 C-2.67 6.98 -2.34 8.96 -2 11 C-1.67 11 -1.34 11 -1 11 C-0.67 7.37 -0.34 3.74 0 0 Z " fill="#726F6A" transform="translate(195,131)"/>
<path d="M0 0 C0.268125 0.556875 0.53625 1.11375 0.8125 1.6875 C1.4003125 2.8321875 1.4003125 2.8321875 2 4 C2.37125 4.9075 2.7425 5.815 3.125 6.75 C4.72810736 9.13751566 4.72810736 9.13751566 6.8671875 9.421875 C10.03998515 9.53809469 12.23453057 9.5358286 14.875 7.6875 C15.24625 7.130625 15.6175 6.57375 16 6 C16.66 5.01 17.32 4.02 18 3 C18.36585366 7.51219512 18.36585366 7.51219512 16.6875 9.75 C13.03757827 12.45364573 9.37792868 12.45288917 5 12 C2.0625 9.9375 2.0625 9.9375 0 7 C-0.3125 3.1875 -0.3125 3.1875 0 0 Z " fill="#605D58" transform="translate(340,389)"/>
<path d="M0 0 C2.79790503 2.79790503 2.4115071 5.17979846 2.65625 9.00390625 C2.82640625 9.99197266 2.82640625 9.99197266 3 11 C3.66 11.33 4.32 11.66 5 12 C4.67 11.01 4.34 10.02 4 9 C4.99 9.33 5.98 9.66 7 10 C7 10.99 7 11.98 7 13 C1.25 16 1.25 16 -1 16 C-0.67 12.37 -0.34 8.74 0 5 C-0.33 5.66 -0.66 6.32 -1 7 C-1.66 7 -2.32 7 -3 7 C-3 5.02 -3 3.04 -3 1 C-2.01 1.33 -1.02 1.66 0 2 C0 1.34 0 0.68 0 0 Z " fill="#E9E7E2" transform="translate(342,217)"/>
<path d="M0 0 C0.7425 0.350625 1.485 0.70125 2.25 1.0625 C5.1322726 2.04509293 6.21176345 2.0326802 9 1 C9.144375 2.134375 9.28875 3.26875 9.4375 4.4375 C9.61171478 7.80777201 9.61171478 7.80777201 11 9 C11.04063832 10.66617115 11.042721 12.33388095 11 14 C10.01 13.34 9.02 12.68 8 12 C8.66 12 9.32 12 10 12 C8.02 9.69 6.04 7.38 4 5 C3.01 5.495 3.01 5.495 2 6 C1.34 4.02 0.68 2.04 0 0 Z " fill="#75736F" transform="translate(153,157)"/>
<path d="M0 0 C0.99 0.33 1.98 0.66 3 1 C2.54738642 2.43931117 2.08767021 3.87638999 1.625 5.3125 C1.36976563 6.11300781 1.11453125 6.91351563 0.8515625 7.73828125 C0 10 0 10 -2 13 C-2.66 13 -3.32 13 -4 13 C-4.33 13.66 -4.66 14.32 -5 15 C-4.5188509 9.22621075 -2.81532819 5.04140164 0 0 Z " fill="#B7B6B1" transform="translate(338,227)"/>
<path d="M0 0 C1.98 0.66 3.96 1.32 6 2 C5.67 3.65 5.34 5.3 5 7 C-1.0546875 7.1953125 -1.0546875 7.1953125 -3 7 C-3.66 6.34 -4.32 5.68 -5 5 C-4.01 4.67 -3.02 4.34 -2 4 C-0.7018576 2.8509288 -0.7018576 2.8509288 0 0 Z " fill="#EFEDE8" transform="translate(405,392)"/>
<path d="M0 0 C0.33 0.66 0.66 1.32 1 2 C0.67 2.66 0.34 3.32 0 4 C0.66 4.33 1.32 4.66 2 5 C1.02149805 6.02104551 0.02019573 7.0206121 -1 8 C-1.33 8 -1.66 8 -2 8 C-2.33 8.66 -2.66 9.32 -3 10 C-4.32 10 -5.64 10 -7 10 C-9.21874337 11.79206195 -10.394496 13.591744 -12 16 C-12.33 14.68 -12.66 13.36 -13 12 C-12.31292969 11.46890625 -11.62585938 10.9378125 -10.91796875 10.390625 C-10.01691406 9.68421875 -9.11585938 8.9778125 -8.1875 8.25 C-7.29417969 7.55390625 -6.40085937 6.8578125 -5.48046875 6.140625 C-3.25694367 4.22174036 -1.6399079 2.41900036 0 0 Z " fill="#EEECE7" transform="translate(295,331)"/>
<path d="M0 0 C0 0.99 0 1.98 0 3 C-1.32 3 -2.64 3 -4 3 C-4 3.66 -4 4.32 -4 5 C-7.3 5.33 -10.6 5.66 -14 6 C-9.83165391 1.36850434 -6.25481529 -0.35741802 0 0 Z " fill="#EEECE7" transform="translate(355,230)"/>
<path d="M0 0 C0.99 0.33 1.98 0.66 3 1 C-0.70060202 4.92488093 -4.4906925 8.02215543 -9 11 C-9.66 11 -10.32 11 -11 11 C-9.125 6.25 -9.125 6.25 -8 4 C-5.67843403 3.59270772 -3.3431213 3.25561323 -1 3 C-0.67 2.01 -0.34 1.02 0 0 Z " fill="#EBEBE6" transform="translate(198,199)"/>
<path d="M0 0 C0.66 0 1.32 0 2 0 C2 6.27 2 12.54 2 19 C-1 18 -1 18 -2.1875 15.9375 C-2.455625 15.298125 -2.72375 14.65875 -3 14 C-2.34 14 -1.68 14 -1 14 C-0.67 9.38 -0.34 4.76 0 0 Z " fill="#57544F" transform="translate(385,382)"/>
<path d="M0 0 C3.0916909 2.52956528 3.90931332 5.22454612 5 9 C4.01 8.67 3.02 8.34 2 8 C1.67 6.68 1.34 5.36 1 4 C-2.63 4 -6.26 4 -10 4 C-10.66 5.65 -11.32 7.3 -12 9 C-12.66 8.67 -13.32 8.34 -14 8 C-13.01 5.69 -12.02 3.38 -11 1 C-10.34 1 -9.68 1 -9 1 C-9 1.66 -9 2.32 -9 3 C-6.03 3 -3.06 3 0 3 C0 2.01 0 1.02 0 0 Z " fill="#595651" transform="translate(163,392)"/>
<path d="M0 0 C0.99 0.99 1.98 1.98 3 3 C2 6 2 6 0 7 C0 7.99 0 8.98 0 10 C-1.32 10.33 -2.64 10.66 -4 11 C-4.66 10.01 -5.32 9.02 -6 8 C-4.02 5.36 -2.04 2.72 0 0 Z " fill="#F1EFE9" transform="translate(339,237)"/>
<path d="M0 0 C2 1 2 1 3.125 3.375 C4 6 4 6 4 9 C1.69 9 -0.62 9 -3 9 C-2.44271087 5.65626525 -1.64826111 2.96687001 0 0 Z " fill="#F1EEE9" transform="translate(158,385)"/>
<path d="M0 0 C1.11375 0.4640625 1.11375 0.4640625 2.25 0.9375 C5.1643216 2.12849006 5.1643216 2.12849006 9 3 C8.34 6.3 7.68 9.6 7 13 C6.34 11.68 5.68 10.36 5 9 C3.71815218 7.1588004 2.37563866 5.3758454 1.0234375 3.5859375 C0 2 0 2 0 0 Z " fill="#9E9C97" transform="translate(292,251)"/>
<path d="M0 0 C0.66 0 1.32 0 2 0 C5 5.75 5 5.75 5 8 C2.36 8 -0.28 8 -3 8 C-2.01 5.36 -1.02 2.72 0 0 Z " fill="#F3F2ED" transform="translate(280,386)"/>
<path d="M0 0 C-0.99 0.66 -1.98 1.32 -3 2 C0.3 2 3.6 2 7 2 C4 5 4 5 1.73046875 5.00390625 C0.89128906 4.85824219 0.05210937 4.71257812 -0.8125 4.5625 C-5.1046326 3.9717819 -7.96400477 4.19442319 -12 6 C-4.89473684 -1.63157895 -4.89473684 -1.63157895 0 0 Z " fill="#676661" transform="translate(326,283)"/>
<path d="M0 0 C5.66153846 2.46153846 5.66153846 2.46153846 7.375 5.1875 C7.58125 5.785625 7.7875 6.38375 8 7 C5.10765685 7.82638376 3.11257569 8 0 8 C0 5.36 0 2.72 0 0 Z " fill="#EFF0E9" transform="translate(241,119)"/>
<path d="M0 0 C3.465 1.98 3.465 1.98 7 4 C6.01 4.495 6.01 4.495 5 5 C5 5.66 5 6.32 5 7 C4.01 7.495 4.01 7.495 3 8 C3 9.65 3 11.3 3 13 C1.68 12.34 0.36 11.68 -1 11 C-0.34 10.67 0.32 10.34 1 10 C1 9.34 1 8.68 1 8 C0.34 7.67 -0.32 7.34 -1 7 C-0.34 7 0.32 7 1 7 C0.67 4.69 0.34 2.38 0 0 Z " fill="#E7E6E2" transform="translate(271,202)"/>
<path d="M0 0 C0.99 0 1.98 0 3 0 C1.64319732 4.44044513 -0.13353058 6.45164515 -4 9 C-7.3125 10.25 -7.3125 10.25 -10 11 C-5 6 -5 6 -3.3125 4.375 C-1.76081059 2.82891973 -1.76081059 2.82891973 0 0 Z " fill="#ECEBE6" transform="translate(207,128)"/>
<path d="M0 0 C0.33 0 0.66 0 1 0 C1.28875 1.11375 1.5775 2.2275 1.875 3.375 C2.69241329 7.00291092 2.69241329 7.00291092 5 9 C7.44012949 9.24287489 7.44012949 9.24287489 10.125 9.125 C11.03507813 9.10695313 11.94515625 9.08890625 12.8828125 9.0703125 C13.58148438 9.04710937 14.28015625 9.02390625 15 9 C12.74079325 11.57412647 12.2128254 11.96847031 8.625 12.5 C5 12 5 12 2.0625 9.9375 C-0.45543836 6.35134537 -0.4206933 4.29107165 0 0 Z " fill="#5C5953" transform="translate(193,389)"/>
<path d="M0 0 C0.99 1.32 1.98 2.64 3 4 C1.02 6.97 -0.96 9.94 -3 13 C-4.34596733 7.61613068 -2.39931835 4.7986367 0 0 Z " fill="#EFEDE7" transform="translate(195,186)"/>
<path d="M0 0 C-0.33 1.98 -0.66 3.96 -1 6 C-1.99 6 -2.98 6 -4 6 C-5.68798827 7.43750191 -5.68798827 7.43750191 -7 9 C-7.66 8.67 -8.32 8.34 -9 8 C-8.66410006 4.86493389 -7.97334828 3.974751 -5.625 1.75 C-3 0 -3 0 0 0 Z " fill="#9B9A95" transform="translate(211,181)"/>
<path d="M0 0 C2.55263088 2.274694 3.84144815 4.43202693 5.1875 7.5625 C5.53167969 8.34753906 5.87585938 9.13257813 6.23046875 9.94140625 C7 12 7 12 7 14 C6.34 14 5.68 14 5 14 C4.67 12.35 4.34 10.7 4 9 C0.7 9 -2.6 9 -6 9 C-6 8.67 -6 8.34 -6 8 C-3.36 8 -0.72 8 2 8 C1.67 7.236875 1.34 6.47375 1 5.6875 C0 3 0 3 0 0 Z " fill="#53514C" transform="translate(283,387)"/>
<path d="M0 0 C-0.93274109 1.12894876 -1.87140122 2.25300876 -2.8125 3.375 C-3.33457031 4.00148438 -3.85664063 4.62796875 -4.39453125 5.2734375 C-6 7 -6 7 -9 9 C-9 7.68 -9 6.36 -9 5 C-8.34 5 -7.68 5 -7 5 C-7.33 3.68 -7.66 2.36 -8 1 C-3.375 -1.125 -3.375 -1.125 0 0 Z " fill="#DDDCD7" transform="translate(294,324)"/>
<path d="M0 0 C-0.33 0.99 -0.66 1.98 -1 3 C-1.66 3 -2.32 3 -3 3 C-3 3.66 -3 4.32 -3 5 C-6.3 5.33 -9.6 5.66 -13 6 C-11 3 -11 3 -8.5625 2.4375 C-7.2940625 2.2209375 -7.2940625 2.2209375 -6 2 C-3 0 -3 0 0 0 Z " fill="#B3B2AD" transform="translate(310,298)"/>
<path d="M0 0 C0.33 0 0.66 0 1 0 C1 2.31 1 4.62 1 7 C1.66 7 2.32 7 3 7 C3.33 5.68 3.66 4.36 4 3 C5.03023161 6.27800968 5.17153978 7.61403548 3.75 10.8125 C3.1725 11.534375 2.595 12.25625 2 13 C1.01 13 0.02 13 -1 13 C-0.67 8.71 -0.34 4.42 0 0 Z " fill="#575651" transform="translate(308,280)"/>
<path d="M0 0 C2.475 0.99 2.475 0.99 5 2 C4.34 2.66 3.68 3.32 3 4 C4.98 5.98 6.96 7.96 9 10 C8.67 10.66 8.34 11.32 8 12 C5.13266952 10.19511787 2.43224987 8.3682433 0 6 C-0.5 2.625 -0.5 2.625 0 0 Z " fill="#A6A6A0" transform="translate(276,231)"/>
<path d="M0 0 C0.94875 0.04125 1.8975 0.0825 2.875 0.125 C2.215 0.785 1.555 1.445 0.875 2.125 C0.70812552 4.70854218 0.70812552 4.70854218 0.875 7.125 C-0.775 6.795 -2.425 6.465 -4.125 6.125 C-4.75 4.25 -4.75 4.25 -5.125 2.125 C-3.125 0.125 -3.125 0.125 0 0 Z " fill="#E7E4DF" transform="translate(407.125,383.875)"/>
<path d="M0 0 C0.66 0 1.32 0 2 0 C2 0.99 2 1.98 2 3 C2.66 3 3.32 3 4 3 C3.67 5.64 3.34 8.28 3 11 C1.68 10.34 0.36 9.68 -1 9 C-0.67 8.34 -0.34 7.68 0 7 C-0.165 6.175 -0.33 5.35 -0.5 4.5 C-1 2 -1 2 0 0 Z " fill="#54534E" transform="translate(298,243)"/>
<path d="M0 0 C0.66 0 1.32 0 2 0 C2.33 2.97 2.66 5.94 3 9 C2.34 9 1.68 9 1 9 C1 10.32 1 11.64 1 13 C0.34 13 -0.32 13 -1 13 C-1.02696365 11.20841511 -1.04637917 9.41671527 -1.0625 7.625 C-1.07410156 6.62726563 -1.08570313 5.62953125 -1.09765625 4.6015625 C-1 2 -1 2 0 0 Z " fill="#ACABA6" transform="translate(310,274)"/>
<path d="M0 0 C2.30142435 1.78174788 3.80034391 3.16304165 4.48828125 6.046875 C4.72323102 8.0246611 4.86751458 10.01271872 5 12 C3.125 11.6875 3.125 11.6875 1 11 C-1.78637633 6.8204355 -0.79562512 4.85331323 0 0 Z " fill="#CCCBC6" transform="translate(294,239)"/>
<path d="M0 0 C1.65 0 3.3 0 5 0 C1.93879025 4.53059042 -0.79132701 6.35058689 -6 8 C-8.72498236 8.21952572 -11.25850531 8.14428919 -14 8 C-14 7.67 -14 7.34 -14 7 C-10.7 6.67 -7.4 6.34 -4 6 C-4 5.34 -4 4.68 -4 4 C-2.68 3.34 -1.36 2.68 0 2 C0 1.34 0 0.68 0 0 Z " fill="#918F8A" transform="translate(355,229)"/>
<path d="M0 0 C1.12758089 3.38274266 0.81750262 4.76778223 0.0625 8.1875 C-0.13214844 9.08855469 -0.32679688 9.98960937 -0.52734375 10.91796875 C-0.68332031 11.60503906 -0.83929688 12.29210937 -1 13 C-2.32 12.34 -3.64 11.68 -5 11 C-5 9.02 -5 7.04 -5 5 C-4.01 5 -3.02 5 -2 5 C-1.34 3.35 -0.68 1.7 0 0 Z " fill="#615F5A" transform="translate(329,218)"/>
<path d="M0 0 C0 3 0 3 -1.5625 6.5625 C-2.036875 7.696875 -2.51125 8.83125 -3 10 C-2.67 10.66 -2.34 11.32 -2 12 C-2.33 12.66 -2.66 13.32 -3 14 C-2.34 14 -1.68 14 -1 14 C-1.66 15.32 -2.32 16.64 -3 18 C-5.12561242 14.54587982 -5.54144577 12.02216856 -5 8 C-3.53976844 5.18129518 -1.83755326 2.58569994 0 0 Z " fill="#878681" transform="translate(335,208)"/>
<path d="M0 0 C0.309375 0.639375 0.61875 1.27875 0.9375 1.9375 C1.8345163 3.93610821 1.8345163 3.93610821 3 5 C3.33 4.01 3.66 3.02 4 2 C4.66 4.97 5.32 7.94 6 11 C3.5625 10.625 3.5625 10.625 1 10 C-0.60725635 6.78548731 -0.05748185 3.56387464 0 0 Z " fill="#96938E" transform="translate(184,186)"/>
<path d="M0 0 C0.99 0 1.98 0 3 0 C3.66666667 3.33333333 4.33333333 6.66666667 5 10 C3.82460004 9.07347299 2.65989423 8.13336613 1.5 7.1875 C0.52546875 6.40439453 0.52546875 6.40439453 -0.46875 5.60546875 C-2 4 -2 4 -2 1 C-1.34 1.33 -0.68 1.66 0 2 C0 1.34 0 0.68 0 0 Z " fill="#EFEFE7" transform="translate(281,232)"/>
<path d="M0 0 C1 2 1 2 1 5 C0.01 5.495 0.01 5.495 -1 6 C-1.33 6.66 -1.66 7.32 -2 8 C-2.66 8 -3.32 8 -4 8 C-5.62514468 9.45833358 -5.62514468 9.45833358 -7 11 C-7.66 10.67 -8.32 10.34 -9 10 C-8.06862408 8.70391053 -7.1296434 7.41328368 -6.1875 6.125 C-5.66542969 5.40570313 -5.14335937 4.68640625 -4.60546875 3.9453125 C-3 2 -3 2 0 0 Z " fill="#EDEBE6" transform="translate(213,208)"/>
<path d="M0 0 C0.66 0 1.32 0 2 0 C1.67 2.64 1.34 5.28 1 8 C-0.32 8 -1.64 8 -3 8 C-3.33 8.99 -3.66 9.98 -4 11 C-4.33 10.34 -4.66 9.68 -5 9 C-4.00390625 6.8359375 -4.00390625 6.8359375 -2.5625 4.375 C-2.08941406 3.55773437 -1.61632812 2.74046875 -1.12890625 1.8984375 C-0.75636719 1.27195313 -0.38382812 0.64546875 0 0 Z " fill="#D4D2CD" transform="translate(336,208)"/>
<path d="M0 0 C-0.3125 1.875 -0.3125 1.875 -1 4 C-1.99 4.66 -2.98 5.32 -4 6 C-4 5.34 -4 4.68 -4 4 C-6.31 3.67 -8.62 3.34 -11 3 C-7.63114177 -0.36885823 -4.54278442 -0.10095076 0 0 Z " fill="#7E7D78" transform="translate(337,279)"/>
<path d="M0 0 C1.98 1.65 3.96 3.3 6 5 C5.01 6.485 5.01 6.485 4 8 C2.68 7.67 1.36 7.34 0 7 C0.99 7 1.98 7 3 7 C3 6.34 3 5.68 3 5 C0.36 4.67 -2.28 4.34 -5 4 C-2 2 -2 2 0 2 C0 1.34 0 0.68 0 0 Z " fill="#61605B" transform="translate(149,164)"/>
<path d="M0 0 C3.3 0.33 6.6 0.66 10 1 C10 1.33 10 1.66 10 2 C8.02 2.33 6.04 2.66 4 3 C4.66 3.66 5.32 4.32 6 5 C5.67 5.33 5.34 5.66 5 6 C5.66 6.66 6.32 7.32 7 8 C5.1875 7.8125 5.1875 7.8125 3 7 C0 2.82142857 0 2.82142857 0 0 Z " fill="#898681" transform="translate(136,159)"/>
<path d="M0 0 C1.32 1.32 2.64 2.64 4 4 C3.34 5.65 2.68 7.3 2 9 C0.29115995 7.37660195 -1.37446717 5.70680947 -3 4 C-3 3.34 -3 2.68 -3 2 C-2.01 1.34 -1.02 0.68 0 0 Z " fill="#EDEBE6" transform="translate(235,392)"/>
<path d="M0 0 C0.33 0.99 0.66 1.98 1 3 C0.01 4.485 0.01 4.485 -1 6 C-3.62187494 4.95125002 -4.79371361 4.35068687 -6.25 1.875 C-6.4975 1.25625 -6.745 0.6375 -7 0 C-3.98968256 -0.93423645 -3.13349732 -1.04449911 0 0 Z " fill="#F4F3EE" transform="translate(156,163)"/>
<path d="M0 0 C0.33 0 0.66 0 1 0 C2.43069422 7.29654052 1.33979115 13.73633891 0 21 C-0.33 21 -0.66 21 -1 21 C-1.02710123 18.4374282 -1.04688771 15.87514635 -1.0625 13.3125 C-1.07087891 12.59126953 -1.07925781 11.87003906 -1.08789062 11.12695312 C-1.10543632 7.28444618 -0.93524221 3.73360474 0 0 Z " fill="#605D58" transform="translate(287,304)"/>
<path d="M0 0 C4.34464536 0.60825035 8.67551867 1.26167392 13 2 C13 2.66 13 3.32 13 4 C9.53058454 3.54177532 6.32604951 3.10868317 3 2 C2.67 2.66 2.34 3.32 2 4 C1.34 4 0.68 4 0 4 C0 2.68 0 1.36 0 0 Z " fill="#D2D1CC" transform="translate(273,246)"/>
<path d="M0 0 C0.33 0 0.66 0 1 0 C1.25 5.625 1.25 5.625 -1 9 C-1.66 9 -2.32 9 -3 9 C-3.33 8.01 -3.66 7.02 -4 6 C-2.84338843 3.79192337 -1.77322566 1.77322566 0 0 Z " fill="#7F7D78" transform="translate(326,266)"/>
<path d="M0 0 C2.39763185 2.39763185 2.34280586 3.33273498 2.625 6.625 C2.69976562 7.44226563 2.77453125 8.25953125 2.8515625 9.1015625 C2.92503906 10.04128906 2.92503906 10.04128906 3 11 C-1.76058041 5.47158404 -1.76058041 5.47158404 -2 2 C-1.34 1.34 -0.68 0.68 0 0 Z " fill="#E9E8E4" transform="translate(295,230)"/>
<path d="M0 0 C0.86625 0.37125 0.86625 0.37125 1.75 0.75 C-1.10276137 3.68200474 -3.90079784 6.39315404 -7.25 8.75 C-6.89947365 5.59526281 -6.38480924 3.9266466 -4.4375 1.375 C-2.25 -0.25 -2.25 -0.25 0 0 Z " fill="#1D1C1A" transform="translate(212.25,207.25)"/>
<path d="M0 0 C0.99 0.33 1.98 0.66 3 1 C3.33 2.65 3.66 4.3 4 6 C1.36 5.67 -1.28 5.34 -4 5 C-3.67 4.01 -3.34 3.02 -3 2 C-2.01 2 -1.02 2 0 2 C0 1.34 0 0.68 0 0 Z " fill="#CDCCC7" transform="translate(163,171)"/>
<path d="M0 0 C1.32 0.66 2.64 1.32 4 2 C3.67 2.99 3.34 3.98 3 5 C2.67 4.34 2.34 3.68 2 3 C1.34 3 0.68 3 0 3 C-0.66 5.31 -1.32 7.62 -2 10 C-2.66 9.01 -3.32 8.02 -4 7 C-2.68 4.69 -1.36 2.38 0 0 Z " fill="#666560" transform="translate(280,383)"/>
<path d="M0 0 C1.98 0.66 3.96 1.32 6 2 C4.515 4.475 4.515 4.475 3 7 C1.68 5.68 0.36 4.36 -1 3 C-0.67 2.01 -0.34 1.02 0 0 Z " fill="#EEEBE6" transform="translate(130,385)"/>
<path d="M0 0 C0.99 0 1.98 0 3 0 C2.67 2.31 2.34 4.62 2 7 C1.34 7 0.68 7 0 7 C-0.66 9.64 -1.32 12.28 -2 15 C-3.15287155 10.38851382 -2.42852304 8.4442939 -1 4 C-0.65864073 2.66869885 -0.32074044 1.33641852 0 0 Z " fill="#7F7E79" transform="translate(291,289)"/>
<path d="M0 0 C0.66 0.99 1.32 1.98 2 3 C3.65 2.67 5.3 2.34 7 2 C5.8553125 2.8971875 5.8553125 2.8971875 4.6875 3.8125 C2.6516425 5.46959332 0.8021721 7.10297674 -1 9 C-1 8.01 -1 7.02 -1 6 C-1.0309375 4.700625 -1.0309375 4.700625 -1.0625 3.375 C-1 1 -1 1 0 0 Z " fill="#D2D1CC" transform="translate(313,282)"/>
<path d="M0 0 C0.66 0.99 1.32 1.98 2 3 C1.43457996 4.32031595 0.84693528 5.6311301 0.25 6.9375 C-0.23726562 8.03384766 -0.23726562 8.03384766 -0.734375 9.15234375 C-2 11 -2 11 -6 12 C-4.02 8.04 -2.04 4.08 0 0 Z " fill="#41403C" transform="translate(186,208)"/>
<path d="M0 0 C0.66 0.33 1.32 0.66 2 1 C2 2.65 2 4.3 2 6 C-0.97 5.505 -0.97 5.505 -4 5 C-4.33 4.01 -4.66 3.02 -5 2 C-2.625 0.9375 -2.625 0.9375 0 0 Z " fill="#E9E8E4" transform="translate(284,193)"/>
<path d="M0 0 C0.33 0.66 0.66 1.32 1 2 C2.32 2.33 3.64 2.66 5 3 C2.03 3.66 -0.94 4.32 -4 5 C-4 4.34 -4 3.68 -4 3 C-4.66 2.67 -5.32 2.34 -6 2 C-4.02 1.34 -2.04 0.68 0 0 Z " fill="#ECECE7" transform="translate(231,185)"/>
<path d="M0 0 C1.25541557 3.76624671 0.37061958 5.37188934 -1 9 C-1.66 9 -2.32 9 -3 9 C-3.99 6.69 -4.98 4.38 -6 2 C-4.68 2.33 -3.36 2.66 -2 3 C-1.34 2.01 -0.68 1.02 0 0 Z " fill="#BDBAB5" transform="translate(179,183)"/>
<path d="M0 0 C0 0.99 0 1.98 0 3 C-2.64458379 4.32229189 -4.67761301 4.09677194 -7.625 4.0625 C-8.62789062 4.05347656 -9.63078125 4.04445312 -10.6640625 4.03515625 C-11.43492187 4.02355469 -12.20578125 4.01195312 -13 4 C-13 3.01 -13 2.02 -13 1 C-12.31292969 1.09539062 -11.62585938 1.19078125 -10.91796875 1.2890625 C-9.56638672 1.45535156 -9.56638672 1.45535156 -8.1875 1.625 C-6.84751953 1.79902344 -6.84751953 1.79902344 -5.48046875 1.9765625 C-2.74309609 2.23500743 -2.74309609 2.23500743 0 0 Z " fill="#726F6A" transform="translate(155,173)"/>
<path d="M0 0 C0.598125 0.226875 1.19625 0.45375 1.8125 0.6875 C-0.99554268 3.65154505 -3.37065774 6.13249019 -7.1875 7.6875 C-4.27205882 -0.61029412 -4.27205882 -0.61029412 0 0 Z " fill="#8F8E89" transform="translate(204.1875,130.3125)"/>
<path d="M0 0 C0.66 0 1.32 0 2 0 C1.625 2.4375 1.625 2.4375 1 5 C-1.70879335 6.35439668 -4.00933268 6.06501451 -7 6 C-7.33 5.01 -7.66 4.02 -8 3 C-5.69 3 -3.38 3 -1 3 C-0.67 2.01 -0.34 1.02 0 0 Z " fill="#67645F" transform="translate(95,395)"/>
<path d="M0 0 C1.32 0 2.64 0 4 0 C2.25 4.875 2.25 4.875 0 6 C0 4.02 0 2.04 0 0 Z M-3 6 C-2.01 6.33 -1.02 6.66 0 7 C-0.66 8.32 -1.32 9.64 -2 11 C-2.33 9.35 -2.66 7.7 -3 6 Z " fill="#F8F5EF" transform="translate(224,395)"/>
<path d="M0 0 C0.33 0 0.66 0 1 0 C1.33 4.29 1.66 8.58 2 13 C1.34 13 0.68 13 0 13 C-0.33 13.99 -0.66 14.98 -1 16 C-1.09688221 10.55306686 -1.12862175 5.36095333 0 0 Z " fill="#E1DFDA" transform="translate(182,117)"/>
<path d="M0 0 C1.67542976 0.28604898 3.34385343 0.61781233 5 1 C3.37660195 2.70884005 1.70680947 4.37446717 0 6 C-0.66 6 -1.32 6 -2 6 C-1.125 1.125 -1.125 1.125 0 0 Z " fill="#F9F7F2" transform="translate(327,243)"/>
<path d="M0 0 C0.66 0.33 1.32 0.66 2 1 C1.2884375 1.680625 1.2884375 1.680625 0.5625 2.375 C-1.09027808 3.93258204 -1.09027808 3.93258204 -2 6 C-2.66 6 -3.32 6 -4 6 C-4.66 6.66 -5.32 7.32 -6 8 C-6.33 6.35 -6.66 4.7 -7 3 C-4.69631264 1.93347808 -2.35981813 0.93578995 0 0 Z " fill="#131411" transform="translate(215,193)"/>
<path d="M0 0 C2 2 2 2 2 5 C2.99 5.33 3.98 5.66 5 6 C4.34 6 3.68 6 3 6 C3 6.66 3 7.32 3 8 C1.0625 7.6875 1.0625 7.6875 -1 7 C-2 4 -2 4 -1.0625 1.8125 C-0.5365625 0.9153125 -0.5365625 0.9153125 0 0 Z " fill="#F8F5EE" transform="translate(138,152)"/>
<path d="M0 0 C0.33 0 0.66 0 1 0 C1.21718696 2.67863922 1.35440053 4.41628148 -0.0625 6.75 C-2.89753909 8.57905748 -5.68800975 8.68754809 -9 9 C-8.01 8.34 -7.02 7.68 -6 7 C-2.0615125 4.21445047 -2.0615125 4.21445047 0 0 Z " fill="#57544F" transform="translate(357,392)"/>
<path d="M0 0 C0.33 0.99 0.66 1.98 1 3 C-0.27358732 4.71275535 -1.61423077 6.37667033 -3 8 C-3.70885894 9.31138904 -4.39456452 10.63777017 -5 12 C-5 11.34 -5 10.68 -5 10 C-5.66 9.67 -6.32 9.34 -7 9 C-4.69 6.03 -2.38 3.06 0 0 Z " fill="#E3E1DD" transform="translate(266,268)"/>
<path d="M0 0 C2.31 0 4.62 0 7 0 C7.33 1.32 7.66 2.64 8 4 C4.31245243 3.50168276 2.39509338 2.89932357 0 0 Z " fill="#F4F3EE" transform="translate(139,161)"/>
<path d="M0 0 C0.33 0 0.66 0 1 0 C1.042721 1.66611905 1.04063832 3.33382885 1 5 C0 6 0 6 -3.0625 6.0625 C-4.5165625 6.0315625 -4.5165625 6.0315625 -6 6 C-4 4 -2 2 0 0 Z " fill="#C5C4BF" transform="translate(208,185)"/>
<path d="M0 0 C0.99 0.33 1.98 0.66 3 1 C3.33 2.98 3.66 4.96 4 7 C2.02 6.01 0.04 5.02 -2 4 C-1 1 -1 1 0 0 Z " fill="#E8E5E1" transform="translate(155,153)"/>
<path d="M0 0 C0.66 0 1.32 0 2 0 C2.6875 3.25 2.6875 3.25 3 7 C2.01 8.32 1.02 9.64 0 11 C0 7.37 0 3.74 0 0 Z " fill="#6D6B66" transform="translate(192,123)"/>
<path d="M0 0 C0 3 0 3 -1 5 C-0.34 5.66 0.32 6.32 1 7 C0.01 7.33 -0.98 7.66 -2 8 C-2.66 7.67 -3.32 7.34 -4 7 C-3.6875 4.625 -3.6875 4.625 -3 2 C-2.01 1.34 -1.02 0.68 0 0 Z " fill="#E7E6E1" transform="translate(280,344)"/>
<path d="M0 0 C0.33 1.32 0.66 2.64 1 4 C0.1028125 4.37125 0.1028125 4.37125 -0.8125 4.75 C-3.28647521 6.16370012 -4.43370255 7.65055383 -6 10 C-6.33 8.68 -6.66 7.36 -7 6 C-4.69 4.02 -2.38 2.04 0 0 Z " fill="#DDDBD6" transform="translate(289,337)"/>
<path d="M0 0 C1.32 0.33 2.64 0.66 4 1 C4.33 2.32 4.66 3.64 5 5 C3.35 5.33 1.7 5.66 0 6 C0 4.02 0 2.04 0 0 Z " fill="#EEEDE8" transform="translate(311,276)"/>
<path d="M0 0 C1.625 2.5 1.625 2.5 3 5 C1.68 5 0.36 5 -1 5 C-2.75 3 -2.75 3 -4 1 C-2 0 -2 0 0 0 Z " fill="#F1F0EB" transform="translate(295,248)"/>
<path d="M0 0 C0.66 0.33 1.32 0.66 2 1 C2.625 4.0625 2.625 4.0625 3 7 C1.68 7 0.36 7 -1 7 C-0.67 4.69 -0.34 2.38 0 0 Z " fill="#FCFBF6" transform="translate(291,241)"/>
<path d="M0 0 C0.66 0.66 1.32 1.32 2 2 C1.625 4.625 1.625 4.625 1 7 C0.34 7 -0.32 7 -1 7 C-1.33 7.66 -1.66 8.32 -2 9 C-1.125 2.25 -1.125 2.25 0 0 Z " fill="#928F8A" transform="translate(335,233)"/>
<path d="M0 0 C0.33 0 0.66 0 1 0 C1 2.64 1 5.28 1 8 C-0.32 7.67 -1.64 7.34 -3 7 C-1.125 2.25 -1.125 2.25 0 0 Z " fill="#65635E" transform="translate(342,220)"/>
<path d="M0 0 C0.66 0.33 1.32 0.66 2 1 C2.16682272 5.92127034 2.24828052 9.50343896 0 14 C-1.41687119 9.74938644 -0.19320039 7.28148375 1 3 C0.34 3 -0.32 3 -1 3 C-0.67 2.01 -0.34 1.02 0 0 Z " fill="#63605B" transform="translate(337,205)"/>
<path d="M0 0 C0.66 0.66 1.32 1.32 2 2 C1.75 5.5625 1.75 5.5625 1 9 C0.01 9.495 0.01 9.495 -1 10 C-1.9765625 3.9453125 -1.9765625 3.9453125 -2 2 C-1.34 1.34 -0.68 0.68 0 0 Z " fill="#F2F0EB" transform="translate(190,185)"/>
<path d="M0 0 C0.99 0.33 1.98 0.66 3 1 C3.625 3.875 3.625 3.875 4 7 C3.34 7.66 2.68 8.32 2 9 C1.34 6.03 0.68 3.06 0 0 Z " fill="#6B6764" transform="translate(156,148)"/>
<path d="M0 0 C0.66 0.66 1.32 1.32 2 2 C1.0409375 2.433125 1.0409375 2.433125 0.0625 2.875 C-2.15206079 3.82823451 -2.15206079 3.82823451 -3 6 C-3.99 6 -4.98 6 -6 6 C-5.8125 4.125 -5.8125 4.125 -5 2 C-2.4375 0.75 -2.4375 0.75 0 0 Z " fill="#F2F1EC" transform="translate(202,138)"/>
<path d="M0 0 C0.66 1.32 1.32 2.64 2 4 C1.01 5.485 1.01 5.485 0 7 C-1.32 6.67 -2.64 6.34 -4 6 C-2.68 4.02 -1.36 2.04 0 0 Z " fill="#E4E3DF" transform="translate(300,325)"/>
<path d="M0 0 C0.99 0.33 1.98 0.66 3 1 C1.8553125 1.8971875 1.8553125 1.8971875 0.6875 2.8125 C-1.3483575 4.46959332 -3.1978279 6.10297674 -5 8 C-5.66 7.67 -6.32 7.34 -7 7 C-4.69 4.69 -2.38 2.38 0 0 Z " fill="#45433E" transform="translate(300,298)"/>
<path d="M0 0 C1.10348268 3.31044803 0.99444068 5.65506316 0 9 C-0.99 9.495 -0.99 9.495 -2 10 C-1.85950482 8.52031676 -1.71245174 7.04125484 -1.5625 5.5625 C-1.48128906 4.73878906 -1.40007812 3.91507813 -1.31640625 3.06640625 C-1 1 -1 1 0 0 Z " fill="#C4C2BD" transform="translate(330,220)"/>
<path d="M0 0 C3.875 1.75 3.875 1.75 5 4 C4.34 4.66 3.68 5.32 3 6 C2.34 6 1.68 6 1 6 C0.01 6.495 0.01 6.495 -1 7 C-0.67 4.69 -0.34 2.38 0 0 Z " fill="#E5E5DC" transform="translate(278,207)"/>
<path d="M0 0 C0.33 0.99 0.66 1.98 1 3 C1.66 3 2.32 3 3 3 C1.92598892 5.91517292 1.22189824 7.77810176 -1 10 C-0.67 6.7 -0.34 3.4 0 0 Z " fill="#44433E" transform="translate(192,183)"/>
<path d="M0 0 C0.66 1.32 1.32 2.64 2 4 C2.66 3.67 3.32 3.34 4 3 C3.67 4.65 3.34 6.3 3 8 C2.01 8 1.02 8 0 8 C-0.98120464 4.94736336 -0.98120464 3.05263664 0 0 Z " fill="#6D6C67" transform="translate(193,178)"/>
<path d="M0 0 C0.66 0 1.32 0 2 0 C2 0.66 2 1.32 2 2 C3.32 2.33 4.64 2.66 6 3 C6 3.99 6 4.98 6 6 C4.125 5.8125 4.125 5.8125 2 5 C0.75 2.4375 0.75 2.4375 0 0 Z " fill="#F6F6F1" transform="translate(157,167)"/>
<path d="M0 0 C3.00617269 3.00617269 2.59585316 5.82381598 3 10 C0.51280729 7.08025204 -0.58572305 4.83206182 -1 1 C-0.67 0.67 -0.34 0.34 0 0 Z " fill="#F0EEE9" transform="translate(162,154)"/>
<path d="M0 0 C2.875 -0.125 2.875 -0.125 6 0 C6.66 0.66 7.32 1.32 8 2 C5.50907189 3.24546405 4.58919267 2.7767578 2 2 C1.67 2.66 1.34 3.32 1 4 C0.67 2.68 0.34 1.36 0 0 Z " fill="#EDEDE8" transform="translate(275,396)"/>
<path d="M0 0 C0.66 0 1.32 0 2 0 C1.34 1.32 0.68 2.64 0 4 C-3.3 4 -6.6 4 -10 4 C-10 3.67 -10 3.34 -10 3 C-8.72125 2.87625 -7.4425 2.7525 -6.125 2.625 C-2.65209064 2.30957601 -2.65209064 2.30957601 0 0 Z " fill="#726F6A" transform="translate(234,390)"/>
<path d="M0 0 C6.875 0.875 6.875 0.875 8 2 C8.04080783 3.99958364 8.04254356 6.00045254 8 8 C7.79375 7.401875 7.5875 6.80375 7.375 6.1875 C5.49073918 3.18981233 3.18867916 2.38638224 0 1 C0 0.67 0 0.34 0 0 Z " fill="#55524D" transform="translate(405,391)"/>
<path d="M0 0 C2.475 0.495 2.475 0.495 5 1 C5.33 1.99 5.66 2.98 6 4 C5.34 4.66 4.68 5.32 4 6 C2.68 4.02 1.36 2.04 0 0 Z " fill="#171413" transform="translate(177,322)"/>
<path d="M0 0 C0.99 0.66 1.98 1.32 3 2 C-0.18762365 4.12508244 -2.26512223 4.5020163 -6 5 C-6 4.34 -6 3.68 -6 3 C-4.02 2.01 -2.04 1.02 0 0 Z " fill="#F6F4F0" transform="translate(293,320)"/>
<path d="M0 0 C0.33 0 0.66 0 1 0 C1.28875 0.94875 1.5775 1.8975 1.875 2.875 C2.76825109 6.05211578 2.76825109 6.05211578 5 8 C3.02 8.99 3.02 8.99 1 10 C-0.60725635 6.78548731 -0.05748185 3.56387464 0 0 Z " fill="#25231F" transform="translate(205,266)"/>
<path d="M0 0 C0.33 0.99 0.66 1.98 1 3 C1.66 3.33 2.32 3.66 3 4 C3 5.65 3 7.3 3 9 C2.34 9 1.68 9 1 9 C-1.125 3.375 -1.125 3.375 0 0 Z " fill="#B1AFAA" transform="translate(322,219)"/>
<path d="M0 0 C0.99 0.99 1.98 1.98 3 3 C2.34 4.32 1.68 5.64 1 7 C0.34 6.67 -0.32 6.34 -1 6 C-1.042721 4.33388095 -1.04063832 2.66617115 -1 1 C-0.67 0.67 -0.34 0.34 0 0 Z " fill="#F3F1ED" transform="translate(176,218)"/>
<path d="M0 0 C0.33 0 0.66 0 1 0 C1.12375 1.11375 1.2475 2.2275 1.375 3.375 C1.6465813 7.03103677 1.6465813 7.03103677 4 9 C3.01 9.495 3.01 9.495 2 10 C1.34 10.99 0.68 11.98 0 13 C0 8.71 0 4.42 0 0 Z " fill="#2C2B26" transform="translate(195,131)"/>
<path d="M0 0 C0.66 0.66 1.32 1.32 2 2 C1.67028521 5.29714793 1.3773161 6.6226839 -1 9 C-1.125 2.25 -1.125 2.25 0 0 Z " fill="#ECEBE6" transform="translate(197,129)"/>
<path d="M0 0 C1.98 0.66 3.96 1.32 6 2 C6 2.66 6 3.32 6 4 C4.68 4.33 3.36 4.66 2 5 C1.34 3.35 0.68 1.7 0 0 Z " fill="#F2F0E9" transform="translate(288,395)"/>
<path d="M0 0 C0 0.99 0 1.98 0 3 C-0.99 3 -1.98 3 -3 3 C-3.33 3.99 -3.66 4.98 -4 6 C-4.99 5.67 -5.98 5.34 -7 5 C-7 4.34 -7 3.68 -7 3 C-4.69 2.01 -2.38 1.02 0 0 Z " fill="#F1EFEA" transform="translate(356,233)"/>
<path d="M0 0 C0.66 0.66 1.32 1.32 2 2 C1.01 2 0.02 2 -1 2 C-0.67 2.99 -0.34 3.98 0 5 C-1.98 5 -3.96 5 -6 5 C-2.25 1.125 -2.25 1.125 0 0 Z " fill="#E1E0DB" transform="translate(347,231)"/>
<path d="M0 0 C0.99 0 1.98 0 3 0 C2.67 1.98 2.34 3.96 2 6 C1.01 5.67 0.02 5.34 -1 5 C-0.67 3.35 -0.34 1.7 0 0 Z " fill="#7E7C77" transform="translate(208,181)"/>
<path d="M0 0 C2.5 2.3125 2.5 2.3125 5 5 C5 5.99 5 6.98 5 8 C3.0625 7.375 3.0625 7.375 1 6 C0.25 2.875 0.25 2.875 0 0 Z " fill="#EFECE7" transform="translate(165,177)"/>
<path d="M0 0 C0.33 0 0.66 0 1 0 C1 1.65 1 3.3 1 5 C-1.64 4.34 -4.28 3.68 -7 3 C-7 2.67 -7 2.34 -7 2 C-4.69 2 -2.38 2 0 2 C0 1.34 0 0.68 0 0 Z " fill="#1F1D1A" transform="translate(274,179)"/>
<path d="M0 0 C0.66 0.33 1.32 0.66 2 1 C0.1875 4 0.1875 4 -2 7 C-2.99 7 -3.98 7 -5 7 C-3.70700306 4.11562221 -2.34058637 2.12780579 0 0 Z " fill="#E3E1DF" transform="translate(282,119)"/>
</svg>
