<svg version="1.2" xmlns="http://www.w3.org/2000/svg" viewBox="0 0 2550 3300" width="2550" height="3300">
	<style>
		.s0 { fill: #ccff00 } 
		.s1 { fill: #ccff00;stroke: #beea0e;stroke-miterlimit:100 } 
	</style>
	<g id="Page 1">
		<g id="Group 1">
		</g>
		<g id="Group 3">
			<g id="Group 4">
				<path id="Object 5" fill-rule="evenodd" class="s0" d="m1713.19 1572.23h-56.19v138.2h-40.24v-0.58c-3.69 0.13-7.26 0.23-10.59 0.13-3.75-10.66-5.51-28.34-8.14-40.25-8.45-38.2-22.83-78.1-41.29-110.88-18.09-32.13-65.03-92.36-96.52-104.46 4.15-34.47 44.46-120.54-10.43-179.75-38.44-41.47-101.4-50.24-174.42-49.28-92.03 1.2-211.8 17.67-208.79 126.44 1.08 39.15 14.18 57.69 21.95 88.75-22.04 11.75-32.48 22.37-32.68 22.33 32.8-14.38 60.74-27.12 95.62-35.36 198.01-46.77 355.84 78.17 385.55 281.32 2.42 16.54 3.13 31.47 3.84 48.1l65 0.56v0.1h10.9 40.24v133.76h56.19v-133.76h16.65v73.16h56.2v-73.16h17.45v32.09h56.19v-113.32h-56.19v34.06h-17.45v-74.85h-56.2v74.85h-16.65zm-572.72-175.47c-6.24-13.36-11.42-31.69-9.92-46.48 8.3-82.06 214.55-70.38 262.52-33.78 38.46 29.35 19.93 66.56 8.91 89.74-4.83 10.15-8.85 11.29-18.23 8.73-13.75-3.75-28.17-9.4-43.16-12.31-74.19-14.44-110.38-5.2-173.25 7.65-15.36 3.14-19.89 1.42-26.87-13.55z"/>
				<path id="Object 6" fill-rule="evenodd" class="s0" d="m944.14 1765.61c3.52 27.54 8.57 51.35 18.32 76.31 23.3 59.58 70.86 116.67 127.53 147 49.57 26.53 111.58 37.93 168.18 29.22 15.02-2.31 34.96-7.91 54.92-15.28 25.94-9.58 59.81-27.95 67.14-34.46-0.72 0.58-55.16 19.08-71.09 22.24-56.46 11.2-115.84 8.02-167.68-18.94-59.63-31.03-109.84-90.99-130.93-155.03-10.08-30.57-15.13-63.75-17.44-98.42l-68.67 0.19v0.01h-31.42v-138.2h-56.19v138.2h-16.65v-74.85h-56.2v74.85h-17.45v-34.06h-56.19v113.32h56.19v-32.09h17.45v73.16h56.2v-73.16h16.65v133.76h56.19v-133.76h51.14z"/>
				<path id="Object 7" fill-rule="evenodd" class="s0" d="m1048.12 2000.47c4.4 5.68 19.36 15.28 27.44 20.65 21.16 12.83 29.6 18.09 54.66 27.87 99.21 38.72 210.59 33.6 302.4-14.54 27.54-14.44 52.1-32.37 73.49-53.62 34.34-34.13 58.01-73.81 74.34-119.11 8.27-22.93 14.55-46.56 19.1-68.78l-68.62 0.3c-2.43 38.37-14.34 71.36-33.56 104.33-72.92 125.12-229.88 179.24-369.9 136.69-19.36-5.89-35.73-12.77-53.16-20.98-6.06-2.85-21.72-11.09-26.19-12.81z"/>
				<path id="Object 8" fill-rule="evenodd" class="s0" d="m945.13 1677.42l55.83-0.07c40.67-150.76 196.17-240.13 341.5-187.54 21.92 7.93 36.41 18.03 52.95 25.91-4.77-7.12-32.85-29.96-57.13-41.59-21.56-10.33-44.99-18.19-64.22-21.64-123.09-22.14-253.51 50.93-304.4 153.85-9.72 19.65-21.21 46.23-24.53 71.08z"/>
				<path id="Object 9" fill-rule="evenodd" class="s0" d="m1226.67 1729.95l105.69 104.2 154.07 0.06-0.03-104.34h-101.33c5.88 8.68 27.37 29.31 37.41 39.35 2.84 2.85 5.28 4.92 7.02 6.57 6.52 6.19 1.58 6.18-3.49 6.39-12.13 0.48-41.71 1.62-57.46 1.72-13.81 0.09-15-1.36-24.49-10.18l-41.59-43.7c6.04-8.81 14.61-15.11 22.64-23.37 22.68-23.3 22.68-28.5 40.76-28.45l70.72 0.09 50.72-50.62-154.95-0.62z"/>
				<path id="Object 10" fill-rule="evenodd" class="s1" d="m1067.88 1834.21l50.75 0.2 0.55-86.34c0 0 56.5 85.86 86.5 85.86 30 0 73.19-0.27 73.19-0.27l-101.99-103.78 102.64-103.39-72.14 0.56-87.43 86.75-0.85-86.95-51.22 0.15z"/>
			</g>
		</g>
		<g id="Group 13">
		</g>
		<g id="Group 15">
		</g>
		<g id="Group 17">
		</g>
	</g>
</svg>