<?xml version="1.0" encoding="UTF-8"?>
<svg version="1.1" xmlns="http://www.w3.org/2000/svg" width="1563" height="1563">
<path d="M0 0 C515.79 0 1031.58 0 1563 0 C1563 515.79 1563 1031.58 1563 1563 C1047.21 1563 531.42 1563 0 1563 C0 1047.21 0 531.42 0 0 Z " fill="#FEFEFE" transform="translate(0,0)"/>
<path d="M0 0 C1.44738758 1.19647185 2.88470658 2.40521246 4.3125 3.625 C5.51132812 4.58986328 5.51132812 4.58986328 6.734375 5.57421875 C16.64290033 13.89799546 24.2608188 24.72161326 29.3125 36.625 C29.67988281 37.44871094 30.04726563 38.27242187 30.42578125 39.12109375 C38.69208418 59.35099146 37.12606564 84.43372556 29.125 104.4375 C26.10546178 111.57824551 22.32984469 117.68438928 17.3125 123.625 C16.57773437 124.49769531 15.84296875 125.37039063 15.0859375 126.26953125 C4.62817287 138.25463264 -7.47731111 147.48611265 -22.6875 152.625 C-24.04681641 153.181875 -24.04681641 153.181875 -25.43359375 153.75 C-33.87659639 156.78568634 -41.90291098 156.98834891 -50.8125 157 C-51.99183105 157.00161133 -53.17116211 157.00322266 -54.38623047 157.00488281 C-65.02098112 156.87122445 -75.21180223 155.81387639 -85.0625 151.625 C-85.77946045 151.32231201 -86.4964209 151.01962402 -87.23510742 150.70776367 C-107.93793206 141.5373081 -124.84422184 123.60411247 -133.1875 102.625 C-140.95485575 82.03247544 -141.47083687 57.99237709 -133.4375 37.3125 C-123.80081363 16.08884549 -106.63860597 -1.95679741 -85.00390625 -10.9765625 C-56.49222974 -21.65673048 -24.50598197 -18.42203158 0 0 Z " fill="#FE924E" transform="translate(733.6875,601.375)"/>
<path d="M0 0 C8.12867557 -0.21090708 15.99171573 0.07953509 24.015625 1.4609375 C24.71067139 1.57856445 25.40571777 1.69619141 26.12182617 1.81738281 C30.19390136 2.60277258 33.20025255 3.86495086 36.640625 6.1484375 C37.671875 6.5609375 38.703125 6.9734375 39.765625 7.3984375 C58.79679034 15.45482715 76.34813498 33.79275893 84.11328125 52.7421875 C85.37803906 56.19353826 86.56895362 59.63239206 87.640625 63.1484375 C88.19556641 64.87513672 88.19556641 64.87513672 88.76171875 66.63671875 C90.14755541 72.35715595 89.93853878 78.22256989 89.90136719 84.07495117 C89.89066773 86.07793813 89.90232055 88.08100325 89.9140625 90.08398438 C89.90000216 97.110641 89.49400374 103.36879185 87.640625 110.1484375 C87.37572266 111.38787109 87.37572266 111.38787109 87.10546875 112.65234375 C83.93071734 125.0456326 76.08752369 136.73567721 67.640625 146.1484375 C67.11339844 146.756875 66.58617187 147.3653125 66.04296875 147.9921875 C52.52149264 162.60999951 31.9695397 172.30816217 12.28637695 173.32104492 C-18.33979476 174.4441457 -18.33979476 174.4441457 -32.359375 167.1484375 C-32.97506348 166.84341309 -33.59075195 166.53838867 -34.22509766 166.22412109 C-45.93052101 160.35462198 -56.30887369 152.52420496 -64.359375 142.1484375 C-64.93171875 141.41238281 -65.5040625 140.67632813 -66.09375 139.91796875 C-81.06296756 119.61679537 -86.23962662 95.81607443 -82.859375 70.88671875 C-79.3931752 51.72414827 -69.95344754 36.66845312 -56.359375 23.1484375 C-55.59496094 22.38402344 -54.83054687 21.61960937 -54.04296875 20.83203125 C-38.65682495 6.35262153 -20.6500193 0.71664591 0 0 Z " fill="#FE924E" transform="translate(877.359375,584.8515625)"/>
<path d="M0 0 C0.93714844 -0.03673828 1.87429688 -0.07347656 2.83984375 -0.11132812 C9.06040214 -0.15047849 12.57614871 1.03707268 17.36083984 5.0378418 C20.60691299 8.30642077 20.8241902 10.93245851 21.1875 15.4375 C21.00693836 20.49322595 19.75303715 24.42442694 16.3515625 28.296875 C11.29520178 32.77719463 6.64469773 33.26318236 0.0234375 33.359375 C-3.35589622 33.57739653 -5.99756956 34.28143884 -9.125 35.5625 C-10.4748008 37.34515886 -10.4748008 37.34515886 -11.125 39.5625 C-11.46454712 40.25855347 -11.80409424 40.95460693 -12.15393066 41.67175293 C-13.42614235 45.4589616 -13.41705247 49.05280417 -13.41210938 53.00195312 C-13.41894241 53.84011566 -13.42577545 54.6782782 -13.43281555 55.5418396 C-13.44637926 57.35821361 -13.45544813 59.17462554 -13.46052551 60.99104309 C-13.4688452 63.87677096 -13.48938344 66.76218697 -13.51306152 69.64782715 C-13.56124277 75.78600473 -13.59414891 81.92421412 -13.625 88.0625 C-13.66081298 95.1523551 -13.7030661 102.2420597 -13.76094055 109.33177185 C-13.78080038 112.1548372 -13.78928911 114.97778319 -13.79724121 117.80090332 C-13.87865807 131.76058052 -14.00880383 145.28275408 -21.9375 157.3125 C-23.48571267 160.24595559 -22.98978547 161.40720168 -22.125 164.5625 C-21.37793717 166.06468749 -20.58291481 167.54366108 -19.75 169 C-13.78371471 180.75241957 -13.69212185 193.22500073 -13.71430969 206.09543991 C-13.71885354 208.96379926 -13.70460896 211.83156282 -13.68591309 214.69985962 C-13.64326983 221.81179936 -13.63187914 228.9237214 -13.61968994 236.0357666 C-13.60813379 242.07617745 -13.58452301 248.11631023 -13.54499817 254.15660477 C-13.53150337 256.97060362 -13.53558213 259.78421802 -13.54040527 262.59823608 C-13.53106183 264.33160891 -13.5208923 266.06497755 -13.50976562 267.79833984 C-13.51591385 268.570448 -13.52206207 269.34255615 -13.52839661 270.13806152 C-13.45669994 276.52931955 -12.36704805 282.32045195 -7.6875 287 C-4.15763446 288.54818664 -2.1515533 288.77751764 1.625 288.9375 C8.22501546 289.29092549 12.80450515 291.34202963 17.875 295.5625 C21.09902699 299.92441887 21.61558907 304.25494501 20.875 309.5625 C19.08049516 315.44448809 16.70638729 318.06745388 11.875 321.5625 C5.16333163 324.91833418 -7.11302693 323.48469461 -14.2109375 321.69140625 C-26.07800123 317.69642343 -35.05683978 311.66429948 -41.125 300.5625 C-45.99434671 290.15348093 -47.26775423 280.81119811 -47.28271484 269.46606445 C-47.28779556 268.60632019 -47.29287628 267.74657593 -47.29811096 266.86077881 C-47.30873522 265.0111572 -47.31738587 263.16152338 -47.32423019 261.31188393 C-47.33611664 258.38161843 -47.35558933 255.45149395 -47.37734985 252.52128601 C-47.43867038 244.19612306 -47.49309417 235.87098071 -47.52636719 227.5456543 C-47.54731858 222.43880076 -47.58261103 217.33221551 -47.62712479 212.22551537 C-47.64126457 210.28511903 -47.65000265 208.34467537 -47.65317917 206.40423012 C-47.65809193 203.69278448 -47.68125463 200.98205235 -47.70849609 198.27075195 C-47.70548996 197.47424728 -47.70248383 196.67774261 -47.6993866 195.85710144 C-47.78255454 190.27831797 -49.07960357 186.42605501 -52.375 181.8125 C-55.83367851 179.34201535 -59.82474806 178.70895695 -63.96875 178.2421875 C-70.7158949 177.44139 -74.7156702 176.09839178 -79.69921875 171.4140625 C-82.94654473 167.19698712 -82.61259115 161.66004379 -82.125 156.5625 C-80.4109802 151.78128688 -78.32233377 149.36072252 -74.125 146.5625 C-71.15208808 145.56818995 -68.13833435 144.96335572 -65.0625 144.375 C-63.46742324 144.04829753 -61.87237033 143.72147861 -60.27734375 143.39453125 C-59.57601318 143.25764893 -58.87468262 143.1207666 -58.15209961 142.97973633 C-57.1486853 142.77320435 -57.1486853 142.77320435 -56.125 142.5625 C-55.40256104 142.41514404 -54.68012207 142.26778809 -53.93579102 142.1159668 C-51.97679494 141.72627576 -51.97679494 141.72627576 -51 139.875 C-50.71125 139.111875 -50.4225 138.34875 -50.125 137.5625 C-49.78254745 136.70499649 -49.44009491 135.84749298 -49.08726501 134.96400452 C-47.91336224 130.81438302 -47.84007021 127.1134322 -47.85375977 122.82592773 C-47.84591965 121.53920418 -47.84591965 121.53920418 -47.83792114 120.22648621 C-47.82771029 118.37028765 -47.82190584 116.5140607 -47.82003975 114.65783501 C-47.81635998 111.70901698 -47.79958624 108.76053048 -47.77928162 105.81178284 C-47.72404464 97.42984217 -47.69330816 89.04785207 -47.66870117 80.66577148 C-47.65271928 75.52994719 -47.62238485 70.39435619 -47.58393669 65.25865364 C-47.57237407 63.31287193 -47.56635711 61.36704829 -47.56625557 59.42123222 C-47.56507844 42.85876543 -46.85707564 25.57388324 -34.875 12.6875 C-24.75409581 3.56756435 -13.4336157 0.02794788 0 0 Z " fill="#232020" transform="translate(551.125,510.4375)"/>
<path d="M0 0 C5.14890463 1.7547467 9.40640107 4.5668781 13.6875 7.875 C14.6465625 8.57109375 14.6465625 8.57109375 15.625 9.28125 C25.60996598 17.02820636 28.79790149 29.91176303 30.6875 41.875 C30.93690712 44.98020134 30.96872561 48.06261995 30.95874023 51.17675781 C30.96396698 52.04640167 30.96919373 52.91604553 30.97457886 53.81204224 C30.98473756 55.68019073 30.99058489 57.54836688 30.99246025 59.41654205 C30.99615394 62.37635772 31.01295856 65.33584727 31.03321838 68.29559326 C31.08836824 76.70351099 31.11937828 85.11147383 31.14379883 93.51953125 C31.15968183 98.6793881 31.1898959 103.83900743 31.22856331 108.99874115 C31.24019302 110.95868153 31.24614348 112.91866434 31.24624443 114.87863922 C31.24643673 117.61628571 31.26471739 120.35327593 31.28686523 123.09082031 C31.28228806 123.89510468 31.27771088 124.69938904 31.272995 125.52804565 C31.33515372 130.36701778 32.027422 133.67762679 34.6875 137.875 C39.06844407 141.60947238 42.39597136 142.34283486 48.0625 142.6875 C54.33714021 143.37851249 57.93546995 144.48945863 62.30078125 149.08203125 C65.74014655 153.52898526 66.25424271 157.30203006 65.6875 162.875 C63.73618001 168.79548225 61.24860837 171.83467085 55.6875 174.875 C52.13543971 175.79164673 48.51651508 176.15654392 44.87695312 176.56445312 C39.6235615 177.29889879 37.15064147 178.59927785 33.6875 182.875 C31.14282006 186.69201992 31.40940263 189.76926691 31.43212891 194.19165039 C31.42850845 195.04099655 31.424888 195.89034271 31.42115784 196.76542664 C31.41425812 198.61348966 31.41175948 200.46157309 31.41310501 202.30964851 C31.41407188 205.25120296 31.40110246 208.19239349 31.38412476 211.13389587 C31.33794552 219.49914598 31.31331508 227.86436322 31.30664062 236.22973633 C31.30157157 241.3492052 31.27703721 246.46830247 31.24131393 251.58764458 C31.23162447 253.52371405 31.22912348 255.45983542 31.23448563 257.39592171 C31.28201599 275.42919197 30.31006184 294.86422209 17.3125 308.75 C5.7202749 319.37620634 -8.05270067 321.5238033 -23.3203125 321.21484375 C-26.54487397 321.03570145 -28.93035226 320.61707095 -31.6875 318.8125 C-36.80801554 313.08239927 -37.99876652 308.11069789 -37.80078125 300.53515625 C-37.00673831 296.20921034 -34.71457292 293.55140141 -31.3125 290.875 C-28.18061579 288.93714664 -25.71439732 288.6356419 -22.0625 288.5 C-16.01977748 288.04760366 -11.47318881 286.36946519 -6.71875 282.6171875 C-2.84885875 277.82282223 -3.02682216 272.0273544 -3.05712891 266.18603516 C-3.05350845 265.33303833 -3.049888 264.4800415 -3.04615784 263.60119629 C-3.03928423 261.75481863 -3.03675457 259.90842075 -3.03810501 258.06203079 C-3.03907541 255.12498705 -3.02606344 252.18830421 -3.00912476 249.25131226 C-2.96303489 240.90243386 -2.93829464 232.55359115 -2.93164062 224.20458984 C-2.9265811 219.08815473 -2.90210168 213.9720932 -2.86631393 208.85578537 C-2.85661111 206.92085403 -2.85413107 204.98587065 -2.85948563 203.05092239 C-2.89980972 187.74962894 -2.09452479 173.92257968 6.6875 160.875 C6.35644369 158.37109522 5.91332931 157.15215415 4.3125 155.1875 C-3.68685712 143.80379948 -2.60952271 127.08347184 -2.64802551 113.78761673 C-2.6564312 110.97850837 -2.67703521 108.16970739 -2.70056152 105.36068726 C-2.75649226 98.39526957 -2.79219454 91.42977759 -2.82818604 84.4642334 C-2.8594987 78.54959308 -2.89870746 72.6351075 -2.94844055 66.7205925 C-2.96839874 63.96260193 -2.97680141 61.20473321 -2.98474121 58.44668579 C-2.99771684 56.75042276 -3.01123762 55.05416378 -3.02539062 53.35791016 C-3.02391777 52.22005066 -3.02391777 52.22005066 -3.02241516 51.0592041 C-3.07672183 46.36939521 -3.68851152 42.33345389 -5.3125 37.875 C-7.65329757 35.51852999 -7.65329757 35.51852999 -10.3125 33.875 C-11.3025 33.215 -12.2925 32.555 -13.3125 31.875 C-15.24297748 31.65493114 -17.18369115 31.51808263 -19.125 31.4375 C-25.69134436 30.95549398 -29.84948293 29.52444189 -34.6875 25 C-38.11886046 20.71307486 -38.20843457 16.39257481 -37.98046875 11.05078125 C-36.9251428 6.03335436 -34.2399497 3.03828528 -30.3125 -0.125 C-22.8830134 -3.8397433 -7.86348721 -1.91517597 0 0 Z " fill="#242020" transform="translate(1028.3125,512.125)"/>
<path d="M0 0 C1.44747167 1.11214073 2.88683768 2.23503588 4.3125 3.375 C5.199375 3.973125 6.08625 4.57125 7 5.1875 C16.68761469 14.35145984 23.3499874 27.33161582 23.79174805 40.6328125 C23.92807702 57.82630138 18.73533177 72.46642783 6.796875 85.0859375 C-6.19974623 97.06081178 -20.57034342 100.00766698 -37.6875 99.375 C-50.64447703 98.47664959 -62.72197023 91.98811871 -71.41015625 82.4921875 C-82.74936689 68.9848201 -86.84284795 54.13293513 -85.48046875 36.73046875 C-83.49665444 21.84096133 -74.6618054 10.13013669 -63.5 0.625 C-44.27931592 -13.68034159 -19.424196 -13.28419904 0 0 Z " fill="#FEFEFD" transform="translate(911.6875,626.625)"/>
<path d="M0 0 C1.77179392 1.21891193 3.52291309 2.46852788 5.25 3.75 C6.43916016 4.62785156 6.43916016 4.62785156 7.65234375 5.5234375 C16.62479336 12.79342231 24.79763211 25.13105684 26.25 36.75 C27.48504594 55.47632833 24.4419628 70.24164637 12.125 84.875 C2.93453551 94.64947394 -8.38496938 101.31201414 -21.96484375 102.0546875 C-37.5355408 102.49442033 -50.94044584 99.94328027 -63.0625 89.4375 C-73.01310427 79.9341139 -81.60441811 68.34932726 -82.1484375 54.15625 C-82.15630201 52.18750021 -82.14828206 50.21862783 -82.125 48.25 C-82.13660156 47.26902344 -82.14820313 46.28804687 -82.16015625 45.27734375 C-82.13462259 38.88541643 -81.19360721 33.65063142 -78.75 27.75 C-78.32460938 26.70972656 -77.89921875 25.66945313 -77.4609375 24.59765625 C-69.72772759 8.47549642 -58.07920146 -0.07627482 -41.75 -6.25 C-27.92413489 -10.23599153 -12.06838122 -7.28436822 0 0 Z " fill="#FEFEFD" transform="translate(709.75,624.25)"/>
<path d="M0 0 C1.2684375 0.99 1.2684375 0.99 2.5625 2 C4.0165625 2.99 4.0165625 2.99 5.5 4 C12.18999095 9.75445132 16.22145501 18.51713593 17.35546875 27.140625 C18.41832378 41.82005674 16.81917749 53.97919919 7.296875 65.81640625 C-1.06254179 74.63585384 -10.73304678 79.65871251 -22.953125 80.37109375 C-35.55436749 80.69524994 -45.63486978 78.83818682 -55.6953125 70.65625 C-63.10644262 63.61069132 -68.39578012 53.96328699 -68.67578125 43.62109375 C-68.97684789 29.58894721 -67.28084012 19.31775402 -58.4375 8 C-57.95925781 7.38382813 -57.48101563 6.76765625 -56.98828125 6.1328125 C-42.23976831 -10.5846455 -18.04232291 -10.49735151 0 0 Z " fill="#FE924F" transform="translate(600.4375,952)"/>
<path d="M0 0 C8.52025371 4.58271998 15.54282244 10.33248341 19.04296875 19.5703125 C23.3592516 34.02151363 23.40221946 49.21878331 16.2421875 62.796875 C9.83592699 72.62973997 0.89078039 78.76394651 -10.50878906 81.47460938 C-13.54189013 81.98678961 -16.39284603 82.06707957 -19.46875 82.0703125 C-20.64824219 82.07160156 -21.82773437 82.07289062 -23.04296875 82.07421875 C-24.26628906 82.07035156 -25.48960937 82.06648438 -26.75 82.0625 C-28.58498047 82.06830078 -28.58498047 82.06830078 -30.45703125 82.07421875 C-32.22626953 82.07228516 -32.22626953 82.07228516 -34.03125 82.0703125 C-35.10439453 82.06918457 -36.17753906 82.06805664 -37.28320312 82.06689453 C-40.25 81.9375 -40.25 81.9375 -45.25 80.9375 C-45.25 52.8875 -45.25 24.8375 -45.25 -4.0625 C-32.18464691 -8.4176177 -12.14759991 -5.80824325 0 0 Z " fill="#FD9250" transform="translate(681.25,950.0625)"/>
<path d="M0 0 C3.6178859 1.89989539 6.15582515 4.09264268 7.828125 7.87109375 C9.14765464 14.33434541 6.53344789 20.27189611 4.32421875 26.25390625 C-1.63308145 43.10656374 -0.48233457 60.51915544 6 77 C8.4836894 83.65892806 8.29755975 88.62634466 5.75 95.25 C2.96989874 99.61873055 -0.14006836 103.07132083 -5 105 C-10.66993242 105.70410926 -16.96603595 106.29506631 -21.9375 103.0625 C-31.74117806 94.4478819 -36.58970826 80.6205249 -38 68 C-38.22079395 64.56084196 -38.2958922 61.13330002 -38.3125 57.6875 C-38.31797852 56.86403076 -38.32345703 56.04056152 -38.32910156 55.19213867 C-38.22841987 46.55174039 -36.34705649 38.98055181 -32.8125 31.125 C-32.50570312 30.43591553 -32.19890625 29.74683105 -31.8828125 29.03686523 C-29.11995977 22.98748642 -25.85413203 17.42496981 -22 12 C-21.41089844 11.1646875 -20.82179688 10.329375 -20.21484375 9.46875 C-14.67160418 1.96405642 -9.68648324 -3.12250586 0 0 Z " fill="#231F1F" transform="translate(771,437)"/>
<path d="M0 0 C3.63636204 1.88901924 6.17792072 4.10766657 7.828125 7.90625 C9.11154663 14.27582399 6.53780844 19.65947413 4.28125 25.5390625 C-1.69744153 41.68882071 -0.581711 61.63009302 6.1875 77.3125 C8.15607874 82.00798158 9.1222461 85.95417594 8 91 C5.72923025 96.43219478 2.69308461 101.85222964 -2.80859375 104.44921875 C-8.56802428 105.89677616 -15.24490614 106.30313929 -20.67578125 103.734375 C-30.86158424 96.1335405 -35.64992457 83.01551384 -38 71 C-40.00294184 52.75146782 -36.22827908 35.70761667 -27 20 C-26.39542969 18.95714844 -25.79085937 17.91429687 -25.16796875 16.83984375 C-12.71832759 -3.5910572 -12.71832759 -3.5910572 0 0 Z " fill="#231F1F" transform="translate(822,437)"/>
<path d="M0 0 C5.61 0 11.22 0 17 0 C20.45766541 7.46586977 23.29482225 15.09228436 26.0625 22.8359375 C26.54014635 24.16446526 27.01809831 25.49288318 27.49633789 26.82119751 C28.74714183 30.29777052 29.99396182 33.77575869 31.23986816 37.25408936 C32.49874055 40.76657984 33.76118066 44.27778715 35.0234375 47.7890625 C36.44851395 51.75368169 37.87328101 55.7184085 39.29516602 59.68417358 C39.72240967 60.87555939 40.14965332 62.06694519 40.58984375 63.29443359 C40.99444824 64.42564636 41.39905273 65.55685913 41.81591797 66.72235107 C42.59946491 68.89128172 43.39520468 71.05584983 44.20361328 73.21563721 C44.7544458 74.68985138 44.7544458 74.68985138 45.31640625 76.19384766 C45.6419751 77.0527359 45.96754395 77.91162415 46.30297852 78.79653931 C47 81 47 81 47 84 C41.06 84 35.12 84 29 84 C26.45036952 77.88088684 24.62954307 72.51817229 23 66 C13.43 66.33 3.86 66.66 -6 67 C-7.60390487 72.21952809 -7.60390487 72.21952809 -9.20092773 77.44116211 C-10.88888889 82.88888889 -10.88888889 82.88888889 -12 84 C-13.34267413 84.08631874 -14.68974322 84.10706473 -16.03515625 84.09765625 C-17.12775757 84.09390991 -17.12775757 84.09390991 -18.24243164 84.09008789 C-19.1730542 84.08098389 -20.10367676 84.07187988 -21.0625 84.0625 C-22.65681725 84.05101129 -24.25113714 84.03988509 -25.84545898 84.02905273 C-27.92272949 84.01452637 -27.92272949 84.01452637 -30 84 C-25.09696881 69.01946531 -19.90836964 54.15313843 -14.57397461 39.32104492 C-13.30067852 35.77962088 -12.0319454 32.23658484 -10.76367188 28.69335938 C-9.94297536 26.40615417 -9.12202123 24.11904138 -8.30078125 21.83203125 C-7.92778397 20.79021194 -7.55478668 19.74839264 -7.17048645 18.67500305 C-4.90814836 12.39381797 -2.51328148 6.1852031 0 0 Z " fill="#232020" transform="translate(1064,947)"/>
<path d="M0 0 C-0.33 6.27 -0.66 12.54 -1 19 C-2.258125 18.071875 -3.51625 17.14375 -4.8125 16.1875 C-12.09926035 11.34872507 -21.2033977 8.51685194 -30 10 C-33.64909261 11.26455203 -33.64909261 11.26455203 -36 14 C-36.79107279 17.85454094 -36.24101618 21.27695145 -35 25 C-29.90650965 27.44879344 -24.17775712 28.14349312 -18.625 28.8125 C-9.23913495 30.16441917 -0.90571333 33.79355369 5.01171875 41.38671875 C8.48257668 47.05258565 7.55933858 54.62225436 7 61 C4.98209779 67.94954664 1.0619943 73.08820026 -5 77 C-15.63553376 82.77227687 -30.28499408 82.5584312 -41.90625 80.2109375 C-46.42844351 78.74458267 -50.46500078 77.25390511 -54 74 C-54.45410156 71.73168945 -54.45410156 71.73168945 -54.390625 69.11328125 C-54.37773438 68.17548828 -54.36484375 67.23769531 -54.3515625 66.27148438 C-54.31804688 65.29501953 -54.28453125 64.31855469 -54.25 63.3125 C-54.23195313 62.32443359 -54.21390625 61.33636719 -54.1953125 60.31835938 C-54.14815447 57.87793158 -54.08236042 55.43945231 -54 53 C-53.34 53 -52.68 53 -52 53 C-51.319375 54.299375 -51.319375 54.299375 -50.625 55.625 C-47.23057257 60.82813694 -41.75217496 63.16460207 -36 65 C-27.89881328 66.24496178 -19.29221504 65.93779612 -12 62 C-9.51961093 58.2794164 -9.53662797 56.40203429 -10 52 C-12.08179649 48.65102303 -14.30899142 47.75253561 -18 46.875 C-20.62849267 46.37001865 -23.24899933 45.96682243 -25.90234375 45.61328125 C-35.39809819 44.281187 -43.70182068 41.63415675 -50 34 C-54.2834503 27.72780491 -54.86086175 21.47069683 -54 14 C-51.44865758 6.00274282 -47.00151939 0.91527542 -39.85546875 -3.25 C-26.59931041 -9.5812995 -12.55745309 -5.88630613 0 0 Z " fill="#242121" transform="translate(956,951)"/>
<path d="M0 0 C15.18 0 30.36 0 46 0 C46 5.61 46 11.22 46 17 C31.15 16.505 31.15 16.505 16 16 C16 21.28 16 26.56 16 32 C23.92 32 31.84 32 40 32 C40 36.95 40 41.9 40 47 C32.08 47 24.16 47 16 47 C16 54.59 16 62.18 16 70 C26.56 69.67 37.12 69.34 48 69 C48 74.28 48 79.56 48 85 C32.16 85 16.32 85 0 85 C0 56.95 0 28.9 0 0 Z " fill="#FE914E" transform="translate(721,946)"/>
<path d="M0 0 C0.84103271 0.00201416 1.68206543 0.00402832 2.54858398 0.00610352 C9.48014456 0.11800014 15.51382007 1.19441003 21.75 4.3125 C21.75 10.5825 21.75 16.8525 21.75 23.3125 C19.11 21.9925 16.47 20.6725 13.75 19.3125 C4.94501885 16.27395634 -5.22908057 15.43443103 -13.875 19.375 C-20.34914075 23.18205287 -23.2838699 28.17459291 -25.25 35.3125 C-25.48717807 37.94903758 -25.63130049 40.42984178 -25.625 43.0625 C-25.62338867 43.76479736 -25.62177734 44.46709473 -25.62011719 45.19067383 C-25.43257425 53.1952639 -23.1248852 60.61040554 -17.25 66.3125 C-9.20817642 71.00356375 -0.52627003 71.49146785 8.578125 69.78125 C13.81038876 68.30466023 18.08091357 66.06169445 22.75 63.3125 C22.91225719 66.06486274 23.0309328 68.80767476 23.125 71.5625 C23.17527344 72.33980469 23.22554687 73.11710938 23.27734375 73.91796875 C23.33537793 76.18130188 23.27980484 78.11004166 22.75 80.3125 C15.86229294 86.91595249 6.04899326 87.87510288 -3.0625 87.8125 C-4.03010254 87.80677979 -4.99770508 87.80105957 -5.99462891 87.79516602 C-16.47271343 87.53387373 -24.84826651 84.67354651 -32.50390625 77.3203125 C-41.01011544 67.53912341 -43.81867709 56.6023511 -43.6875 43.875 C-43.68137695 42.86381104 -43.67525391 41.85262207 -43.66894531 40.81079102 C-43.43253188 29.55660245 -40.57181442 21.04368476 -32.8125 12.6875 C-31.966875 11.90375 -31.12125 11.12 -30.25 10.3125 C-29.528125 9.631875 -28.80625 8.95125 -28.0625 8.25 C-24.07781549 5.50499512 -19.78816063 3.9366838 -15.25 2.3125 C-14.34636719 1.95027344 -13.44273437 1.58804688 -12.51171875 1.21484375 C-8.28208406 0.04472924 -4.36846625 -0.02803894 0 0 Z " fill="#FE924F" transform="translate(498.25,944.6875)"/>
<path d="M0 0 C0.84120178 1.89541626 0.84120178 1.89541626 1.67993164 4.40869141 C1.99688492 5.34701813 2.3138382 6.28534485 2.64039612 7.25210571 C2.97691696 8.27492645 3.31343781 9.29774719 3.66015625 10.3515625 C4.0100914 11.39895599 4.36002655 12.44634949 4.7205658 13.52548218 C5.46130793 15.74869018 6.19830511 17.97314884 6.93188477 20.19873047 C8.05192886 23.59296473 9.18613922 26.98221355 10.32226562 30.37109375 C11.0399214 32.5309648 11.75674497 34.69111259 12.47265625 36.8515625 C12.81120132 37.86223785 13.1497464 38.87291321 13.49855042 39.91421509 C15.15236361 44.95911625 16.47267837 49.71204628 17 55 C17.66 55 18.32 55 19 55 C19.15082031 53.86691406 19.15082031 53.86691406 19.3046875 52.7109375 C20.26437242 47.58902358 21.69994638 42.63465306 23.125 37.625 C23.43195801 36.53896484 23.73891602 35.45292969 24.05517578 34.33398438 C25.03189462 30.88790976 26.01498114 27.44371076 27 24 C27.32935547 22.8459668 27.65871094 21.69193359 27.99804688 20.50292969 C28.95219112 17.16720361 29.91217893 13.83323095 30.875 10.5 C31.17293457 9.46182129 31.47086914 8.42364258 31.77783203 7.35400391 C32.05481934 6.40187012 32.33180664 5.44973633 32.6171875 4.46875 C32.86065918 3.62763672 33.10413086 2.78652344 33.35498047 1.91992188 C34 0 34 0 35 -1 C36.34267413 -1.08631874 37.68974322 -1.10706473 39.03515625 -1.09765625 C39.84404297 -1.09443359 40.65292969 -1.09121094 41.48632812 -1.08789062 C42.33646484 -1.07951172 43.18660156 -1.07113281 44.0625 -1.0625 C44.91650391 -1.05798828 45.77050781 -1.05347656 46.65039062 -1.04882812 C48.76695663 -1.03700373 50.88348685 -1.01906769 53 -1 C50.69152844 7.04559198 47.98831156 14.9312152 45.21875 22.828125 C44.75897604 24.14778144 44.29963424 25.46758853 43.84069824 26.78753662 C41.91092275 32.33747695 39.9791442 37.88668485 38.03369141 43.43115234 C36.8364041 46.84426686 35.64749293 50.26020577 34.46363831 53.6780014 C33.80324088 55.57737681 33.13412873 57.47371524 32.46472168 59.36993408 C29.64186749 67.53837276 27.66902172 75.52055549 26 84 C20.39 84 14.78 84 9 84 C8.55914063 81.99292969 8.11828125 79.98585938 7.6640625 77.91796875 C4.51265367 64.7790318 -0.37932363 52.09802154 -4.8928833 39.37908936 C-5.87582403 36.6044841 -6.85245543 33.82767773 -7.82880592 31.05074787 C-9.84896028 25.30539396 -11.87392268 19.56172791 -13.90869141 13.8215332 C-14.26524811 12.81500198 -14.62180481 11.80847076 -14.98916626 10.7714386 C-15.65774886 8.93836205 -16.37134986 7.12102709 -17.13070679 5.32365417 C-18 3 -18 3 -18 0 C-15.3753399 -0.19430855 -12.75053235 -0.38073238 -10.125 -0.5625 C-9.00544922 -0.64661133 -9.00544922 -0.64661133 -7.86328125 -0.73242188 C-2.2265625 -1.11328125 -2.2265625 -1.11328125 0 0 Z " fill="#242020" transform="translate(796,947)"/>
<path d="M0 0 C5.98318679 4.23462127 10.67735805 10.0832737 11.96484375 17.390625 C12.8080602 28.10303686 12.60162347 37.20744705 5.71484375 45.765625 C-0.00870808 51.70203619 -4.3894298 52.55733572 -12.47265625 52.765625 C-21.33145094 52.53020427 -26.16089019 51.68024471 -32.34765625 45.203125 C-39.18437135 36.82176896 -40.11236102 29.15056929 -39.03515625 18.390625 C-37.08145403 10.25571801 -32.7360282 3.36904434 -25.53515625 -1.046875 C-17.75220046 -4.4976673 -7.48666069 -3.95942577 0 0 Z " fill="#FEFEFE" transform="translate(588.03515625,963.609375)"/>
<path d="M0 0 C19.47 0 38.94 0 59 0 C59 4.95 59 9.9 59 15 C52.07 15 45.14 15 38 15 C38 38.1 38 61.2 38 85 C32.39 85 26.78 85 21 85 C21 61.9 21 38.8 21 15 C10.605 15.495 10.605 15.495 0 16 C0 10.72 0 5.44 0 0 Z " fill="#211D1D" transform="translate(973,946)"/>
<path d="M0 0 C18.32673267 0 18.32673267 0 24.84375 5.578125 C30.89778317 12.16633756 32.50020578 18.66624255 32.375 27.375 C32.38660156 28.17421875 32.39820313 28.9734375 32.41015625 29.796875 C32.37161226 37.73693651 30.80441839 45.23756655 25 51 C17.74195738 55.97170527 10.76957557 58.24157074 2 57 C1.34 56.67 0.68 56.34 0 56 C0 37.52 0 19.04 0 0 Z " fill="#FEFEFD" transform="translate(653,961)"/>
<path d="M0 0 C3.78861388 1.72496141 5.45742349 3.68694576 8 7 C8.804375 7.763125 9.60875 8.52625 10.4375 9.3125 C18.28788269 17.54582818 21.11803099 26.84579731 21.3125 38.125 C20.96175156 51.03254269 17.298986 61.87630724 8.25 71.4375 C3.62706162 75.77498586 -1.10133805 78.71664699 -7 81 C-8.31871094 81.54333984 -8.31871094 81.54333984 -9.6640625 82.09765625 C-20.11046557 84.92332265 -33.70502836 84.55373582 -43.40625 79.703125 C-48.35311396 76.454883 -54.29588284 72.40823433 -57 67 C-56.29875 67.28875 -55.5975 67.5775 -54.875 67.875 C-53.451875 68.431875 -53.451875 68.431875 -52 69 C-51.13761719 69.34546875 -50.27523437 69.6909375 -49.38671875 70.046875 C-38.17808551 73.20132311 -24.46929924 71.81467773 -14 67 C-3.91237792 61.33647156 3.30901396 51.85118212 7 41 C9.95559523 26.76796184 7.98972973 12.22144429 0 0 Z " fill="#C8DAF0" transform="translate(609,960)"/>
<path d="M0 0 C5.61 0 11.22 0 17 0 C17 27.72 17 55.44 17 84 C11.39 84 5.78 84 0 84 C0 56.28 0 28.56 0 0 Z " fill="#211D1C" transform="translate(864,947)"/>
<path d="M0 0 C0.495 0.99 0.495 0.99 1 2 C2.98 2 4.96 2 7 2 C7 3.65 7 5.3 7 7 C9.31 7 11.62 7 14 7 C12.04375838 13.6777365 9.93523534 20.28371894 7.671875 26.86328125 C7.35978088 27.77595261 7.04768677 28.68862396 6.72613525 29.62895203 C5.73585444 32.52407563 4.74310039 35.41834251 3.75 38.3125 C1.48267634 44.92826292 -0.77992351 51.54559937 -3.03344727 58.16607666 C-3.68340412 60.07174391 -4.3356239 61.97664071 -4.98999023 63.88079834 C-5.95239046 66.68286729 -6.90664325 69.48759995 -7.859375 72.29296875 C-8.14653381 73.12306961 -8.43369263 73.95317047 -8.72955322 74.8084259 C-10.64517655 80.48450734 -11.92172898 86.10586667 -13 92 C-18.61 92 -24.22 92 -30 92 C-30 90.02 -30 88.04 -30 86 C-31.98 86 -33.96 86 -36 86 C-36 84.35 -36 82.7 -36 81 C-32.37 81 -28.74 81 -25 81 C-24.94457031 79.68902344 -24.88914062 78.37804688 -24.83203125 77.02734375 C-24.03816444 69.20521915 -21.2403782 61.94661464 -18.6875 54.5625 C-18.15306004 52.99152067 -17.61954668 51.42022583 -17.08691406 49.84863281 C-15.69032623 45.73681262 -14.28060952 41.62962107 -12.86737061 37.52349854 C-11.41673379 33.30306512 -9.97674347 29.07899976 -8.53515625 24.85546875 C-5.703277 16.56575969 -2.8563613 8.28130474 0 0 Z " fill="#C7DAF0" transform="translate(847,950)"/>
<path d="M0 0 C0.66 0 1.32 0 2 0 C2 1.98 2 3.96 2 6 C3.98 5.67 5.96 5.34 8 5 C8 7.31 8 9.62 8 12 C9.65 12 11.3 12 13 12 C13 16.95 13 21.9 13 27 C6.07 27 -0.86 27 -8 27 C-8 50.1 -8 73.2 -8 97 C-13.61 97 -19.22 97 -25 97 C-25 95.02 -25 93.04 -25 91 C-26.98 91 -28.96 91 -31 91 C-31 89.35 -31 87.7 -31 86 C-27.37 86 -23.74 86 -20 86 C-20 62.9 -20 39.8 -20 16 C-13.07 16 -6.14 16 1 16 C0.67 10.72 0.34 5.44 0 0 Z " fill="#C6D9EF" transform="translate(1031,945)"/>
<path d="M0 0 C10.26178881 8.38814759 15.56825518 16.69524933 17 30 C18.04756277 42.60249757 15.82778705 54.64322381 7.9765625 64.81640625 C0.91707249 72.61532901 -7.62752961 77.2585492 -18 79 C-20.15609752 79.0907434 -22.31465111 79.13064194 -24.47265625 79.1328125 C-26.31633789 79.13474609 -26.31633789 79.13474609 -28.19726562 79.13671875 C-30.11055664 79.13091797 -30.11055664 79.13091797 -32.0625 79.125 C-33.34189453 79.12886719 -34.62128906 79.13273437 -35.93945312 79.13671875 C-37.16728516 79.13542969 -38.39511719 79.13414063 -39.66015625 79.1328125 C-41.34057007 79.13112061 -41.34057007 79.13112061 -43.05493164 79.12939453 C-45.55705021 79.01946144 -47.6185775 78.73012405 -50 78 C-50 76.02 -50 74.04 -50 72 C-51.98 72 -53.96 72 -56 72 C-56 70.68 -56 69.36 -56 68 C-55.23445801 67.98541748 -54.46891602 67.97083496 -53.68017578 67.95581055 C-50.16131431 67.88065298 -46.6433323 67.78421764 -43.125 67.6875 C-41.92101562 67.66494141 -40.71703125 67.64238281 -39.4765625 67.61914062 C-26.09056141 67.21901559 -13.49595122 63.96143902 -4 54 C3.25871717 45.37019181 5.69677885 33.33598299 5.33203125 22.3125 C4.5633373 14.64364739 3.04591442 7.09830492 0 0 Z " fill="#C8DAF0" transform="translate(697,964)"/>
<path d="M0 0 C1.98 0.66 3.96 1.32 6 2 C6.625 4 6.625 4 7 6 C8.32 6.66 9.64 7.32 11 8 C11 14.27 11 20.54 11 27 C8.36 25.68 5.72 24.36 3 23 C-5.74868676 19.98088318 -15.92312915 19.14141281 -24.5625 22.9375 C-29.97302537 26.0936398 -33.57013755 30.92837949 -35.640625 36.82421875 C-37.00289774 45.07189173 -36.59031272 54.06716728 -34 62 C-39.65216479 60.67007887 -42.08571275 56.67290887 -45 52 C-49.22825573 44.10725597 -49.49403923 33.80747508 -47.2734375 25.17578125 C-44.71054093 19.03941507 -41.071805 13.82712577 -35.125 10.625 C-25.39985557 6.77377808 -14.84281943 8.44998482 -5.29296875 11.9296875 C-3 13 -3 13 -1 15 C-0.67 10.05 -0.34 5.1 0 0 Z " fill="#C7DAEF" transform="translate(520,952)"/>
<path d="M0 0 C3.28511183 1.44045172 5.52418811 3.22636043 8.0625 5.75 C9.06990234 6.73226562 9.06990234 6.73226562 10.09765625 7.734375 C15.26990659 13.8943446 15.58621604 19.43025455 15.41015625 27.23046875 C14.64780281 34.23685991 11.89644152 39.51995633 6.8125 44.375 C-0.94223499 50.11400837 -8.88789233 51.67974906 -18.375 51.5 C-19.38216064 51.49009033 -20.38932129 51.48018066 -21.42700195 51.4699707 C-30.26462364 51.24936927 -39.18093795 50.22337387 -46 44 C-46 43.01 -46 42.02 -46 41 C-46.804375 40.71125 -47.60875 40.4225 -48.4375 40.125 C-51 39 -51 39 -52 37 C-51.39994141 37.14074951 -50.79988281 37.28149902 -50.18164062 37.42651367 C-43.88806724 38.80703552 -37.93380674 39.33625852 -31.5 39.3125 C-30.62730469 39.32861328 -29.75460937 39.34472656 -28.85546875 39.36132812 C-20.03787022 39.36785968 -11.67334985 37.58394713 -4.76171875 31.8359375 C1.85551445 24.9399295 2.5323305 17.57052534 2.37109375 8.41796875 C2.02390047 5.22013592 1.36994749 2.88844351 0 0 Z " fill="#C8DAF0" transform="translate(960,992)"/>
<path d="M0 0 C3.23221652 2.29361786 5.61425112 5.15020511 7.91015625 8.35546875 C4.42865633 9.51596872 1.94392083 9.28083437 -1.71484375 9.10546875 C-8.42750638 9.07083169 -12.9159031 9.99788547 -18.08984375 14.35546875 C-24.25661856 20.61544418 -26.24485034 28.39707794 -26.40234375 36.98046875 C-26.29494881 41.80193635 -25.76857101 45.84388923 -24.08984375 50.35546875 C-30.26672167 48.8580438 -34.01144475 43.73924817 -37.203125 38.54296875 C-40.7270534 30.79366649 -40.33594387 20.7864649 -37.46484375 12.91796875 C-34.40748187 6.40771215 -30.25676991 0.98718169 -23.5546875 -1.984375 C-15.79694635 -4.06212184 -7.17611068 -3.7154816 0 0 Z " fill="#C7D9EF" transform="translate(588.08984375,963.64453125)"/>
<path d="M0 0 C1.65 0 3.3 0 5 0 C5.33 1.98 5.66 3.96 6 6 C7.65 6 9.3 6 11 6 C11.32598427 6.99906372 11.32598427 6.99906372 11.65855408 8.01831055 C17.801549 26.78644845 24.41561874 45.34493317 31.25335693 63.87188721 C32.82132255 68.12099842 34.3822431 72.37265242 35.94140625 76.625 C36.35064835 77.72787354 36.75989044 78.83074707 37.18153381 79.96704102 C37.55289963 80.98080811 37.92426544 81.9945752 38.30688477 83.0390625 C38.63503677 83.92803223 38.96318878 84.81700195 39.30128479 85.73291016 C40 88 40 88 40 91 C34.06 91 28.12 91 22 91 C21.01 88.03 21.01 88.03 20 85 C18.35 84.67 16.7 84.34 15 84 C14.67 82.68 14.34 81.36 14 80 C18.62 80 23.24 80 28 80 C25.58549741 73.18673114 23.16840891 66.37438322 20.75 59.5625 C20.3905127 58.54956879 20.03102539 57.53663757 19.66064453 56.49301147 C15.89765899 45.89387258 12.12607256 35.2984736 8.265625 24.734375 C7.84250031 23.57608437 7.84250031 23.57608437 7.41082764 22.39439392 C6.09788987 18.80399847 4.77997724 15.21550923 3.45605469 11.62915039 C2.99149493 10.36345925 2.52697418 9.09775379 2.0625 7.83203125 C1.66160156 6.74639893 1.26070312 5.6607666 0.84765625 4.54223633 C0 2 0 2 0 0 Z " fill="#C9DCF0" transform="translate(1083,951)"/>
<path d="M0 0 C18.72591006 0 18.72591006 0 24.94921875 5.82421875 C26.40452173 7.49662987 27.74042747 9.17720398 29 11 C28.67 11.66 28.34 12.32 28 13 C22.39 12.34 16.78 11.68 11 11 C11 25.85 11 40.7 11 56 C11.66 56.33 12.32 56.66 13 57 C11.20841511 57.02696365 9.41671527 57.04637917 7.625 57.0625 C6.62726562 57.07410156 5.62953125 57.08570313 4.6015625 57.09765625 C2 57 2 57 0 56 C0 37.52 0 19.04 0 0 Z " fill="#CBDBEF" transform="translate(653,961)"/>
<path d="M0 0 C0 2.97 0 5.94 0 9 C1.32 8.34 2.64 7.68 4 7 C4.16225719 9.75236274 4.2809328 12.49517476 4.375 15.25 C4.42527344 16.02730469 4.47554687 16.80460937 4.52734375 17.60546875 C4.58537793 19.86880188 4.52980484 21.79754166 4 24 C-2.88813949 30.60386707 -12.70068145 31.56181803 -21.8125 31.5 C-22.77937744 31.49500488 -23.74625488 31.49000977 -24.74243164 31.48486328 C-34.90850625 31.23718105 -43.16198387 28.55512006 -50.6640625 21.4921875 C-52.45307628 19.49393234 -53.8024562 17.39508759 -55 15 C-53.948125 15.433125 -53.948125 15.433125 -52.875 15.875 C-51.92625 16.24625 -50.9775 16.6175 -50 17 C-49.17113281 17.34546875 -48.34226562 17.6909375 -47.48828125 18.046875 C-42.73145013 19.34661385 -38.22375202 19.38245824 -33.3125 19.375 C-32.33240967 19.37483887 -31.35231934 19.37467773 -30.3425293 19.37451172 C-21.83828103 19.2401634 -15.12771322 17.75180881 -8 13 C-7.80477282 11.01519031 -7.61152393 9.03008805 -7.44140625 7.04296875 C-6.65291379 3.39357446 -3.8818349 0 0 0 Z " fill="#C8DAF0" transform="translate(528,1012)"/>
<path d="M0 0 C1.20970459 0.00523682 2.41940918 0.01047363 3.66577148 0.01586914 C4.97094727 0.0190918 6.27612305 0.02231445 7.62084961 0.02563477 C9.00952213 0.03399138 10.39819401 0.04245634 11.78686523 0.05102539 C13.17944179 0.05603873 14.57202005 0.06060193 15.96459961 0.06469727 C19.38456394 0.07653105 22.80444367 0.09301659 26.22436523 0.11352539 C26.73051821 1.38192065 27.22905622 2.65335641 27.72436523 3.92602539 C28.00280273 4.6337207 28.28124023 5.34141602 28.56811523 6.07055664 C29.22436523 8.11352539 29.22436523 8.11352539 29.22436523 11.11352539 C19.32436523 11.60852539 19.32436523 11.60852539 9.22436523 12.11352539 C7.62046036 17.33305348 7.62046036 17.33305348 6.0234375 22.5546875 C4.33547635 28.00241428 4.33547635 28.00241428 3.22436523 29.11352539 C0.36168956 29.18677707 -2.47635376 29.20590744 -5.33813477 29.17602539 C-6.14444336 29.17151367 -6.95075195 29.16700195 -7.78149414 29.16235352 C-9.77957233 29.15053057 -11.7776126 29.13259453 -13.77563477 29.11352539 C-13.44563477 27.13352539 -13.11563477 25.15352539 -12.77563477 23.11352539 C-15.08563477 23.11352539 -17.39563477 23.11352539 -19.77563477 23.11352539 C-19.44563477 21.46352539 -19.11563477 19.81352539 -18.77563477 18.11352539 C-15.47563477 17.78352539 -12.17563477 17.45352539 -8.77563477 17.11352539 C-8.42629883 15.97012695 -8.07696289 14.82672852 -7.71704102 13.64868164 C-7.25757013 12.15774551 -6.79792575 10.66686284 -6.33813477 9.17602539 C-6.10803711 8.4212793 -5.87793945 7.6665332 -5.64086914 6.88891602 C-3.55430215 0.14537343 -3.55430215 0.14537343 0 0 Z " fill="#C8DAEF" transform="translate(1060.775634765625,1012.886474609375)"/>
<path d="M0 0 C5.78471209 2.44881981 8.53518876 7.64583908 11.75 12.8125 C16.67851505 25.38021337 16.87002641 39.76913883 11.484375 52.12890625 C9.38940485 56.18101958 7.04017167 59.60788728 4 63 C3.47664062 63.61488281 2.95328125 64.22976563 2.4140625 64.86328125 C-4.86466732 72.8425461 -14.88336981 76.80670817 -25.5859375 77.3359375 C-27.18206958 77.36557784 -28.77859597 77.37821758 -30.375 77.375 C-31.20990967 77.37338867 -32.04481934 77.37177734 -32.9050293 77.37011719 C-39.27319558 77.24351102 -44.44375281 76.26707335 -50 73 C-50.62390625 72.64164063 -51.2478125 72.28328125 -51.890625 71.9140625 C-54.18776057 70.48640348 -55.77330937 69.45338125 -57 67 C-56.29875 67.28875 -55.5975 67.5775 -54.875 67.875 C-53.451875 68.431875 -53.451875 68.431875 -52 69 C-51.13761719 69.34546875 -50.27523437 69.6909375 -49.38671875 70.046875 C-38.17808551 73.20132311 -24.46929924 71.81467773 -14 67 C-3.91237792 61.33647156 3.30901396 51.85118212 7 41 C9.95559523 26.76796184 7.98972973 12.22144429 0 0 Z " fill="#8EB1DB" transform="translate(609,960)"/>
<path d="M0 0 C0.495 0.99 0.495 0.99 1 2 C2.98 2 4.96 2 7 2 C5.68323389 8.41069868 3.95513121 14.48372171 1.8046875 20.66015625 C1.49581604 21.56010315 1.18694458 22.46005005 0.86871338 23.38726807 C0.21243617 25.29784804 -0.44597549 27.20769601 -1.10638428 29.11685181 C-2.13321943 32.08626907 -3.15372774 35.05779003 -4.17236328 38.0300293 C-5.50834212 41.92752408 -6.84591198 45.82446344 -8.18554688 49.72070312 C-10.42893196 56.24675525 -12.66639202 62.77457292 -14.875 69.3125 C-15.18969238 70.22717041 -15.50438477 71.14184082 -15.82861328 72.08422852 C-16.10946777 72.91881592 -16.39032227 73.75340332 -16.6796875 74.61328125 C-16.91413574 75.30204346 -17.14858398 75.99080566 -17.39013672 76.70043945 C-18.19659261 79.74127534 -18.5550943 82.88566011 -19 86 C-24.61 86 -30.22 86 -36 86 C-36 84.35 -36 82.7 -36 81 C-32.37 81 -28.74 81 -25 81 C-24.94457031 79.68902344 -24.88914062 78.37804688 -24.83203125 77.02734375 C-24.03816444 69.20521915 -21.2403782 61.94661464 -18.6875 54.5625 C-18.15306004 52.99152067 -17.61954668 51.42022583 -17.08691406 49.84863281 C-15.69032623 45.73681262 -14.28060952 41.62962107 -12.86737061 37.52349854 C-11.41673379 33.30306512 -9.97674347 29.07899976 -8.53515625 24.85546875 C-5.703277 16.56575969 -2.8563613 8.28130474 0 0 Z " fill="#86ADDA" transform="translate(847,950)"/>
<path d="M0 0 C0.66 0 1.32 0 2 0 C2 1.98 2 3.96 2 6 C3.65 6 5.3 6 7 6 C7 10.95 7 15.9 7 21 C0.07 21 -6.86 21 -14 21 C-14 44.1 -14 67.2 -14 91 C-19.61 91 -25.22 91 -31 91 C-31 89.35 -31 87.7 -31 86 C-27.37 86 -23.74 86 -20 86 C-20 62.9 -20 39.8 -20 16 C-13.07 16 -6.14 16 1 16 C0.67 10.72 0.34 5.44 0 0 Z " fill="#84A9D4" transform="translate(1031,945)"/>
<path d="M0 0 C5.94 0 11.88 0 18 0 C18 1.98 18 3.96 18 6 C19.65 6 21.3 6 23 6 C23.91161357 10.64202445 24.13747042 15.12735812 24.11352539 19.84130859 C24.11367142 20.60296326 24.11381744 21.36461792 24.1139679 22.14935303 C24.11327518 24.64907754 24.10551299 27.14872612 24.09765625 29.6484375 C24.09578979 31.38864094 24.09436696 33.12884491 24.09336853 34.86904907 C24.08956131 39.43598903 24.07974642 44.00289689 24.06866455 48.56982422 C24.05841177 53.23534715 24.05386264 57.90087529 24.04882812 62.56640625 C24.03812247 71.71095383 24.02054028 80.85546922 24 90 C18.06 90 12.12 90 6 90 C6 88.35 6 86.7 6 85 C9.63 85 13.26 85 17 85 C17 57.28 17 29.56 17 1 C11.39 1 5.78 1 0 1 C0 0.67 0 0.34 0 0 Z " fill="#86A8D0" transform="translate(864,946)"/>
<path d="M0 0 C0 2.31 0 4.62 0 7 C1.98 6.67 3.96 6.34 6 6 C6 11.28 6 16.56 6 22 C-9.84 22 -25.68 22 -42 22 C-42 20.02 -42 18.04 -42 16 C-43.98 16 -45.96 16 -48 16 C-48 14.35 -48 12.7 -48 11 C-34.14 11 -20.28 11 -6 11 C-6 7.7 -6 4.4 -6 1 C-1.125 0 -1.125 0 0 0 Z " fill="#C9DBF0" transform="translate(775,1020)"/>
<path d="M0 0 C5.96463751 3.81074063 7.93908038 8.99607736 9.69140625 15.609375 C12.56479465 29.51416362 11.77441531 44.31641797 3.8125 56.5 C-3.31715794 65.63202995 -12.59699245 71.06323548 -24 73 C-25.98674051 73.08991311 -27.9760709 73.13062377 -29.96484375 73.1328125 C-31.09470703 73.13410156 -32.22457031 73.13539062 -33.38867188 73.13671875 C-34.55978516 73.13285156 -35.73089844 73.12898438 -36.9375 73.125 C-38.10474609 73.12886719 -39.27199219 73.13273437 -40.47460938 73.13671875 C-41.60576172 73.13542969 -42.73691406 73.13414063 -43.90234375 73.1328125 C-44.92835693 73.13168457 -45.95437012 73.13055664 -47.01147461 73.12939453 C-50.07899527 72.99657973 -52.98484103 72.56609771 -56 72 C-56 70.68 -56 69.36 -56 68 C-55.23445801 67.98541748 -54.46891602 67.97083496 -53.68017578 67.95581055 C-50.16131431 67.88065298 -46.6433323 67.78421764 -43.125 67.6875 C-41.92101562 67.66494141 -40.71703125 67.64238281 -39.4765625 67.61914062 C-26.09056141 67.21901559 -13.49595122 63.96143902 -4 54 C3.25871717 45.37019181 5.69677885 33.33598299 5.33203125 22.3125 C4.5633373 14.64364739 3.04591442 7.09830492 0 0 Z " fill="#8DB1DB" transform="translate(697,964)"/>
<path d="M0 0 C1.98 0.66 3.96 1.32 6 2 C6.09507063 8.43311296 6.15316726 14.65758005 5 21 C3.56206608 20.68950274 2.1246682 20.3765224 0.6875 20.0625 C-0.11300781 19.88847656 -0.91351562 19.71445312 -1.73828125 19.53515625 C-4 19 -4 19 -7 18 C-14.62471876 17.25115642 -14.62471876 17.25115642 -21.625 19.8125 C-24.21748845 21.8465275 -24.21748845 21.8465275 -25 25 C-28.68611749 24.49734762 -31.84038931 24.0311783 -35 22 C-37.14385945 18.78421083 -37.4719871 16.768044 -37.39453125 12.9375 C-37 11 -37 11 -34.625 8.5625 C-28.29299773 4.79345103 -22.27815942 5.49906922 -15.3125 7.25 C-9.86495003 8.8598502 -6.04127384 10.95872616 -2 15 C-1.34 10.05 -0.68 5.1 0 0 Z " fill="#C5D8EE" transform="translate(956,954)"/>
<path d="M0 0 C1.98 0 3.96 0 6 0 C6 1.98 6 3.96 6 6 C7.65 6 9.3 6 11 6 C11 34.05 11 62.1 11 91 C5.06 91 -0.88 91 -7 91 C-7 89.02 -7 87.04 -7 85 C-2.71 85 1.58 85 6 85 C5.67 57.28 5.34 29.56 5 1 C3.35 1 1.7 1 0 1 C0 0.67 0 0.34 0 0 Z " fill="#CDDEF1" transform="translate(882,951)"/>
<path d="M0 0 C3.82552465 1.71489036 6.18610734 3.34218174 8.05859375 7.15625 C10.47408756 14.45284539 10.16225964 23.58259262 6.9375 30.5625 C2.2183929 38.51116364 -4.26235113 42.37939256 -13 45 C-16.76984214 45.55068505 -20.44463183 45.6198223 -24.25 45.5625 C-25.7508313 45.55150269 -25.7508313 45.55150269 -27.28198242 45.5402832 C-35.44336866 45.32632414 -42.78441476 44.0853792 -50 40 C-50.66 39.01 -51.32 38.02 -52 37 C-51.39994141 37.14074951 -50.79988281 37.28149902 -50.18164062 37.42651367 C-43.88806724 38.80703552 -37.93380674 39.33625852 -31.5 39.3125 C-30.62730469 39.32861328 -29.75460937 39.34472656 -28.85546875 39.36132812 C-20.03787022 39.36785968 -11.67334985 37.58394713 -4.76171875 31.8359375 C1.85551445 24.9399295 2.5323305 17.57052534 2.37109375 8.41796875 C2.02390047 5.22013592 1.36994749 2.88844351 0 0 Z " fill="#88AEDA" transform="translate(960,992)"/>
<path d="M0 0 C0.66 0.99 1.32 1.98 2 3 C0.4840625 2.7525 0.4840625 2.7525 -1.0625 2.5 C-10.59153283 1.38291977 -20.33656221 0.30570296 -28.90625 5.3046875 C-33.49195413 9.01773898 -37.01680235 14.12173319 -38 20 C-38.66540124 29.78467068 -38.28671101 37.9672875 -34 47 C-37.80609809 45.5304003 -39.1731926 43.61508531 -41.1875 40.125 C-41.95126953 38.82949219 -41.95126953 38.82949219 -42.73046875 37.5078125 C-46.38892396 30.28095637 -46.25518667 19.95935168 -44.28125 12.16015625 C-41.68574963 6.03770577 -38.07585093 0.82930435 -32.125 -2.375 C-22.00784539 -6.38146056 -9.57048226 -4.87491345 0 0 Z " fill="#8DB0DA" transform="translate(517,965)"/>
<path d="M0 0 C1.57421875 1.0703125 1.57421875 1.0703125 2.57421875 3.0703125 C1.37925781 3.01230469 0.18429687 2.95429687 -1.046875 2.89453125 C-12.39478826 2.24832955 -12.39478826 2.24832955 -22.6640625 6.38671875 C-29.76438148 13.1721677 -32.44130853 20.76201624 -32.80078125 30.4453125 C-32.74488045 35.83042324 -31.79307044 39.66300989 -29.203125 44.36328125 C-28.94660156 44.92660156 -28.69007813 45.48992188 -28.42578125 46.0703125 C-28.75578125 46.7303125 -29.08578125 47.3903125 -29.42578125 48.0703125 C-36.53954679 40.74215951 -39.50685661 35.48707396 -39.86328125 25.1953125 C-39.64566558 16.34876236 -37.28209139 9.01825604 -31.09765625 2.54296875 C-22.36229498 -5.15149667 -10.17734111 -5.07926451 0 0 Z " fill="#8DB0DA" transform="translate(588.42578125,963.9296875)"/>
<path d="M0 0 C1.65 0 3.3 0 5 0 C5.41889496 1.16605522 5.41889496 1.16605522 5.84625244 2.35566711 C8.49370087 9.72510681 11.1413553 17.09447246 13.78923416 24.46375751 C15.15012822 28.25127033 16.51094597 32.03881051 17.87158203 35.82641602 C19.18763689 39.48991152 20.50390173 43.15333152 21.82030487 46.81670189 C22.31946862 48.20591804 22.81856 49.5951602 23.31757355 50.98443031 C23.79374407 52.31007696 24.27005524 53.63567309 24.74651718 54.96121502 C25.41504607 56.82188036 26.08235828 58.6829827 26.74963379 60.5440979 C27.56309255 62.79242628 28.38795004 65.03667412 29.22595215 67.27597046 C29.59321411 68.25893097 29.96047607 69.24189148 30.33886719 70.25463867 C30.82235626 71.52980598 30.82235626 71.52980598 31.31561279 72.83073425 C32 75 32 75 32 78 C26.06 78 20.12 78 14 78 C13.34 76.35 12.68 74.7 12 73 C16.62 73 21.24 73 26 73 C23.54483004 66.06137672 21.08629565 59.12395275 18.625 52.1875 C18.26229004 51.16523315 17.89958008 50.14296631 17.52587891 49.08972168 C12.69780646 35.49107954 7.81766078 21.91632227 2.74462891 8.40698242 C2.37515137 7.42189697 2.00567383 6.43681152 1.625 5.421875 C1.30789063 4.58237305 0.99078125 3.74287109 0.6640625 2.87792969 C0 1 0 1 0 0 Z " fill="#89B0DC" transform="translate(1085,958)"/>
<path d="M0 0 C16.60493827 0 16.60493827 0 23 4 C24.7734375 6.140625 24.7734375 6.140625 26 8 C24.948125 7.690625 23.89625 7.38125 22.8125 7.0625 C16.97588587 5.77389688 10.95956427 5.45842802 5 5 C5 21.83 5 38.66 5 56 C3.35 56 1.7 56 0 56 C0 37.52 0 19.04 0 0 Z " fill="#8EB3DF" transform="translate(653,961)"/>
<path d="M0 0 C1.20970459 0.00523682 2.41940918 0.01047363 3.66577148 0.01586914 C4.97094727 0.0190918 6.27612305 0.02231445 7.62084961 0.02563477 C9.00952213 0.03399138 10.39819401 0.04245634 11.78686523 0.05102539 C13.17944179 0.05603873 14.57202005 0.06060193 15.96459961 0.06469727 C19.38456394 0.07653105 22.80444367 0.09301659 26.22436523 0.11352539 C26.71936523 2.58852539 26.71936523 2.58852539 27.22436523 5.11352539 C19.30436523 5.44352539 11.38436523 5.77352539 3.22436523 6.11352539 C1.62046036 11.33305348 1.62046036 11.33305348 0.0234375 16.5546875 C-1.66452365 22.00241428 -1.66452365 22.00241428 -2.77563477 23.11352539 C-5.63831044 23.18677707 -8.47635376 23.20590744 -11.33813477 23.17602539 C-12.14444336 23.17151367 -12.95075195 23.16700195 -13.78149414 23.16235352 C-15.77957233 23.15053057 -17.7776126 23.13259453 -19.77563477 23.11352539 C-19.44563477 21.46352539 -19.11563477 19.81352539 -18.77563477 18.11352539 C-15.47563477 17.78352539 -12.17563477 17.45352539 -8.77563477 17.11352539 C-8.42629883 15.97012695 -8.07696289 14.82672852 -7.71704102 13.64868164 C-7.25757013 12.15774551 -6.79792575 10.66686284 -6.33813477 9.17602539 C-6.10803711 8.4212793 -5.87793945 7.6665332 -5.64086914 6.88891602 C-3.55430215 0.14537343 -3.55430215 0.14537343 0 0 Z " fill="#88AFDB" transform="translate(1060.775634765625,1012.886474609375)"/>
<path d="M0 0 C0.16225719 2.75236274 0.2809328 5.49517476 0.375 8.25 C0.42527344 9.02730469 0.47554687 9.80460938 0.52734375 10.60546875 C0.5853368 12.86719789 0.52513521 14.79825537 0 17 C-6.73426644 23.62458783 -17.35920419 24.56427928 -26.375 24.5 C-27.28894531 24.49572998 -28.20289063 24.49145996 -29.14453125 24.48706055 C-37.90082171 24.26737702 -45.76461182 22.42345018 -52.25 16.1875 C-53.11625 15.1046875 -53.11625 15.1046875 -54 14 C-52.948125 14.433125 -52.948125 14.433125 -51.875 14.875 C-50.92625 15.24625 -49.9775 15.6175 -49 16 C-48.17113281 16.34546875 -47.34226562 16.6909375 -46.48828125 17.046875 C-41.73145013 18.34661385 -37.22375202 18.38245824 -32.3125 18.375 C-31.33240967 18.37483887 -30.35231934 18.37467773 -29.3425293 18.37451172 C-20.83828103 18.2401634 -14.12771322 16.75180881 -7 12 C-6.80578077 9.99306792 -6.61336243 7.98585509 -6.4453125 5.9765625 C-6 4 -6 4 -3.5 1.5 C-1 0 -1 0 0 0 Z " fill="#8EB1DA" transform="translate(527,1013)"/>
<path d="M0 0 C1.98 0 3.96 0 6 0 C6 4.95 6 9.9 6 15 C-1.92 15 -9.84 15 -18 15 C-18 20.94 -18 26.88 -18 33 C-19.98 33 -21.96 33 -24 33 C-24 25.41 -24 17.82 -24 10 C-16.08 10 -8.16 10 0 10 C0 6.7 0 3.4 0 0 Z " fill="#8EAFD8" transform="translate(761,983)"/>
<path d="M0 0 C1.98 0 3.96 0 6 0 C6 5.61 6 11.22 6 17 C-8.85 16.505 -8.85 16.505 -24 16 C-24 19.63 -24 23.26 -24 27 C-25.98 27 -27.96 27 -30 27 C-30 21.72 -30 16.44 -30 11 C-25.56245985 10.97310582 -21.1250816 10.95321223 -16.6875 10.9375 C-15.42486328 10.92912109 -14.16222656 10.92074219 -12.86132812 10.91210938 C-11.04858398 10.90727539 -11.04858398 10.90727539 -9.19921875 10.90234375 C-8.08377686 10.89710693 -6.96833496 10.89187012 -5.8190918 10.88647461 C-3 11 -3 11 0 12 C0 8.04 0 4.08 0 0 Z " fill="#8EB1DB" transform="translate(767,951)"/>
<path d="M0 0 C1.98 0 3.96 0 6 0 C6 4.95 6 9.9 6 15 C-1.92 15 -9.84 15 -18 15 C-18 18.96 -18 22.92 -18 27 C-19.98 27 -21.96 27 -24 27 C-24 21.06 -24 15.12 -24 9 C-16.08 9 -8.16 9 0 9 C0 6.03 0 3.06 0 0 Z " fill="#C7D9EF" transform="translate(767,989)"/>
<path d="M0 0 C1.98 0 3.96 0 6 0 C6 5.28 6 10.56 6 16 C-3.9 16 -13.8 16 -24 16 C-24 17.65 -24 19.3 -24 21 C-25.98 21 -27.96 21 -30 21 C-30 17.37 -30 13.74 -30 10 C-25.56251365 9.97103178 -21.12505153 9.95321212 -16.6875 9.9375 C-15.42486328 9.92912109 -14.16222656 9.92074219 -12.86132812 9.91210938 C-11.04858398 9.90727539 -11.04858398 9.90727539 -9.19921875 9.90234375 C-8.08377686 9.89710693 -6.96833496 9.89187012 -5.8190918 9.88647461 C-3 10 -3 10 0 11 C0 7.37 0 3.74 0 0 Z " fill="#C8DBF0" transform="translate(773,957)"/>
<path d="M0 0 C0 5.28 0 10.56 0 16 C-15.84 16 -31.68 16 -48 16 C-48 14.35 -48 12.7 -48 11 C-34.14 11 -20.28 11 -6 11 C-6 7.7 -6 4.4 -6 1 C-1.125 0 -1.125 0 0 0 Z " fill="#88B1DE" transform="translate(775,1020)"/>
<path d="M0 0 C2.62848694 4.98375149 4.28708067 10.31256886 6.125 15.625 C6.68380859 17.21828125 6.68380859 17.21828125 7.25390625 18.84375 C7.60582031 19.85695313 7.95773437 20.87015625 8.3203125 21.9140625 C8.64273926 22.8417041 8.96516602 23.7693457 9.29736328 24.72509766 C10 27 10 27 10 29 C3.73 29 -2.54 29 -9 29 C-6.74687782 18.86095017 -6.74687782 18.86095017 -5.52734375 15 C-5.26759766 14.17628906 -5.00785156 13.35257813 -4.74023438 12.50390625 C-4.47533203 11.67761719 -4.21042969 10.85132813 -3.9375 10 C-3.66873047 9.14277344 -3.39996094 8.28554688 -3.12304688 7.40234375 C-1.13001778 1.13001778 -1.13001778 1.13001778 0 0 Z " fill="#82A5CE" transform="translate(1072,969)"/>
<path d="M0 0 C0.54785156 0.19335938 1.09570312 0.38671875 1.66015625 0.5859375 C8.23188428 2.7444563 14.6009871 3.65092665 21.484375 4.27734375 C25.47536521 5.09771396 27.81901389 6.49044958 31 9 C32.4783226 11.95664519 32.06032783 14.74229737 32 18 C31.67 17.34 31.34 16.68 31 16 C28.51585423 15.50974741 26.06541413 15.11146625 23.5625 14.75 C14.04843685 13.17436878 6.27851788 9.53422146 0 2 C0 1.34 0 0.68 0 0 Z " fill="#C8DAEF" transform="translate(915,992)"/>
<path d="M0 0 C2.475 0.495 2.475 0.495 5 1 C6.85702866 6.63985074 8.70828942 12.2815491 10.55419922 17.92504883 C11.18314443 19.84516628 11.81367067 21.7647666 12.44580078 23.68383789 C13.35343603 26.44022783 14.25539408 29.19841937 15.15625 31.95703125 C15.44060913 32.81649857 15.72496826 33.67596588 16.01794434 34.56147766 C16.27821411 35.36208115 16.53848389 36.16268463 16.80664062 36.98754883 C17.03758423 37.6914827 17.26852783 38.39541656 17.50646973 39.12068176 C18 41 18 41 18 44 C18.66 44.33 19.32 44.66 20 45 C19.34 46.98 18.68 48.96 18 51 C17.34 51 16.68 51 16 51 C13.71723689 44.05961568 11.43904087 37.11774462 9.1640625 30.17480469 C8.38908095 27.81150106 7.61304203 25.4485439 6.8359375 23.0859375 C5.72119544 19.69621165 4.61022213 16.30527101 3.5 12.9140625 C3.15001953 11.85256989 2.80003906 10.79107727 2.43945312 9.69741821 C2.11912109 8.71655243 1.79878906 7.73568665 1.46875 6.72509766 C1.18451172 5.85905914 0.90027344 4.99302063 0.60742188 4.10073853 C0 2 0 2 0 0 Z " fill="#8BB1DD" transform="translate(797,951)"/>
<path d="M0 0 C3.30970245 1.22070816 5.7630275 2.76390585 8.53125 4.93359375 C5.97951056 6.20946347 5.17898571 5.7274272 2.46875 4.99609375 C-3.78759302 3.5376215 -8.99149528 2.82767647 -14.96875 5.49609375 C-18.12184479 8.57036117 -18.30258414 10.61328134 -18.46875 14.93359375 C-20.34375 14.62109375 -20.34375 14.62109375 -22.46875 13.93359375 C-24.61260945 10.71780458 -24.9407371 8.70163775 -24.86328125 4.87109375 C-24.46875 2.93359375 -24.46875 2.93359375 -22.09375 0.49609375 C-14.89162975 -3.79088259 -7.73282145 -2.26988719 0 0 Z " fill="#87ADD8" transform="translate(943.46875,962.06640625)"/>
<path d="M0 0 C2.475 0.495 2.475 0.495 5 1 C6.46205662 5.13771579 7.90370314 9.28183429 9.32739258 13.43286133 C9.81379304 14.84198495 10.3055796 16.24926199 10.80297852 17.65454102 C11.5198642 19.68296079 12.21667301 21.71738447 12.91015625 23.75390625 C13.33433838 24.97408447 13.75852051 26.1942627 14.19555664 27.45141602 C15.07688632 31.33916319 14.80248006 34.12243373 14 38 C13.34 38 12.68 38 12 38 C8.04 25.46 4.08 12.92 0 0 Z " fill="#CADBEF" transform="translate(803,957)"/>
<path d="M0 0 C4.95 0 9.9 0 15 0 C15 23.1 15 46.2 15 70 C14.67 70 14.34 70 14 70 C14 48.55 14 27.1 14 5 C9.38 5.33 4.76 5.66 0 6 C0 4.02 0 2.04 0 0 Z " fill="#A1B0C3" transform="translate(979,961)"/>
<path d="M0 0 C1.98 0.66 3.96 1.32 6 2 C6.09507063 8.43311296 6.15316726 14.65758005 5 21 C2.35315395 19.40086385 0.79482199 18.44367892 -1 16 C-1.90271674 10.575567 -1.16835838 5.33003163 0 0 Z " fill="#88AFDC" transform="translate(956,954)"/>
<path d="M0 0 C1.98 0.66 3.96 1.32 6 2 C5.67 8.27 5.34 14.54 5 21 C2.69 19.35 0.38 17.7 -2 16 C-1.34 10.72 -0.68 5.44 0 0 Z " fill="#CADCF1" transform="translate(962,960)"/>
<path d="M0 0 C1.98 0.66 3.96 1.32 6 2 C6 8.27 6 14.54 6 21 C2.535 19.02 2.535 19.02 -1 17 C-0.67 11.39 -0.34 5.78 0 0 Z " fill="#89B1DE" transform="translate(520,952)"/>
<path d="M0 0 C0.54785156 0.19335938 1.09570312 0.38671875 1.66015625 0.5859375 C8.23188428 2.7444563 14.6009871 3.65092665 21.484375 4.27734375 C25.45532535 5.09359466 27.82844139 6.51431526 31 9 C31 9.33 31 9.66 31 10 C19.41846004 9.51604516 9.88674211 8.23294611 0 2 C0 1.34 0 0.68 0 0 Z " fill="#89AED9" transform="translate(915,992)"/>
<path d="M0 0 C0.66 0 1.32 0 2 0 C2.67413211 1.91405367 3.3390332 3.83136026 4 5.75 C4.37125 6.81734375 4.7425 7.8846875 5.125 8.984375 C6 12 6 12 6 16 C2.7 16 -0.6 16 -4 16 C-2.96168893 10.51178434 -1.93581306 5.25434973 0 0 Z " fill="#C4D5EA" transform="translate(1075,981)"/>
<path d="M0 0 C0 3.3 0 6.6 0 10 C-1.98 10.66 -3.96 11.32 -6 12 C-6.4386423 6.73629243 -6.4386423 6.73629243 -6 4 C-2.1 0 -2.1 0 0 0 Z " fill="#A8C0DF" transform="translate(527,1013)"/>
<path d="M0 0 C2.64 0 5.28 0 8 0 C8 1.98 8 3.96 8 6 C5.36 6.33 2.72 6.66 0 7 C0 4.69 0 2.38 0 0 Z " fill="#C9DBF0" transform="translate(985,966)"/>
<path d="M0 0 C0.33 0.66 0.66 1.32 1 2 C2.98 2 4.96 2 7 2 C6.67 4.31 6.34 6.62 6 9 C3.69 8.67 1.38 8.34 -1 8 C-0.67 5.36 -0.34 2.72 0 0 Z " fill="#9FBCDF" transform="translate(847,950)"/>
<path d="M0 0 C0 5.28 0 10.56 0 16 C-0.33 16 -0.66 16 -1 16 C-1 13.03 -1 10.06 -1 7 C-2.65 7 -4.3 7 -6 7 C-6 5.02 -6 3.04 -6 1 C-1.125 0 -1.125 0 0 0 Z " fill="#A3C2E6" transform="translate(775,1020)"/>
<path d="M0 0 C2.64 0.33 5.28 0.66 8 1 C7.67 2.32 7.34 3.64 7 5 C4.36 5 1.72 5 -1 5 C-0.67 3.35 -0.34 1.7 0 0 Z " fill="#A2C0E3" transform="translate(1042,1031)"/>
<path d="M0 0 C1.98 0 3.96 0 6 0 C6 1.98 6 3.96 6 6 C4.02 6 2.04 6 0 6 C0 4.02 0 2.04 0 0 Z " fill="#A4C2E6" transform="translate(761,983)"/>
<path d="M0 0 C1.98 0 3.96 0 6 0 C6 1.98 6 3.96 6 6 C4.02 6 2.04 6 0 6 C0 4.02 0 2.04 0 0 Z " fill="#A6C3E6" transform="translate(767,951)"/>
<path d="M0 0 C1.65 0 3.3 0 5 0 C5 2.31 5 4.62 5 7 C3.35 7 1.7 7 0 7 C0 4.69 0 2.38 0 0 Z " fill="#A5C3E6" transform="translate(1033,951)"/>
<path d="M0 0 C1.98 0 3.96 0 6 0 C6 1.65 6 3.3 6 5 C4.02 5.33 2.04 5.66 0 6 C0 4.02 0 2.04 0 0 Z " fill="#A3C2E6" transform="translate(979,961)"/>
<path d="M0 0 C1.65 0 3.3 0 5 0 C5.33 2.31 5.66 4.62 6 7 C4.68 7 3.36 7 2 7 C1.34 4.69 0.68 2.38 0 0 Z " fill="#ADC8E8" transform="translate(1083,951)"/>
<path d="M0 0 C1.98 0 3.96 0 6 0 C6 1.65 6 3.3 6 5 C4.02 5 2.04 5 0 5 C0 3.35 0 1.7 0 0 Z " fill="#A1BFE4" transform="translate(1000,1031)"/>
<path d="M0 0 C1.98 0 3.96 0 6 0 C6 1.65 6 3.3 6 5 C4.02 5 2.04 5 0 5 C0 3.35 0 1.7 0 0 Z " fill="#A3C2E6" transform="translate(727,1031)"/>
<path d="M0 0 C1.98 0.66 3.96 1.32 6 2 C6 5.96 6 9.92 6 14 C5.67 14 5.34 14 5 14 C5 11.03 5 8.06 5 5 C3.35 4.67 1.7 4.34 0 4 C0 2.68 0 1.36 0 0 Z " fill="#A8C5E7" transform="translate(956,954)"/>
<path d="M0 0 C1.65 0 3.3 0 5 0 C5 1.98 5 3.96 5 6 C3.35 6 1.7 6 0 6 C0 4.02 0 2.04 0 0 Z " fill="#A2C1E5" transform="translate(882,952)"/>
<path d="M0 0 C1.98 0.66 3.96 1.32 6 2 C6 3.32 6 4.64 6 6 C3.03 5.505 3.03 5.505 0 5 C0 3.35 0 1.7 0 0 Z " fill="#A4C3E6" transform="translate(520,952)"/>
<path d="M0 0 C2.475 0.495 2.475 0.495 5 1 C5.33 2.65 5.66 4.3 6 6 C4.35 5.67 2.7 5.34 1 5 C0.67 3.35 0.34 1.7 0 0 Z " fill="#ADC7E7" transform="translate(797,951)"/>
<path d="M0 0 C1.65 0 3.3 0 5 0 C5 1.65 5 3.3 5 5 C3.35 5 1.7 5 0 5 C0 3.35 0 1.7 0 0 Z " fill="#A3C2E6" transform="translate(870,1031)"/>
<path d="M0 0 C1.32 0 2.64 0 4 0 C4.33 1.65 4.66 3.3 5 5 C3.35 5 1.7 5 0 5 C0 3.35 0 1.7 0 0 Z " fill="#A7C5E7" transform="translate(811,1031)"/>
<path d="M0 0 C2.97 0.495 2.97 0.495 6 1 C6 1.99 6 2.98 6 4 C4.02 4 2.04 4 0 4 C0 2.68 0 1.36 0 0 Z " fill="#A6C3E6" transform="translate(641,1032)"/>
<path d="M0 0 C2.475 0.495 2.475 0.495 5 1 C5.33 2.32 5.66 3.64 6 5 C4.35 4.67 2.7 4.34 1 4 C0.67 2.68 0.34 1.36 0 0 Z " fill="#A4C2E6" transform="translate(1097,1031)"/>
<path d="M0 0 C0.66 0.33 1.32 0.66 2 1 C-0.64 3.64 -3.28 6.28 -6 9 C-6 6 -6 6 -3.5625 3.375 C-2.716875 2.59125 -1.87125 1.8075 -1 1 C-0.67 0.67 -0.34 0.34 0 0 Z " fill="#D6D5D5" transform="translate(1067,689)"/>
</svg>
